<svg id="svg2403" xmlns="http://www.w3.org/2000/svg" xmlns:xlink="http://www.w3.org/1999/xlink" width="550" height="549.96" viewBox="0 0 550 549.96">
  <defs>
    <style>
      .cls-1 {
        fill: #fff;
      }

      .cls-2 {
        fill: #b9b9b9;
      }

      .cls-3 {
        fill: #346733;
      }

      .cls-4 {
        fill: #396733;
      }

      .cls-4, .cls-6 {
        fill-rule: evenodd;
      }

      .cls-5, .cls-7 {
        fill: none;
      }

      .cls-5 {
        stroke: #aaa;
        stroke-miterlimit: 10.26;
        stroke-width: 1.52px;
      }

      .cls-6 {
        opacity: 0.26;
        isolation: isolate;
        fill: url(#radial-gradient);
      }

      .cls-7 {
        stroke: #000;
        stroke-miterlimit: 4.1;
        stroke-opacity: 0.47;
        stroke-width: 0.3px;
      }
    </style>
    <radialGradient id="radial-gradient" cx="81.8" cy="541.9" r="45.07" gradientTransform="matrix(-3.1, 7.94, 7.19, 2.81, -3378.48, -2003.45)" gradientUnits="userSpaceOnUse">
      <stop offset="0" stop-opacity="0"/>
      <stop offset="0.49" stop-opacity="0.02"/>
      <stop offset="0.57" stop-opacity="0.04"/>
      <stop offset="0.64" stop-opacity="0.07"/>
      <stop offset="0.7" stop-opacity="0.15"/>
      <stop offset="0.73" stop-opacity="0.21"/>
      <stop offset="1" stop-opacity="0.55"/>
    </radialGradient>
  </defs>
  <title>Americas_(orthographic_projection) 2</title>
  <g id="g3988">
    <path id="path3296" class="cls-1" d="M549.22,275c.43-80-36.48-159.17-98.11-210.24C389.8,12.94,304.82-9.89,225.93,5.31,141.91,19.73,66.71,76.47,29.4,153.09-5.3,222-8.67,305.65,20.56,377.05c30.53,78,99.28,139.72,180.08,161.79,77.75,22.61,165.13,7.73,231.27-39C498.52,454,542.64,377,548.31,296.3A191.61,191.61,0,0,0,549.22,275Z" transform="translate(0 0)"/>
    <path id="path4571" class="cls-2" d="M266.11.74,266,.8h.16l.13,0,.76,0Zm0,.06-.25,0-.38.19Zm-.25,0,.09,0L262.46,1h-.29l-2.88.22.44-.22h-.6l-1.24.31h1.24l.12-.06L264.9,1ZM274,.74,269.16,1h3Zm.32,0,.29.29h2.12l-.88.31,1.81.29,3.65-.29L279.82,1H278Zm5.46.29,2.16.31V1h-2.16Zm-25,.31-.13.13,1-.13Zm-.13.13-1.39.16h1.24Zm-1.39.16h-2.45l-.63.22Zm-3.08.22-1.18.1h-.92l-.73.25L249.35,2H250Zm-2.83.35-.47.06h.28Zm-2.31.06-.61.29.92-.29Zm-2.73.29-.32.32.6-.32Zm64.27,0,5.18.92,3.36.32,1.84.28,1,.19.22.13h.35l1.49.29,3.05.63H324l3,.6-.6-.31h-.6l-.92-.29h-.29L323.12,5h-.64l-1.81-.31-1.17-.26-.07,0h-.06l-1.46-.32-9.14-1.2Zm-3.93.92h0Zm-69.2.6-3,.32-2.12.29-3.05.63L228,5.09l1.81-.41h.41l.35-.16.54-.13Zm73.74.61,4.88.63-3.36-.63Zm-79.45.44-1.91.19-.28.29Zm-4.35.48L221.64,6l2.44-.41ZM221.64,6l-1.24.19h.32ZM225,5.6l-2.57.63.16,0Zm-3.65.31-1.2.29,1.52-.29Zm-1.2.29-1.34.32h.73Zm-1.34.32h-.5l-.42.22Zm-.92.22-.41.09h.22Zm-.41.09h-.7l-.6.29h-.6l-.92.32-.26.12.35-.09.13,0h.09Zm109.92-.92,2.44.61-1.52-.61Zm.92,0,2.73.61-2.44-.61Zm.92.29,1.21.32,2.12.31Zm3.33.63,1,.23-.7-.23Zm-110.2-.6-2.22.29,2.16-.26Zm111.44.89,4.86,1.24h.51l-.1,0h0l-.1-.07.64.1-1.05-.26h0l-2.89-.66-1.21-.32Zm5.78,1.24h-.41l.34.12L341.4,9Zm1.84.6,1.21.32,2.12.6-1.81-.6L342.29,9Zm3.33.92,1.62.22-.7-.22Zm1.62.22.22.07.32.16,1.81.47-1.84-.63Zm2.35.7,1.46.41-.25-.12L349,10.8Zm0,0h-.35l.95.29Zm-.35,0L347,10.39l.19.09.92.32ZM347,10.39l-.1-.06-.51-.13Zm3.17.82.38.2,1.81.6H353ZM353,12l1.34.38-.13-.06-.92-.32Zm1.34.38.47.22.45.16-.13-.16Zm.92.38.16.16.76.16Zm.92.32,1.36.44.64.32h.28l-.25-.13.51.13h.13l-1.05-.35-.54-.29h-.32Zm2.67.76.63.22.22.06,2.7.89-.57-.28-.92-.29-1.84-.6Zm.63.22-.76-.22h-.26Zm-20-5.59L339,8.36l.92.28ZM214.34,7.56l-.63.16H214Zm-1.56.16v.1l-.6.22h.6l.64-.32h-.64Zm-.6.32h-.92l-.6.32h.6l.45-.22Zm-1.52.32-1.53.28h-.28l-.64.32h-.6l-.6.29h-.61l-.6.31h.29l-.57.23.73-.23h.15l.2-.09L208.34,9h.51l1-.32h.25ZM338.45,8.2l.28,0,0,0Zm-19,.44,1.24.61L318.83,9l2.76.6h-2.16l1.85.32.31.29h1.81l-.6-.29-.32-.32,1.84.61.61-.61-4.26-.92Zm-114.26.92-3,.92,1-.19-.35.19h-.63l-.86.29h0l-.09,0-.8.29H200l-.6.32h-.6l-.61.28h-.31l-2.73.92-.64.32-.89.28h-.92l-1.84.61-.6.31-1.21.42v.19l-.06,0-.86.29-.89.28h-.31l.82-.25.06,0h0l.54-.32-1.78.6-.6.32h-.32l-.51.28-.1,0-1.9.6H183l-.13.13h0l-.48.15-.6.32h-.29l-.63.32h-.6l-.29.29h-.32l-.6.31h-.32l-.6.29h-.32l-5.39,2.16h-.07l-.06.06-.57.22H172l-.8.32h-.41l-.32.29-.09,0-1.46.6h-.29l-.19.19-1,.41.93-.31-.77.31h-.47l-.29.29-.41.22-.1,0-.92.38H165l-.28.29-.2.09h0l-.31.16-.86.35h-.13l-.63.32-1.24.54-.29.06h.13l-.6.26-.35.16-.67.28-.63.22v.23l-.42.25-1.11.44-2.73,1.53.29-.32-2.73,1.24-.32.28-1.2.61-1,.47-.12.07-.16.06-.61.32.64-.29-.64.6-1.8.93,3-1.24,1.53.31-2.13,1.53,1.81-.6,7.62-4-1.21.28,2.73-1.2h-.6l1.84-.92-1.84,1.84,1.2-.32,1.84-.6,2.67-1.21h.06l.64-.32v.32l-4,1.81-.32.6-3.33,1.84-2.16,1.85-.6.28h.6l1.84-.92h.92l2.1-.86-.29.26,1.84-.61-1.2.61,2.41-.61,3.68-2.44.89-.92-.28-.29L171.05,26l7-4.26L183.23,19l.61-.63,1.84-.89,1.2-.64h-.6l-.16.07-1.36.57-3,.86,2.38-1.18,2.73-.92h-.6l4-1.52h-.92l.12-.13.61-.16h.19l.06-.06.86-.26h.28l.39-.19.44-.12h.1l.12-.07h0l.77-.22h.31l3.94-1.24,3.36-1.2,4.22-1.21h-.57l-.44.19-.38.1.82-.29.64-.22v-.1ZM148.79,31.5l.16-.13-.6.35Zm.16-.13.77-.48-.61.32Zm.77-.48-.23.23.29-.16.54-.38Zm.06.07-.1.09.8-.47Zm172.1-20.48,5.49.93-4-.32,2.45.32-1.21.28-1.52-.6,1.52.92,6.38.6-3.33-.92,1.81.32-1.21-.6h1.21l2.12,1.2,1.53.32L331.94,12l1.52.6h.61v.32l2.12.28H338l-8.82-2.12-.63-.32-1.21-.29h-3.65l1.21.29Zm6.09,0,.92.29h.89Zm1.81.29h0l.61.32,3,.32-1.2-.32,1.81.32-2.13-.64-2.73-.29Zm-29.23,3.05-5.18.92,2.13.92-3.65-.32.32.64h2.73l1.2.6-3.93-.32,3.33.6H296l-.61-.28h-1.84l2.92.57,1.05.64L292,17.18l3.05,1.21-2.73-.29v.61l-1.84-1.21-2.13.89,3.05.92-2.73-.6h-1.24l1.24,1.52-1.53-.32.92.92-1.23-.6-1.53,1.52.61.32,2.44-.32-.29,2.13-2.76.32-3,1.81,4.28,1.23,3.05-.31.28.6h-3l3,.32-5.17.31,4,.61-1.53.6,1.53.6,2.44.32-.92-.6,2.13.28,1.52-.92,3,.32,1.52.6,6.7,2.45-.6,1.2,1.2-.6,2.76,2.76,3,.89-1.84.32h1.52v1.2l.61-.88-.89,1.52,3.05.29L312.74,37l1.52,1.52,2.13-.32-1.21.93,2.13-.29-.92.89,1.24-.6-.61.6h.61L321,41.24l-4.26-.6-2.12.6,4.57,1.24,3.05-.6v.28l.6,2.13,1.84-.29v.92l-1.84-.63,2.13,1.52h-.29v1.24l2.13.29h-2.13L324,48l3-.32-4.85,1.84,4-.31-3.36.92,3.36.6-1.84.6,2.13.32L328,50.1l1.24.28-3.68,2.76,3.05-.6-1.81,1.21,1.81.92,1.23-1.53,1.81.29-3,1.52,1.23-.28.61,1.52,1.2-.6-.89.89L331.94,58l1.21-1.81L331.62,55l4.29,2.16-1.27-.28L332.54,58l3-.28-2.44.6,1.23.32-.6.88,2.13-.28-.92.92,2.12-.32-1.8.32,2.41.29.31,1.23.61-.92v1.81l2.44.32V64.1l1.21-.61-.6.92.92-.6v.92h1.2l-1.2.6,2.12-.31-1.2.6,2.44-.29,1.52,1.53L351.43,65l-.89,1.84.89-1.24v1.52l.92-.89.92,1.21.29-1.21.31,2.13.32-1.52.89,1.81.32-1.53,2.73.64-3.34-.92,2.45-.61-1.84-.63.92-.89-1.84-.63,1.23-.89h-1.52l1.21-.64h-1.21l.6-.89-2.73-1.23,1.81.31-2.73-.92,2.13-.6L351.75,58l1.81.32-2.13-.92,1.84.32-1.52-.32,1.2-.61-1.81-.6,1.81.29-1.2-1.21h-1.84l1.52-.92-3.33-1.81,1.81.29L349,51.3,348.7,51l2.44-.64-1.84-2.12h1.24l.6,1.52h1.21l-1.21-.92.92.63,1.21-1.23-1.21-.61h1.81l-2.44-4,.63-.92-3-1.53,3,.92,1.53-.6-.92-.6,1.52.28,1.52-2.12-1.23-4.26h-3.94l-.32,1.53v.28h-1.84l.64-1.52-2.45.92-1.23-1.81h1.84v-.92l-3.65.28.28-.88L342,32.42l5.49.32,4.57,1.52-.92-.92,1.53.6.6-.32-2.73-.88-1.24-.93-.6.29-.32-.89-.6.6-.6-.6-3.65-.63.28.92-.6-.61-.92.32.92-.63L341.69,30l-.29.92-1.84-.31,1.2-.89-2.41.28.61-.28-1.53-.32h1.81v-.92l-2.41-.29,2.73.29-.92-.6h2.12l-1.52.31,2.76.29.61-.92-1.53-.6h-1.84l1.84.6-2.12-.6-.58-.29,1.5-.63h.28l-.6-.61h-1.21l-.92.32-1.24-.92-1.81.32,1.21-.64h.92l-2.44-1.2h-.61l-1.84.31.64-.92h-.32l-1.21.29-2.44-.6,1.21-.61.92-.31L328,20.55l-1.2.28h-.92l.31-.28v-.32h-.92L324,19.91l.92.92-1.81-.92-2.45-1.52-3.36-1.81v.92l-1.53-.32V15.66l-1.52.6-.6.32v-.32l.92-1.2-3.05-1.24-2.13.31,1.53.93H310l-.61.28,2.73,1.84L307,14.74l.6,1.52L306,15.34l-2.73,1.24-.63-.6,2.76-.92-.32-.93-2.44.32-1.21-.63L299,15.66l-.61-.92Zm34.09,43,0,0-1.52-.31Zm-8.19-5.21-2.13.29,1.21.31-.29.61Zm-1.81-4.28h-3.05l2.42.31h-2.13l.6,1.53Zm0-1.53H322.2L321,47.05ZM363,15.34l-.61.32.92.32,2.13.88L363,16l.92.6H363l1.52.6-1.21-.32H363l-.61-.6-1.84-.6h-.89l2.41.92-2.73-.92V16l.93.28,2.12.6.61.32-2.73-.92,4.57,1.84-3.65-1.24v.32l4.44,1.4.13.13h.28l-.92.31,1.24.23v.06h.29l.92.32h-.92l.63.28,1.21.64.41.09.16.07-.89-.16.92.28,1.52.61H370L373.68,23l.92.63.32-.31.28.6,2.45.92-1.84-.6,1.23.6h.29l.32.32,1.2.28,1.84,1.24.32-.32.89,1.21h.64l3,1.52.29.32,1.24.32h-.32l3,1.52-.61-.63,2.13,1.52-.32-.6,1.24.92.92.32.6.6L392.57,33l4.28,2.44.29-.31-2.42-1.53,2.73,1.53.61.92-1.21-.61.92,1.21,2.41.92h-.6l1.21.32-1.21.28h1.21l.31,1.24,2.13.61L402,39.72l1.21.63h-.6l.6.29-.6.32,1.2.6,1.24.6h.61v.32H406l1.21.6-.32-.6-.89-.6,1.21.28-1.52-.92,1.2.32,1.52,1.21-1.52-.29.64.92.6.29.28.31.93.61-.61-.92,1.53,1.23.92.61-.92-.92,1.84,1.2-2.16-2.12,3.68,3.36,1.21.29-1.21-1.21,1.81,1.52.32-.31.92.63h-.92l2.12,1.21,2.45.6-.61-.92-4-3.33.28-.32-3.65-2.13,6.41,3.37-.31-.32,1.27.73L421.23,48l4.57,1.81L427,51l1.07.7,1.37,1.11-1.21-.61.89.92,4.57,2.45-1.52-.92-1.81-1.59v-.86L427,49.78v-.29l-5.78-4-4-2.13v-.32h-.6l-.92-1.2L413.9,41l1.52.6-2.13-1.21H413l-1.81-1.52-3.05-1.24v.32l-10.06-5.17L399,33l-4-2.13-.29-.31h0l-.35-.19L393.8,30l-3-1.52-3.65-1.52h.28L385,26h.63l-1.52-.61-.64-.92,2.77.92,11.58,6.1L403,33.94l3.65,1.84,1.2.29,1.24.6-7.62-4.86,1.81.93,2.45,1.52,1.84.89.28.63,6.7,3.65,4,2.13L420,42.77l-2.44-1.21,1.23.92L423,45.21l3,1.84,3.05,1.81.32.63.28.29h0l.57.29.63.63v-.32l.61.64,1.23.89-1.52-.61,3.94,4,1.84,1.21-2.61-1,.16-.19-1.2-.6.6.6L436.15,58l-1.53-1.21.32.61-2.13-.92-3.36-2.41L426.4,51.3h-.92l-1.17-.85.25.73.35.31.41.26-.12-.13.92.6-.8-.47.7.7,0,0,.07.06,7,4.86-.29-.61,1.53.93.6.92,3.05,1.2-1.53-.32,2.13,1.53-1.52-.6.6.92,1.24.92-.64.6.92,1.21,2.13.92.92,1.23-2.73-1.52,3.65,3.33,1.21.32.31,1.52h.93l.92,3,2.41,2.13.63.92,1.81,3h-2.73l4.26,3-.29,1.53-1.52-1.21v2.41l1.2.64H452L453.83,87l2.44-.32,4,2.73h.89l2.16,2.45.28.31,6.7,7.62-4.57,3.94-1.53-.6.64,4,2.73,2.13,6.7,8.22,2.76,5.81.28-1.24,1.24,2.45.6-.61v.32l3.65,5.46,1.53-2.73,4.89,4-.92-3.65,2.12-2.16-1.84-3.33.32-1.24-2.13-2.73-.32-1.53-.28-.6-.29-.28,0,0-.32-.28-.88-.64L482.77,112l-.31-.63-3-4.86-1.52-4.89-3.05-3-1.52-1.8-.61-1.85,2.45.32-4.26-6.73,1.53.32,4.85,4.89,6.41,4.25,3.31,3.62-.89-1.17-1.81-2.13-2.45-2.76,1.21,1.24-.89-1.53-.44-.32,0,0v0l-.12-.25-1.05-1.15-.19-.38-.29-.12-.5-.54-.13-.23-.13-.06-.76-.82,0-.07-.29-.57-.6-.32-.32-.6-.31-.16-.61-.76.32.32-2.44-2.76.31.6-3.36-3.33,0-.07L470.9,83l-.44-.22,0,0-.26-.25-.19-.42-.35-.19-.44-.47-.13-.26-.19-.09-.7-.76,0-.07,0,0-.25-.25.09.19-.41-.19-3.65-3.69-.07,0-.25-.25-5.17-4.89-.32-.29-3.33-2.76-5-4.25.42.32-.61-.64.8.64h-.19l.76.47.44.42,1.84,1.52-2.76-2.41-.57-.42-.44-.38.73.48-1.24-.89-2.41-2.16.88.92-.34-.19-.54-.41-.92-.92-.2-.1h0l-.09-.22-.61-.32-.31-.28h-.29l-.09-.16v0l-.29-.19-.22-.22-.29-.29,0,0-.32-.29-.6-.31-.6-.61-.95-.66.38.38-.13-.07,0,0-1-.76-.09-.1L440,56l-.38-.28-.13-.13-.6-.6,0,0-.61-.28-.6-.6-.6-.32-.92-.61-.61-.31-.6-.61-.6-.6-.64-.32-.28-.28-.48-.22-.16-.1-.6-.32-.6-.6-.92-.6-.29-.29v0h-.19l-.13-.29-1.2-.6-.32-.32-.6-.31-.32-.29-.57-.29-.64-.31-.32-.32-.5-.25-.1-.07-.6-.6-.6-.29-.32-.31-.61-.32L423,44l-1.15-.57-.06,0-.32-.32-.28-.31h-.32l-.28-.29h0l-.6-.32-.51-.25-.09,0,0,0-.26-.28h0l-.57-.29,0,0-.73-.44-.07,0-.09-.13h0l-.29-.13-.32-.16-.06-.06-.64-.38-.06,0-.16-.16-.6-.29-.13-.06-.12-.1-.45-.25,0,0-.19-.16-.6-.32-.29-.32-1.24-.6-.28-.28-1.21-.61,0,0-.64-.32-.25-.28-.6-.29.31.29-.47-.29H409l-.6-.32-.26-.28-.06,0-.32-.29-3.05-1.52-.28-.32-1.81-.92h0l-.1,0L399.77,31l.76.48L399,30.89l-1.3-.85-.13-.1-.48-.25h0l-1.43-.32,4.89,2.44,2.13.93-1.4-.29.42.29.12.06.07,0,.15.1.07,0,.57.38.6.28-.92-.28-.89-.64-.06,0-.57-.25-.26-.19L399,31.5l-.54-.51-1.3-.7-2.41-1.24h.15l-.06,0-.47-.19-.26-.06h.13l-2.86-1.24,3.33,1.24.61.28-1.53-.89,2.54,1.12-.38-.23,2.29.86-1.11-.54-2.42-1.21.32.29-1.24-.6-.79-.54-.09-.07h-.35l-.61-.31-.57-.29h0l0,0-.51-.25.44.19-.19-.23h-.31l-.1-.06L390,26h-.48v-.23l-.16-.06h-.16l-.12-.13-.48-.19-.25-.25-.07,0h-.6l-.19-.19-1.94-.73-.28-.32h0l-.61-.29h-.31l-.29-.31-.64-.32h-.28l-.6-.29h-.32l-.32-.31-.6-.29h-.16l.28.1.2.19-.67-.29h-.26l-.19-.19.45.19h.19l-.7-.25-.06-.07h-.29l-.09-.09,0,0-.19-.19-.6-.29h-.32l-.44-.16-.16-.16H378l-.35-.12,0,0-.07,0-1.11-.41-.32.32-1.2-.64-1.53-.28-1.84-1.24-2.44-.89-.57-.32.89.32h.12L367,16.58l-.31-.1-1.21-.5-2.13-.64Zm6.53,2.16.26.09-.1-.09Zm.26.09.22.2h.32Zm.54.2.44.15-.16-.15Zm.44.15.16.16.6.29h.26l-.57-.29Zm5.65,2.29-.32-.32h-.31l-.61-.28h-.06l1,.6Zm-1.3-.6-.54-.32-.92-.29h-.29l-.47-.16.16.16.6.29h.6l.64.32Zm-2.22-.77-.16-.15h-.29Zm-.45-.15-.57-.29.26.29Zm12.83,5.17,2.16,1-.07-.06-.6-.32-1.21-.6Zm4.25,1.9.1,0-.1-.07Zm1.11.48-.06-.1-.45-.15Zm9.9,6,.58.25-.26-.19,0,0-.09-.06h0l-.63-.32Zm8.64,3.55h.16l-1.05-.54ZM440,56l.67.45-.26-.26Zm3.46,2.64.51.41-.23-.41Zm9.74,7.9,1.69,1.52h-.16l.47.26-.25-.26H455l-2.41-2.12ZM426,52.45l-1.11-1-.32-.19,0-.12L424,50.7l.25-.29-3-2.15L424,51Zm3.43-3-.32-.31-3.05-2.13ZM370,21.44h-.32l2.45,1.23Zm-6.09-4.86-1.85-.92-.28.32Zm-87.17.6-1.52.32-1.52.29L275,19l-3.05-.92-1.24.29,1.52.63-2.12-.31-3.05.6,1.84.32-.92.28,2.13-.28-1.81.92,3.65-.32-3.65.6,1.2.32,4.26-.92-2.73.92-.32.29,2.16-.61,1.2.32-1.2.29h1.81l.6-.61,2.45-.92-1.53.92H278l-2.76.61-2.41.31L275,23.28l-2.77-1.21h-2.12l2.44,2.13-1.52.28,3-.28-1.52.6.6.6-2.44-.92-1.52.32L268.27,26l1.52-.29.29.29.92-.89-.32,2.12,2.44-.92-2.44,1.53-3.33-1.21,1.2,1.52-3.65.89.92.64.61-.92.6.92.32-.64.6.64.32-.64,1.2.92,1.21-.92,1.24.64v-.64l1.2.64-.6-.92,1.84,1.52,1.21-.32,1.84-.28.29-1.24-2.13-.29h-1.84l-.29-1.23,2.13.6,1.2.32.64-1.53h2.13l-.92-.31,1.52-.29-1.52-.32,1.84-.28-4-.92h4l-3.37-.32,4.26-.6-1.21-.61,2.44.29.61-.89h.31l-.92-.63,1.21.31,2.44-2.12-3.65.6,2.13-.6-2.13-.32H285l1.81-.92.31-.6L285,17.18l-2.76.61.92-.61Zm89,.32,2.76.89.6.63Zm1.84,0,3,.89,1.21.63Zm-178.9.89-2.44.63h.32l.92.61,1.81-1.24Zm183.47,1.24,1.2.6h-.6Zm-106.37.28-2.12.92.89.32-2.42.29,1.21.92-1.52-.61-.32.61,1.84.31-1.21.92,3.94.29-3.65.32,2.13.92h-1.53l.64.6,2.41.29v-.89l.63.89L268,24.2l.32.92L271,23.88l-.61-.6h-1.52l.29-1.53-.61.61Zm-12.18,2.76L253,23.88h1.21l-1.84.92h1.52l2.16.92.6.29.29-1.53V24.2ZM373.08,23l1.52.92-1.84-.6,3.05,1.2Zm-.32.32,1.52.92h.32Zm-124.62,0-3,.6h3.65Zm88.05.31,1.24.89.6-.6Zm-77.38.61-.6,1.52,1.2.6h.32l1.52-1.2Zm-14.92.28-.92.92,1.81.32,1.84-.92Zm-6.73.32-1.52.6-5.46,1.53,2.41-.29v.89L237.16,26l-.89.92,4.26-1.53-.92-.6Zm-76.46.92-1,.38.32-.16Zm226.72,0,.92.29.29.31ZM337.11,26h1.24v.6Zm53.17,0,.25.09-.09-.09Zm-204,.31-2.13.92.61-.31.6-.29h-1.81l-1.52.29-4.89,1.23-.6-.92-2.73.92-2.45,2.42-2.44.92.32,1.24-2,.82,1.33-1.14-3.33,2.44-.92-1.24,2.12-1.2h-4.25l-1.84,1.84-.29-.32-2.44,1.52-.32,1.85,1.24-.32-1.24.6,2.45-.6-.32.92-1.52.28-2.13,1.53-1.52.63-.29-.63-2.44.63.6-.92-7.62,3-1.84,1.21.64.31-1.24.29-.07.35-1.46.28-.6.61,1.52-.32.51-.51-.19.83h-.92l-2.76,1.81,1.84.31-4,3.05-2.12.92,2.44-.32-.6.61-1.53,2.16,3.05-1.85-1.84,1.53,2.44-.32-3,1.24-3.37,2.44-5.49,1.53h-.89l-1.84,1.52-.32-1.24L118,61.05l1.2-.29-.28.29,1.52-.89-.63.89L122,59.84l-.93.92,2.32-.28-.79.57,11-3.65,2.44-.29,3.37-1.24V55l1.52-1.2,10.35-3.37,1.84.32-2.13.6-.31,1.53,2.73-.61-1.81.92,1.52-.6-.92.89,2.13-.29-1.21.29.29.64h-.29l-1.24,1.2,1.24.32-.92,1.52,3.36.89-.31,1.84.92-.32,1.2-.6-1.2.64,1.52-.32v.92l-1.52.6,1.2-1.2-2.12.89-.32,5.49,1.52-.29.92-2.44v1.2l1.24-.92-1.84,2.16.6.89L161,62.89l-2.73,3.36.32.92,1.81-.92-2.13,1.21.92,1.21h-1.23l.31,1.23-.6-1.23v1.52l-1.52.32.28,4-3,1.53,3.68-.92-.64,1.2-3.33,3,3-1.52L158.25,76l-3,2.73.6.6-2.13.64-.28,1.42.6.39-1.84.6-.32,2.44,3-1.81-1.37,1.37-.44-.16-.32,3.36-2.12,1.21,1.2-.6-.6,1.2,3-1.2-4,2.44-.6,1.52,1.52-.63-2.13.92,1.53.32-2.13.28,2.44.32-2.16.32,2.45.89-.92.31.32.61,2.12-.61-2.44.92.63.93,1.21-.93-.92.93.92.28,2.13-1.81-2.13,2.13,2.13-.32-2.45,1.52.64,1.24,1.2-.63.61-.61v.61l-.29,1.24-1.52.28h2.41l-1.81,2.45.92,1.23-3.36,5.46,1.2-2.73-2.73,2.13,2.73-2.73-3.93-1.84-2.16,5.49h.92l-2.45,2.73-9.14,12.82-1.81,5.78-3,4L129,142.11v4.26h2.16l-.32,2.76-.6-1.84L129,150.05l1.52,9.74-1.2,2.45,1.84.89,3.93,2.44,2.16,4,.6,15.55V186l4,6.73-1.52,2.41.89,1.53-3.65-1.21,3.65,5.49L143,200l2.44,4.57-1.24,5.78,5.81,6.73.61,3.33,2.44-1.21-.6-4-3-1.84-.64-10.35-3-6.41.31-3.05-4-7.9,1.24-8.54,5.17,3.65.28,5.81.32,4.85,2.45,5.18,2.12.63-.6,2.73,4.25,5.17L155.52,208l4.57,3.33v1.84l6.38,9.14,1.85,7-1.85,3,.92,1.21-1.84.6.64,1.84,7,8.83,6.41,2.44,3.34,3.65,4.57,2.13v-2.13l.31-.6-.28.6V253l14.31,7,10.35-1.81L225,269.49l13.11,4.26-1.2-.61,6.09-.6.29,2.44h-1.81l9.42,9.14-1.52.61,1.52.6-.28,3.65v.6l2.73,1.53,1.24-1.21-.92-.92-1.24-1.21,2.44,1.21.32.32,5.17,4.57.32,2.73,1.21.32-.32-1.84,2.16,3.65.89-1.53,4.57.64.92,2.41,2.44-.89.6,3.33,2.13-.28,2.16-1.24-2.16-3.33,2.16-1.53,4.25-2.44L285,297.2l1.52-.28L285,299l5.17,6.7-.92,11,2.44,1.53-.6,1.2L288.07,324l-3.68,1.24v3.05l-2.41.6.6,2.73-5.17,1.24h-.32l.32,1.81.29,1.24-.29.28L275,338.34l1.2,1.52-3.05,1.53v6.09l3.05,1.84,1.24-1.52.6-.92.92,1.84-1.52,3.33v.32l-6.09,4,2.12,6.38-1.52,1.52,5.49,3.36,4.86,6.42,3.65,7.9,2.44,5.81,6.7,8.82-.89,2.45,2.13,3,3.33,3,16.47,7.3L321,417l.63,6.41-.31,5.78-3,8.22v7l-5.78,13.1.6,3.37-.31.28-1.81,2.45-.64,10.06L303,484.92l-2.12.92,1.2,6.09-3.33,4.57L300,498l-.92.6,3-.92,1.24.32,1.21-.61L302.07,499l1.84.6-.6.92-1.24-.32.92.61-.92-.29-1.52,2.73,1.24.92-2.16.92,2.44.92-1.81.89-1.84.92,2.45.32-2.45.29-.32.92,1.53-.61-2.13,2.45-.6-.92h-1.53l.93-.92-1.24.6-.89-.6-1.24.31,1.84.29-1.24.92v.92h2.16l.61.92-1.85.6h1.85l-2.77.61,3.37-.32,1.2.92h-1.2l.6.63-4-.63,2.45.92-1.81.6,1.2.32-1.52,1.52,1.21-.6,1.24,1.21h-2.13l.6.6.6.6h-2.72l2.12.32-.32.92L296,520l.6.6-2.73.61,1.52.31-.92.92,1.53.93v-.93l.6.93-.28-.93,2.12.29-2.44-.6,1.52-.61-.6.61,1.84.6-1.84,1.52h4l.28.92-2.12.92.6-.6-1.81.29,3.05.92,1.81-2.13,5.2-1.2h2.41l-1.2-1.24h-1.84l1.84-.29-.92-.92,3.65-2.13-.29-.31-.32-.61.61.61.31.31,1.21-.31,1.84-2.13,6.7-3,.6-1.84-3.05-.28L317.31,509l3.05-2.13,4.88-.92,1.81-3.33,4-2.13-2.13-.63,2.13-.61.6.92,2.13-.92v-1.52L331,499l-1.84-.92,1.24-3.65,4,.89,5.18-.89,1.81-4.89.92.32-.6-1.84,4,.31,4.26-.92,5.49-1.24,3.65-1.52,4.57-4.25.32-1.53-1.85-.92,1.53-2.44-4.26-2.13,1.85-4.57-.64,2.76,1.52,1.53,5.5.89,7.61-1.53,7.34-6.09,2.73-4.57,5.77-5.46-.28-.92,2.12,1.2-7.3,6.7,5.78-4.25,3.65-4.26,2.44-2.76,4.26-3.33,2.76-5.21-.32-3,2.45-3.05-1.24-.6,1.84.31,3.36-3.65,5.18-3.65,3.33-.63,4.57-4.25,3.05.31,2.16-2.15-.32,1.23,3.65-.6.6-1.84,4-2.73.32-1.84,5.49-7.3v0l.92-1.21,1.52-5.17,2.73-3.37,4.89-21,.89-1.24.32,1.84,1.84-1.84,8.22-13.08,4.85-8.25.93-5.78-.93-7-.88-1.52-5.21.6-4.57-4.86-5.17-3-8.23,1.52L440.11,335l-5.49,5.49.32-3.37,1.81-1.52-2.73.92,2.13-2.13-1.21-2.76-1.84,2.13-.29-2.13-.63.92.32-1.2-.92.88-1.21-1.52-.6,1.24-.32-1.84-.6.92-3.65-1.84-.32,1.23-2.73-.31-1.84,4h1.84l-1.52,1.21-.93-1.52-3.36,5.2.6-3.36-4.57,1.84,6.41-3.05,2.13-5.81h-8.22l-1.84,4.57V331L409,333.48l-.32-2.44-1.52,2.44,1.52-4.28,5.81-6.7h-.92l.92-2.44-3.68-1.53-2.41-9.74-.92-.61-.61,1.85-2.76-4-8.22-3.37-12.79,1.53-5.49-4.57-1.21,2.44.6-4.57-2.76-2.73L370,292.66v0l-.92-.6-3.05.32v-4l-3.65-1.84-3.05.63-.92-.92-1.8-1.52,4.57-2.13-10.67,1.21,2.73.6-6.41,2.44-5.46-2.44-8.54,1.24-1.52-3.37-5.49-1.2-2.13-3.37-.92,2.73,2.13-.28v1.2l-1.53-.6-6.7,4,2.13,3.65.6,1.52v1.84l-3,1.53-2.13-3.69.6-.88,1.84-3.37-1.84-4.25,4-2.45-2.73-1.84-7.33,5.81h-3.94l-.63,1.52-2.73-.31-1.84,1.52-2.13,3.05.32.6.28,2.76L292,296l.64,3-5.21-5.49-5.17-2.13-3-.31-1.81.92-5.21,3.05-3.65-1.81.32,1.2-2.13-.32-3.36-4.85-4.25-6.41,3.33-14.32-.6-4.57-7.62-3.65-14.32,1.21-3.65-1.21,3.65-4.89.61-6.7h-1.21l1.52-2.44.89,3.37,2.16-6.7-1.52-.32,4.57-7.9-5.81-1.53-9.75,2.42-2.12,7.93L225,247.84l-3.33-1.2-9.46,2.44-3.05-3.36-3-.29-6.38-16.15-.32-2.77,1.21-8.82.63-3.36,1.81-.89-.92,2.12,2.16-4.57L204,204.9h-1.21l1.53-.32,1.2-3.65,3.37-1.21-.92-1.23,2.73.6-.92.63,4.89-2.44.92-3.05,1.81.92-1.21.89,4-1.2,6.09.92,2.13-1.24L232,198.2l1.84-1.24,1.21.92-.29-1.84,1.81.32,1.24,2.73,1.81-1.21L236.88,196l2.12-1.52-1.84-.29-.28-.31h-.51l-2.26-.92h9.46l.61-2.13.92,1.84-1.21.6,4.25-1.52-.6.92,4-.32-1.24.32,3.65.29.64,1.52.28,1.52,3.37-1.52,1.52-.6,1.27.63.86.57,4.25,4.89-.89,4.57,1.81-.32-1.21,2.16,1.21,2.41,1.52-.28,1.24,5.17,3,1.53-.32,2.12,2.13-.28V218l2.44-8.51-4.89-14.63-1.81-5.49,4-4.58-.63-1.2.92.89,2.44-2.13,4.89-4.57,9.43-5.17-2.73-.61,2.12-.92-2.12-1.2,3.33.89,1.52-1.53-.6-1.52-.6,1.52V167.7l-2.73.32,1.81-1.85,1.84,1.24-.92-3,1.84,4.25-1.84-5.18-4-1.2,2.13.6L289,161l1.24,1.24.6-1.52.32-1.24-4.28-2.13.31-1.21,3.65,2.73-1.52-5.49,2.73-1.2-1.52,3,2.76,3.65-.92,4,3-5.81-2.12-5.46,2.73,3.05,2.44-3.36-.92-3.37,2.45-2.12,7.3-1.53v-2.13l.92,1.53,4.28-.92-.63-1.53-.61,1.24-3-2.76,2.12-5.49,1.53-.29-.29-1.23,2.13.31.92-3v1.52l1.81-1.21.92,1.21,3.36-2.44-1.24-1.53,2.45.64,6.41-3.68-1.52,2.15,4.85-.31-1.81,1.52-1.52-1.21-4.57,3.65.29,3,2.76,1.21,2.73-4.89,2.12.32-.28-1.21,7.3-2.13.92-.63-3.65-2.13-4.29.92-5.17-2.12-.92-2.77h-1.81l1.21-3-2.73.92-.61-1.21h-3l4.85-.32,2.45-1.81-1.53-2.76h-4.89l-5.77,2.45-8.22,7.62,3.33-4-.6-1.81,7.33-4.57,1.52-2.45.61-1.23,18.88-1.21h.32l1.81-4,4.57-1.2,2.44-2.77-2.12-1.2h1.81L342.61,97l2.12-.28-1.52-.64.32-2.13-2.45-1.2-1.84,1.52L339,92.15l-3-.63-4,2.76,3.37-2.76-2.77.92L337.43,90,335,89.71l.32-.6-2.45.6-.6-1.24-.64.64.32-.92L330.73,90l.61-1.53-1.24.32v-.92l-.29.32-1.52,1.2V86.66l-.6.92-.32-1.23h-3.05l.61-1.21-1.53.29.92-.29-1.84-.6,1.24-.32-2.44-.6,2.44.28V82.41l-3.36-1.24,1.52-.6-2.45-.92.32-.92-1.84.92,1.24-1.81-2.13.89,1.21-1.53L317,76l-2.16.32,1.53-.64-3.94-2.41.29-.92L311.53,72l-.92,2.13,1.52,1.24-1.52.28,1.21.64-1.53.88.92,1.85-1.52-1.85-2.44,3L306,78.44l-1.21,1.81V77.84h-4.57l.89-.92.92.92.32-1.84h-1.24l-.6-2.13h-2.73l3.05-.32-.61-3-.63.92-4.26-1.21V68.7l-1.84.28-3.65-2.73-1.52,1.21-6.7-1.21-1.52.92L282,69.3l-1.52,2.44H282l.89,2.42-3.05,4.57,4,2.16,1.84,5.77-2.76,3.65-5.78,2.45,2.13,1.52,1.84,7.3-1.84,1.53.6,2.44-1.2-1.84-1.53,1.84h-.6l-1.84-.6v-1.53l-4.86-4.57.29-7.93-7.91-.29L248.46,82.7,243,83.9l1.52-1.52-.6-4.57-2.44-.29-.61,1.21-1.23-2.13,2.12-4.89,4.57-3.65-.6-.6,4.57-1.81-1.21-.92,2.13.29,2.13-1.21-2.13-1.52-1.52.31.6-.63-3.33-.6.6-.92,5.78,2.76,1.84-2.13h4l3-2.76-7.33-2.45,2.13-.28,4.28,2.13,3.34-2.45-1.53-.92,5.49,1.24-2.44-2.45h2.44l.92,1.85,4.26-3.05-2.41-2.76,2.41-.61L272.2,48l1.24-.92-3.05-.92,1.21-.29-4.86-.63.89,3h-1.52L264,51.94l-2.12.6V47.65L260,46.73l-2.42,2.76-.92-3.36h1.81l-3.93-.92.88-.6-.88-.29h-4.89l-.32.29,4.29,1.52h-1.85l-.92,1.52,1.53-.6v1.21l-3.94,1.23-.63,2.45L246,51l2.12-2.45-1.84.92.92-.92L246,48h-2.45l.32,1.52h1.52l-.63,1.21-1.52-1.81-1.21,1.21-1.84-.32-3.94-.29L235.35,48h-2.76l-.28-2.44-5.5,1.2,1.85.64,3.65-.92-5.18,1.81.29,1.84-.61.92-.92-.61-.28,1.81-.92-2.12,1.52-.61-1.84-2.12-3.65.28-4.57-.92.6-.89,2.76-.31L218.88,44l-2.73-.31-2.44-2.13L212.5,40l-4.57.6,1.81-1.52.63-.61-.92.61-3,1.23.61-1.84.6-1.84-.6,1.24-1.21.28h.89v0h-.92l-5.46.6,3.33-1.24,1.24-.6-1.84.32-4.89.92-1.52-.32,1.52-.92-3.33.6-1.52,1.53-.92-3.66-.29-1.84v-.28l-4.29-3.05.32-.92,1.21-.6-.92-.32.92-.92-1.81.32,1.81-.61.6-.6-2.73.29Zm69.16,18.29.64-.61h1.21l-2.73-4.57L250,42.16l1.2.32-1.52,1.81h4.89Zm41.78,479.6-.35.1v.09Zm-.35.19-1.5.73,1.21.32Zm-.29,1.05,1.24.6-.32-.6,3.37-.92H297.5Zm.29-1.14,0-.1.92-1.2-.92.92v-.6h-2.13v1.52Zm-2.7-8.32-.64-1.2-1.2,1.2h1.84Zm-.92,0-.6,1.84-1.85-.31.92,1.52,1.81-1.52-1.2,1.52,1.52-.29Zm.28-5.17-2.41.92.89.29-.6-.29Zm6.73-4,.29-1.2-1.52.6ZM299,498.63h-1.21l-.6,1.52L296,502.88h1.52l1.84-.6.29-3.65ZM153.4,81.39h0v.1Zm0,0V80l-.89.88Zm-2.73-28.56-.32-1.53-2.13.32-4,2.45.64.28-3.05,1.24h3.65l.67-.51,1.46-.73v.92l2.44-.92ZM118,61.05l.92-.89-2.45.6.61.29.6.32Zm40.82-34.47v.06l-.32.13Zm99.95.06,2.73.6-.29-.6Zm132.68,0,.31.13-.12-.13ZM239,26.93l-1.84.31.92.61h-2.73l2.13.31-3.37.29h2.45l-3.65.6,1.2.92,2.77-.92L236,30h3.65l-5.18.61,1.53.92,5.49-.61,3,.32,2.13-1.84-.6-.32-1.24.64-.89-.32,1.21-2.13-2.45.61L242.37,30l-2.45-.6Zm25,0,.61.92.63-.61Zm-28.63.31-3,.92h1.52Zm22.25.61.61,1.84,2.73-.32-.29,3.05,2.41,1.2,1.84-.88.92,1.2H271l.32-.92,2.12.92,2.13-.6.92-.32h-.92l-.32-.28.32-.32.6-.61-.6-.31-1.84-.61-6.1.92-2.41-.6-.32.6L264,30.29l-1.52-.6,2.76.28-2.44-.6.6-.32-3.05.32.61-1.21Zm-2.16.6-.88.6-.92-.28h-.93V30l-1.2-1.2V30l-2.45.32h3.34l.31.29h-.6l-1.24.63.32.6,2.45.29,1.52-.89Zm84.44.32v.6l2.41-.32Zm3,.28-.54.54-.38.1,1.81.6,2.76.29-3-1.08.89-.13Zm-119.47.64-.89,1.2-8.25,3.37,1.24.28L214.94,37l3.94-.32,1.84-1.21.67-.31L230.46,33l-.28-1.81-2.45.29-.31-.61-.29-1.2Zm175.37.92.48.28h.22l-.07,0Zm-140.33.28-3.33,1.21,3.65.92Zm-110.3.92-.6.29-.16.16Zm-.76.45-.29.16h.13Zm-.29.16h-.47l-.29.32-1.24.6-.19.19,1.11-.51ZM145,33.53l-1.61.73-.29.28h.29l.28-.28,1.24-.64Zm-1.9,1h-.35l-.29.32-1.23.6-.29.32-.6.29-.32.32,2.73-1.53ZM140,36.39l-1.21.6-.19.19Zm-1.4.79-.22.13h.1Zm-.22.13h-.06l-.45.28Zm-.06,0,.47-.32-.57.32Zm-.1,0h-.35l-.31.28-1.21.6-.32.32ZM136,38.51l-.6.32-.1.09Zm-.7.41-1.42.8,1.2-.6Zm95.77-5.3-7,1.24-2.76,1.53,1.53.28-1.53.64,4.29.28-5.21.6-.28.93,5.17.6,2.13,1.52-8.54-.6-.6,1.84,3,1.52-.6,1.53h6.7L232.59,44l1.24,1.81,5.49.32V44.61l-2.16.92L237.8,44l1.2.61,2.45-.92.28.92.32-.92.32-.61-3.68-2.44,2.44-4.57-.92-1.21h-2.13l-2.73,4,.29-3.68h-1.21v1.24l-.6-.32-1.24.6-1.21-.28,2.13-.93L232,34.54l-3.05.92Zm116.42,0,.29,1.84,1.84-.92Zm-180.41.07v.57l-.29-.32Zm74,.25-.92.6,1.52,1.24,1.84-1.24Zm-87.13.6-1.84.92-1.84,1.85,1.52-.32Zm94.46,0-.32.92-1.2-.31,1.52.63.29.29-.61.32-.6.6-2.13-.92-1.23.92,2.12,2.73.64.63h1.52l.32-.63h1.81l1.81-2.41-2.13-.64,3-1.81-4-.32Zm7.3,0-2.12,4.89,2.73-1.24-.61-.6h2.73l3.68-2.44Zm11.27.92-4,1.21L260.65,41l4.25.92,3.05-.32-1.21-1.84V38.19l2.42-2.41Zm-.29,4.26,2.13.92-.6,1.84-.32-.6h-7l.92,1.52,1.2.89,2.45-.89.92,1.52h.31l6.1.29-.64-.29L271,44l1.52.92,1.84.89-.92-.89-.32-.31,2.45.31h.32l1.81.29-.29-.29-.92-.92.92-.92,1.81,1.84.6.61.92-.61-.28.89h1.81l.92.92-1.53,1.53,1.84-.92,2.42,1.52.92-.6,3.65,4L289,53.43l1.84.32H289l-2.41,1.52L289,57.4l-4.57.6-3.33-.6-.92,3.05h7.3l-.6-1.53,2.44,1.84.32-1.24L291.41,62l3.36.6-1.84.64,1.24.89,13.08,3L299.34,62l3.05,1.24L301.47,62l7.3,3-2.13-3.65,2.45,1.84-1.21-2.45-2.44-.6,1.2-.64-1.81-1.2-.92.92L302.68,58l.31.92-2.12-2.73-1.53.92-.92-1.84h2.45l-2.13-1.84h2.13L302.68,55l.92-.88-.29,1.2,2.13-1.2-1.24,1.8L309.09,58l-1.53-3,2.13.92-1.21-1.52,2.13.32-2.44-.92h2.76l-1.84-.92,1.52-.29-1.84-.92-.6,1.21-.61-.92-1.52.63.6-1.52-.92,1.2.32-.92-1.84.92.92-.92H303.6l1.52-.28-1.52-1.24-1,.51-.22.41-1.24-1.21V50.7l-.28-1.21-.61.61-.31-.92-.61.6-.6-.92h-1.52l1.81-.29-4.86-.92h2.73l-1.21-.92-1.24.61,1.53-.89-1.81-.32,3.93.32-.88-.64h-4.89l4.57-.6-.32-.6-.28-.32-1.53-.6-1.24.92.64-.61-2.45.61,2.73-1.53-2.12-.6-1.53.92.61-.92-1.81,2.13.28-1.21-1.2.29,1.52-1.81-2.76,1.2,1.84-1.52-2.44-.92-1.53,1.52V40.35l-1.81,1.53.29-1.24h-1.21l1.53-.92-3.05.32,1.52-1.53-3.36-.6-1.52.92,2.44.6h-2.57l-1.68-.92-.32.32L274.36,40l.89-1.85-1.81-2.41-4.57.89,1.52.64H268l2.13.6-2.45-.32,1.84,2.13-1.52-.6Zm35.87,10.57.38-.8-.6.89Zm-28.25-4.48,1.53.32.88-.6h-.88Zm.29-10,.92,1.81.92.6,4.86-.6-2.13-1.52-3.65-.29Zm134.71.29,1.2.6,2.76,1.52-1.52-.6ZM186.88,38.83l-1.81.92v0Zm225.81,0,.32.29.89.31-.89-.6Zm-218.16.6-3.65,2.73,3.34,1.53-1.21,3-.29.19,0,.13-1.78,1.27,2.42,3.3-.92,1.52.6-1.52-2.44-3,.34-.25,0-.06,1.84-1.34.89-3.23-2.73-.29V41.56Zm219.68,0,.61.92,2.12.89ZM184.76,40l-2.45,1.23v0ZM150,40.35l-2.41,1.81V43.4h0l-1.49.89,3.27-.6h.06l-.1,0-1.14.57h-2.41l1.49-1.21.32-.92v.1l0-.1v-.28Zm223.36,0,1.53,1.21-1.84.6,2.12,1.24-2.73-1.24,1.21,1.53-1.52-.29-.92-.32,3,2.45-3.65-1.84-3.33-.29,3.05,1.21L367.9,44,370,45.21h-1.52l1.52.6-.92.32,3.36-.92v.92H374l-2.13,1.21,4.86.31.6,2.13,1.52-1.21,1.84.29,2.45.32.28-1.84V45.53L381.9,43.4l-.89-.32.29-.31L375.81,41l-.61-.61.32.61Zm-56.08,1.81-2.13.32.32.29.89,1.23,2.16-.31v.92l2.12-1.21-2.12-.92Zm-165.18,0-.89.58-1.72.85,1.72-1.14Zm28.66.29-.6.32v0Zm32,0-.28.32-.92.6.28-.32Zm201.75.29L417,44.29l1.53,1.52-2.45-1.52.32-.29-1.84-.92Zm3.94.31,2.16,1.53,2.12,1.2ZM177.74,44.29v0l-.6.29Zm68.88,0-3.05,2.44,3.65,1.53,2.77-.92Zm-107.57.32-1.81,1.84,1.21-.32L140,44.92Zm69.77.92h0l-.32.6Zm-33.2.28v0l-1.81.89ZM207,47.65h.32l.6.61-2.45.63-.28.29,1.84.6,2.41-.6-2.73,2.44L204,50.7l-.92,1.52h0l-1.21.32-3,.6,3.3-1.8-4.19,1.2-1.53-1.24,3.94-1.2-.6-.61,2.73.29-2.13-1.21-3.33.61h0l.92-1.21h0Zm-35.65.92-.6.32v0Zm110.3.92-.31,2.73,3-.31.32-1.53V50.1Zm3.65.61,2.45.6-.92-.6Zm-69.76.6h.92l-1.21,1.21Zm-3.65,1.84,2.76,1.81-.92.6Zm5.8,0,1.53,2.73-1.24.92Zm-52.75.6-.6.32v0Zm78.66,0,.28.93-1.52.28Zm170.6.61-.92,1.2,3,2.16-.6.29,3,1.84.92,1.52.93-.6,4.85,4.25-1.81-1.84-.92-1.2,1.53.6-.61.32,3.94,3,1.24.61-.92-.61.6-1.52,1.52,1.81,1.84.92-.31-.6L434,68.06l.92.32-.32,1.21.92,1.84.32-.92,1.21.92,1.52,3,3.37.29L441,73l1.81,2.13L442,76l3,4.57.89-2.13-1.52-1.52,1.52-2.45-.6-2.12-.92-.92-.89.6v-.6l-3.05-3.37-1.84-.92-.32.92-2.41-1.81-.32-.31h-.31l-.61.31.32-.92-1.52-.92-2.13-.6-5.81-3.05-1.81.29.29-1.21-.92.32-.29-1.24-3.65-3.05-.92,1.85Zm15.56,0,.28.6,1.53.92h.31Zm-230.09.6h0l-.32.64Zm34.78,0h3.34l2.73.32-3,.6Zm-72,.6v0l-1.21.6Zm1.87.32-2.16,1.84.92-1.24Zm34.09.32-.29.6h0Zm68.88,0,.6.89h.32l1.52.31Zm145.34.28,1.84,1.85.89.6-.6-.92Zm-147.79.32-1.84,5.18-2.12,1.52,3-.32.92,1.84,4.89-3,.89,1.52,3.36.6,1.85-.92L274,61.37l-2.12.6.28-1.81L267,57.4l-.92.6Zm-104.52.29v0l-.6.28Zm54.56,0h2.76l-2.44.63Zm-1.2.31.92.93-2.45-.32Zm-75.61.32-1.37,1.08,1.69-.47Zm-1.37,1.08-.44.13h.29Zm63.87-.79.32,1.52h-.32l-1.21-1.2Zm18.88,0L221,59.24l-4.57-.92Zm72.85,0,3.33,2.44-3-.32Zm-133.5.32-.61.31v0ZM135.08,58,133,59.84l.6-1.2-1.21.6-.6,1.21.6-.29-1.52.89,3-.6.6-.93.32.64,1.52-1.24L136,58l-1.52.92Zm99.07.32h1.52l5.78.32-3,.92-2.73-.92h0Zm181.9.32,2.73,1.2-.92-.92ZM166.19,60.16l-2.45,2.73-1.52.6L165,61.37Zm36,.29,3,3,7-2.12,3,.6h-3l1.53.32h-2.45l1.84.28-2.76.32-8.22,3.36h-2.73l-4-2.15-4-.89h3.65l.31.89,2.73.92,2.13-1.53h2.16ZM212.21,62h-1.84l-1.2.6Zm26.51-1.52,1.84.31-.92.61Zm-124.65.6-1.3,1.05,1.3-.73Zm-1.3,1.05-.32.19h.1Zm-.32.19h-1.11l.6.28Zm308.18-1.24.88.92v-.6Zm-187.69.32-2.16,2.73-1.52-1.21Zm-40.88.92h0l-.32.6Zm256.47.47.12.07.26.19-.26-.13Zm-200.35.73,1.81.61-1.53.31Zm31,0,1.24.92.6-.92Zm-64.56.32-3.37,2.44v-.92Zm23.74,0v1.52l-1.81-.6Zm-5.78.29v1.84h-.31l-.93-.29,0,0,1.17-1.49Zm-4,.31,1.23.32-2.16.89Zm43.26.61-2.45.31-2.12,1.21.28.92Zm153.56,0v1.23l-.6-.92H424l1.52,1.21-1.2-.6,1.2,2.12.6-.28,1.53,1.52-1.81.89,2.13.92.92,1.52H431l1.21,2.77.92-1.24-.29,2.44.89-.32.64,1.53.6-.61.29,1.24.31-.92.92,1.21V73.87l-6.41-5.2-1.2-2.13Zm-236.15.31-.29.61h0Zm32,.29.29.92-2.73.92Zm-65.83.32-2.15,2.73,1.23-.89.61.89V66.86l.6,1.2.92-.92Zm2.42.31L154,70.51l2.13-.92,2.12-2.45Zm119.15.29-.92,2.13V69l1.53-1.2Zm-89.6.92h0l-.32.6Zm121.28.6,1.24.61.28-.61Zm-87.42.32L221,69.59l1.52-.29-2.13,1.52ZM186,69.3h0l-.32.6Zm39,.89-.6,2.16-.92-.92Zm8.23,0-2.45,1.52.6.64-1.2-.32-.29,1.84h0l-.89-.63h0l-.28-.29.6-.6,1.2-1.53h0Zm-78.94.63-2.73,3.05L153.68,72Zm.6,0-1.21,1.81.92.32,1.53-1.52Zm64.94,0V72h-1.52Zm-12.19.89,7,1.84-7.33-.31-4.86,1.84-.32-.92Zm83.48,0,.6,1.24-3.93-.6ZM153.37,73l-1.81,2.45.6.28-1.52.92.6,1.21L151,79.05l1.81-1.85-.92-.6h1.24ZM289.92,75.4v.28l2.44.92L289,76Zm-134.71.28-1.53.92.32.6-.32.32,1.21-.32Zm14.63.32-.29,2.44.29,0v0l3.36.61-3.36-.58-.89,3Zm50.59.92-1.84,2.41-1.52-.28,1.52-1.85Zm2.13,1.52-2.13,3.65-4.25,2.13,1.21-1.84-.61,1.24,1.81-.92V80.25Zm-11.27.29V80l-2.73.28Zm-63.7,1.52-2.45,4v3.65l.32-2.73,1.21-.6-.61-.92,4-2.77-3.36,1.85,1.84-1.53Zm318.11,0,3.36,3-1.84-2.13,5.49,4.89-.28-.32,1.52.92h-.32l.92.61,1.53,1.52,2.6,2.76.13.29L479,92l.63.64.07.16.06,0,0,0,.83.86.79.95-2.32-1.87-1.52-1.53v.61l-4.28-4.26-2.13-1.23-4-3.65Zm-235.2.32-.92,1.81-4,.92,2.44-.6Zm222.72.28.61.32-.61-.28ZM204,81.17l.89,1.53-3,2.73-.28-2.13.92,1.24L204,83.3Zm87.13,1.21-1.52.92,1.24.6h-3Zm165.15,1.24.6.28v0ZM152.16,85.14l-1.52,2.13.6-.61-.6,1.81Zm126.14.6-1.81,2.45,1.81-.61v.89l.32-.6v0Zm184.35,4,.64.29v0Zm-150.2.6,3.94,3.15.82.44,1.34-.54-.29-.32h1.81l-1.21-2.12,2.45,2.44h2.12l-2.76.92-1.81-.92-1.43,1.14v.16l1.43,1.14h-1.23l-.2-1.14-.09-.09.09-.07-.09-.54-.13-.06L317,94l-.63-.5-3-1.62L314,93Zm-75.57.61,2.15.31-3.36,1.21Zm-9.75.92.32,1.2.92,10.67-2.16,3.05,1.24-4.58-1.84.64.32-2.44-1.85.28-1.2-3.33,1.2-.6h.32l-1.84-1.24,1.52-1.81,2.45.89Zm77.1,0,.6.92L303,93h-.31Zm-82.91.31,0,.1.06-.1-.6,1.53H221l-.92.6.31.6,1.21,1.53-1.52-.61L218,94.88l1.81-.6Zm254.15.61,2.13,2.73,2.73,2.76-1.81-2.45ZM146.38,94l-.32,1.53,1.85-.29-2.45,1.53,1.81.28v4.89l2.76-.6-2.12,1.81,3.65,1.84-.32-6.42V97Zm89.29,0,1.52.92h-2.44Zm246.06,1,.06.06.06.19Zm-172,.25L309.4,97h-1.52Zm-92.36.6h1.55l.89.61h0l.89.6h0l-1.81,4.76-.06.13.63-4v-.6l-2.44-.6Zm266.43,1.31.83,1.14.88,1.2.32.29-.32-.6L484,97.33Zm-163.72.5,1.84,1.53-1.24-.29Zm-46.95.32-2.44.6,3.68,1.24Zm208.13.92.92,2.13,5.78,6.7-.92-2.13L483.38,101Zm4.57.92L487,101.3l1,1.11-1.3-1.75Zm2.22,2.64,1.43,1.93-.6-.92,1.52,1.81-.76-1.08Zm-142.07-2L343.21,104l.32,2.73.6,2.15-1.52.29,1.52,1.52-1.52-.28-1.85,2.73,3.05-.61-2.73,2.73,1.21,1.24,2.16-1.24,4.85.61,2.45-1.81-.32,1.81,4-1.21-2.73,3.37,2.12-.64,2.13-3.65,1.52,1.52-.28,2.77,1.2-1.85.61,2.13h1.52v-3.65l-.92-.92-.89.92v-2.44l-.63,2.76-1.81-1.24.6-.92-1.2-.29,2.12-1.52-3.05.92.61-3.68-2.73.32-.64-1.21-1.81,2.41v-2.12l-2.44.92.92-2.45-2.13.61v-.89l-.31.6-.92,1.81.31-1.81.61-4.29-1.53-.88,1.84-.32Zm-146.87.92.32.88-1.52.32Zm21.65,0,.26,1.81h0l.6,4.28-.63-4.28-1.78-.93Zm-51.51.6.6.28h1.21l.92.32-.92-.28h-1.21Zm135.31.28h1.2v1.24Zm6.7,0-.93,4.29-2.44-4Zm-132,1.24.63.29h1.52l.61.32-.64-.29h-1.52Zm118.87.92-4,5.18.6-3.65Zm190.73,0,1.84,3.65,1.21,1.21,1.84,1.24Zm-298.3.61.6.28h1.52l.89.32-.89-.29h-1.52Zm94.17.92,2.13.28-1.84.92Zm-80.78.6.6.29H207l.92.31-.92-.28h-2.45Zm37.8,0-.92,1.81h-2.12l-1.84-1.52,2.44,1.23Zm67.33,0,0,0,1.2,2.7.29.89v0l-1.21-.92-.92-.92Zm-18.25,1.21h.28l1.24.31-.92,1.21Zm-68,.31.6.29h3.36l.92.32-.92-.29h-3.36Zm28.06.29.92,1.24.28.28v0l-.82,1-1,1.14h0l-1.81-1.52,1.21-.92,1.2-1.21Zm33.48.32,0,0,.61,1.17v.32l-1.81.92v0l.57-1.21Zm199.59,0,.64,1.84,1.2.6-1.2-1.84Zm-251.67.31.92,2.73-2.45-.31,2.45.63-4.26.89,2.73-2.73h-1.81Zm91.41,0,8.22,2.42.32-.89-3.05-1.24Zm-68.56.61.92.28h20.41v0H256.08Zm51.2.28,2.12,1.84-1.81-.92L304.55,112Zm186.48,2.76,1.52,3.65-.92.32.92,2.41-1.24.32v4l1.24,3.65-.32,1.21.92,3.36-.92.6-.92-1.2-.89,2.44-2.76-2.16v.92l3.65,7.62.64,8.22,2.12,5.21,3.34,5.46v.31l.92,3.37.31,5.46-1.52,2.76,1.52,6.38-.6,2.76,2.13,7-.29,4,1.21,10.6,1.2,4.57V204l2.73,3.65.64,4.25,3,7,1.52,9.74-.92,5.49,3,3.05.6,2.44,1.84-1.84-1.52,2.16-.92-.63.92,4,.89-.6-.89,1.52,1.81-.31-.61,1.23,1.21.29v1.24l1.84-2.13L518.13,246h1.21l-.6,2.12.92,1.21v-1.21l.28,1.21.61-.92,1.23,3.68.92.6.89.61v1.52l.92.32.61,3.65.63-.61-.63,1.21,1.84,2.13.32,2.12,2.41,1.24,4.89,7,1.84.6,1.81-4.29,2.12-3.33h2.45l1.23-5.81.89-4.25,1.24-4.57-.32,1.52.61-.92.63,1.84V253h.29l-.29.63.29.61v1.2l.6,3v-2.44l.32,1.23-.32-1.84.32,1.24v-2.76l0,.06,0-.35v-2.44l-.32-.6v-2.45l-.29-.92V244.8l-.31-.61v-2.12l-.29-.61v-1.23l-.32-.61V237.5l-.31-.61v-1.23l-.29-.61v-1.2l-.32-.92v-1.24l-.28-.6v-1.21l-.32-.6v-1.53l-.32-.6v-.92l-.28-.32v-1.2l-.32-.64v-1.49l-.29-.64v-.6l-.31-.6v-.61l-.32-.63v-1.21l-.29-.6v-.6l-.31-.92v-.61l-.29-.63v-.6l-.32-.61v-.92l-.31-.6v-.6l-.29-.61v-.63l-.32-.89v-.64l-.6-1.2V207l-.32-.61v-.92l-.28-.6v-.6l-.61-1.24v-.61l-.31-.92v-.6l-.61-1.21v-.63l-.31-.6v-.92l-.61-1.21v-.6l-.6-1.24v-.6l-.32-.92-.28-.61v-.6l-.64-1.21V190l-.28-.6-.32-.92-.29-.61v-.6l-.63-1.21v-.63l-.89-1.81v-.92l-.92-1.84v-.61l-1.24-2.44v-.6l-.28-.92-.93-1.81v-.61l-1.52-3v-.64l-1.2-2.41-.32-.92-.61-1.24V165l-3.36-6.7v-.6l-5.78-11.59-.6-.6-.92-1.84-.32-.29-2.44-4.89-.6-.6-1.21-2.44-.32-.32-.6-1.21-.32-.31-.28-.29-.93-1.84-.6-.6v-.26l.6.86-.6-1v-.23l-.32-.31-.44-.61-.16-.31-.25-.26-1.59-2.19-.6-.28.31,1.2-2.12-1.81-1.24-1.23-2.73-5.18-2.44-2.73-2.73-4,.89,1.81ZM548.32,254l.29,3v.31l.15,1.56-.06-.13.19,2.54v-2.16l-.06-.16-.22-4.41Zm.38,4.73-.09-1.43v1.21Zm-47-68.11,0-.35v.92ZM235.07,112.85l2.12,2.76-2.44-1.24Zm15.52.63,5.81.89,1.52,3,3,.32h0l.92,5.77L274,125.67h0l2.73,3.34.92,1.23-.92,1.21h0l-.28.32-3.05-.64-2.35-2.63,1.46,2.63-1.84,5.21h0l-2.41,1.52L267,133.58l-3.94,1.23h0l2.16-2.44v-4l-5.17-2.12-2.13,4v-.06l0,.06v-1.49l-2.41,1.78-.61,7-1.52,4.57h0l-3,1.21h0l-.92-6.7,2.44-6.38-2.09.29h0l4-4.86.92,1.21,3.65-1.84,5.49.63-1.24-1.84-2.44-.28.31-1.24-7.9.92h0l-1.21-1.52-.25,0-1.88.28v0l-.31-1.81-6.38,2.45h-1.53l.61-1.53-4.26.61,10.64-6.42h0l.92.61,1.21-2.13-.61,1.81,1.21-.57Zm-45.39.29.6,1.52,1.24-.6-.32,1.52,3.05.61-4-.29-.6-2.16-2.73-.28Zm-10.06.32-.92,1.52v-1.24l-4.86,1.24-.32-1.24h.32Zm98.43.28,1.84,1.84-2.76-.92-1.21.61Zm-79.86,1.24-.29.6v.32l-.32.6.29-.6v-.32Zm74.08,3,.6,2.73-1.52-1.21Zm51.45.28-2.41,4.29,1.52,1.81,3.34-1.81.6-.32-.6-.6-1.21-.6-.92,2.44-1.21.29,1.81-2.73Zm-11.27.64-.6,1.81,5.17,2.12,2.45-1.8-6.1.28Zm-117.88.6-1.84,9.14-2.13-1.23,2.13-1.21Zm2.09.6-.28.61v.32l-.32.6.28-.6v-.32Zm93,1.21-14,9.46L289.31,133l.61,2.45-2.45,1.2h-9.74l2.12-2.12,6.7-.32.92-.89H285l6.09-1.84,5.49-4-7.62.32-4.57-3,4.57,2.73h7.62Zm-28.38,2.16h1l1.2.6-2.12-.31H275Zm-66.4,2.41v.64l-.32.6.29-.6v-.61ZM209,131.35l-.19.42v.6l-.32.6.29-.6v-.6Zm2.25.1,1.53,4-2.13-1.84Zm-45.7,4.89,1.2,3.33-.6-.6-.92,1.52Zm41.93,1.11-.19.41v.6l-.32.61.28-.61v-.6Zm73.22.09h0l-.92,2.13h0l-3.05,1.52L270.71,144,264.3,143l3.05-4,.92,1.2-2.13.64.32,1.2L271,140l5.49-.32-1.21-.28,1.49-.64Zm-74.75,6-.19.42v.6l-.32.6.29-.6V144Zm98.84,1.62-6.41,2.13,4.89-.6Zm-100.27,4.57-.28.61v.6l0,0v-.63Zm-37.45,3.37-1.84,2.73-3.05.92ZM203,155.83l-.29.6v.6l-.31.64.28-.64v-.6ZM152.48,157l-.29,1.53.89-.29.32,2.13-.61-1.84-2.76.31Zm49,5.81-.29.6v.61l-.32.6.29-.6v-.61Zm293.76,2.73.29,1.84.31-.92Zm.29,2.45.6,3.36.32-.92ZM200,169.86l-.28.89v.63l-.32.6.29-.6v-.63Zm292.24.6L491,172.27l1.23,1.24Zm1.53,1.52.28,1.21.61-.92Zm-281.55,2.45v.89l-1.84-.29Zm55.45,2.41.61,1.24-1.53.28Zm-69.19.32-.29.6V179l-.31.89.28-.89v-1.24ZM197,185.7l-.29.6v.6l-.32.92.29-.92v-.6ZM26.31,188.43l-.61.31-.31,1.53.63.28Zm501.25.92,1.24,2.44v.6l.28.61-.31-.61v-.6Zm-378.77.92-.88.92.6,1.2Zm9.5.6,1.2.92-1.2,1.21Zm40.18.92.6.29h3.68l.61.31-.61-.28h-3.68ZM26.31,193,26,195.12l.6-.28Zm195.93.31.61.29h6.09l.6.32-.6-.29h-6.09Zm-26.82.32-.28.6v1.53l-.32.6.28-.6v-1.53ZM26,197l-1.84,5.78L26,201.53Zm167.88,6.1-.29.6v1.52l-.31.61.28-.61v-1.52Zm339.15,1.84.32.6.29.92-.32-.92Zm-259,2.73v2.44l-1.53-1.24Zm13.36,1.2,2.16,1.85-1.24,2.44.92.6.6-3Zm247.14.93.31.6V211l.29.61-.32-.61v-.63Zm-342.2,3.36-.29.6v1.53l-.32.6.29-.6v-1.53Zm98.74,2.13,2.73,2.44v1.81l.32-2.41Zm245,.31.32.61.28.92-.32-.92ZM285,216.77l-1.24,3,2.13,1.2.92-1.81Zm246.21.32h.32l.6,1.2v.61Zm6.07,3.33.63,1.24v.6l.29.6-.32-.6v-.6Zm-249.87.6-1.21.92,1.21,1.53.63-.92h-1.23Zm228,1.24,2.13,1.52,2.44,4ZM190.85,224.1l-.28.61v1.52l-.32.6.28-.6v-1.52Zm81.35,2.13-12.79,2.41-1.2,3.37-3,.6,4.25-.29,5.49-3.68,4,.32,1.21.6-2.45.6,1.53.93,7.93,1.52,5.78,1.24,2.76,3.93,4,.64.6,1.2-2.76,2.45,12.19-.32,4-1.81-7.3-1.84V236l-5.18-.6L278,227.75l-.92-.32Zm267,1.52.31.61v.6l.29.92-.32-.92v-.6Zm4.28,1.81.6,4.29-.31-1.53-.19-1.81ZM264,232.32v2.13l2.13-.32-.89-1.52Zm44.19,2.42-2.73,1.52h2.44Zm232.5.31.32.92v1.21l.28.6-.31-.6V236Zm-365.94.61h2.44l.6.92Zm14.6.6-.29.92v2.13l-.32.63.29-.63v-2.13Zm306.84.63.32,1.53.92-.32Zm44.15,2.77-.25.57-.32.31.32-.6ZM309.4,241.15l-2.76,1.52,3.37.92-.32,2.13,2.13,2.12-8.22-.28-1.21,1.2,2.73,1.85,8.22-1.24,3.05,2.76.92-1.84,2.12-2.13,9.15.6,1.23-1.84L324,244.8l1.84-1.21-2.45.29-1.2-1.81ZM179.3,243l2.95,1.74.41.07h-.32l-.09-.07-1.75-.22-.28,1.53Zm362.93.28.88,5.49-.15-.15,0,.19.12.28v.64l.13.92v0l.19.54V252l.32,2.19v.1l.28,2.06-.31-1.52-.86-.89.86.29-.32-.61v-1.84l-.16-1.08v-.06l-.13-.38h-.31l-.29.32.29-1.53-.61-.92-.6-2.12-.6.6.6-.92-.6-1.84,1.84,4.57.13.16Zm-200.23,4-7.33.6.32,1.85,5.49-.32Zm-50.59,1.84-6.7.29,2.73,2.44h3.68l3.65-.6Zm69.48,5.78-1.53,1.21.93,1.23,1.8-1.23Zm177.05,1.21v2.44l-.6-1.52v-.61l.31.92ZM219.23,257.3l3.05,2.73-3.37-.92Zm329.69,4.19.16,4.38v.32l0-.35-.16-.28.32,12.15V266.13l-.1-.16Zm.13,4.35,0,0-.19-2.57ZM248.18,277.11l.6,1.52-2.13-.92Zm2.12,1.81,4.57,5.2-4.28-1.52ZM8,279.55l-.28.61.6,1.2Zm357.12,2.13-3.05.92.93,1.81-2.13,1.52,4.25-.92Zm184.07.6-.19,2.19.19-.35Zm-.19,2.19-.13.26v1.2Zm-.13,1.46-.19,4.89.19-.6Zm-.19,4.89-.09.29v2.16Zm-.09,2.45-.13,2.19.13-.38Zm-.13,2.19-.19.54v2.73Zm-.19,3.27-.32.63v.29ZM359.08,287.46l1.52,4.89,2.13.28-11,4.29-3.37,1.52-3.36-1.24-3.33,1.53-5.18,7,1.53-4.57,3.33-2.73,3.65-1.24,3.36.92L360,293v-1.53Zm-1.21,9.74-.31,4.57-.92-3.93ZM548,300.57l-.19,1.9.19-.38Zm-.19,1.9-.1.22v.92Zm-.1,1.14-.12,1.5.12-.29Zm-.12,1.5-.19.34V307Zm-.19,1.87-.1.85.1-.25Zm-.1.85-.19.67v1.21l-.32.6v1.59l.32-1.87Zm-.51,4.07-.06.38.06-.13Zm-.06.38-.25.47v1Zm-.25,1.49-.13.79.13-.28Zm-.13.79-.16.32v.57Zm-.16.89-.22,1.4.22-.44Zm-.22,1.4-.1.16v.32Zm-153-9.59.28,1.84-2.13.61Zm22.82,18.89-3.05,1.24,1.52.92Zm-192.29,8.54-1.21.92,2.45,2.73-2.13,1.24,2.13.6,1.52-.92Zm130.74.6,9.75,4.57h0l7,7.62,7-.6-.93.92-4.85-.32-1.24.63-8.22,3.65-2.06-.92-.67-.31,2.09.92h0l4.54-1.81.63-1.84,3.65-.32-2.73-.6h0l-4.57-6.7-9.14-4.25-12.48.6,2.45-.92ZM403,336.81l-4.58,3.37-1.52,1.21-3.65.63-2.09,5.33-.07.13.92-5.78h2.13l-3.94-.31,2.42-.29-2.1-.92-4.89,3.36-3.36-.6h.06l3.3.29,3.05-3.05,4.86-.32,1.52.32h0l-.32,1.52,1.53-.31Zm8.53,0L410,339l.6,1.21-1.74-2.95-.07,0-.31,2.32-.92-2.13,1.23-.19v-.13l.07.1Zm-25.9.64,3.05.29.6,1.52Zm67.23,1.11-.19.41v5.18l-.32.92.29-.92V339Zm-71.19,4.35.25,0-3.52,3.56-.32.28Zm.31,0,.22,0h-.25Zm-35.36,2.76,4.57,4.86,5.81,2.16,2.64-1.88.38-.28-5.14,4h0l-.31-1.52h0l1.2-.6-4.57-1.84-1.52-.61-.6.92-2.16-3.65-3.33-.92-6.1.61-3.93,4.57h-5.21l-1.49,2.12,1.17.64-.92.54-1.17,1-.19-.22h0l-.39.22h0l-1.84-2.16-5.46-.28h0l-1.52-2.45-5.72,1.21h0l1.81-.89-1.17-.32,2.09.32,3-.63h0l1.52,2.44,5.78.32h0l1.94,2.22,1.36-.76.16-.13-.13.06.61-.47-1.21-.32h0l1.84-2.73,5.49-.32,3.65-4.25Zm-70.08,3.65.28,1.21.64-.61.6-.6h-1.52Zm168.19,19.2-.6.32h-.92l-.6.29.6-.32h.92ZM434,370.33h1.21v0H434l-.6.29Zm-7.62,1.24-.6.32H424v0h1.84Zm-13.11,1.81h1.84v0h-1.84l-.6.29Zm36.28,0v1.24l-.31.6.28-.6v-1.21Zm-45.93,1.33-.41.23h-1.81l-.41.19.41-.23h1.81Zm-12.88,1.43-.61.32h-2.44l-.6.28.6-.31h2.44Zm-15.56,1.53-.6.31h-3.05l-.6.29.6-.32h3.05Zm-24.06,1.8h4l0,0h-3.94l-.41.19Zm97.2,3.37-.29.6v.61l0,0v-.64Zm-79.23,3.65-.29.92v3l-.31.6.28-.6v-3Zm77.42,5.17v1.24l-.32.6.28-.6v-1.21Zm-1.24,6.73L445,399v.6l-.32.6.29-.6V399ZM367.59,403l-.29.61v1.84l-.32.6.29-.63v-1.81Zm-43.87.89,1.52.32h.32l4,3.36L328,409.06l-.6-1.84-1.24.6-3-1.52Zm120,1.24-.28.6v.61l-.22.41.19-.41v-.61ZM425.2,406.3l.92,2.44-.92.92H424l1.21-2.13-1.21.61Zm-89.89,8.53.6,4.26-1.53-1.81Zm30.75.92-.28.61v1.24l-.32.6.28-.64v-1.2Zm56.09.29-.29.92.89,1.24-1.81-1.52-1.24.88,1.53,2.45-1.21-.92-1.2.92,1.2-1.21L419.1,417Zm-57.61,10.38-.29.6v1.24l-.31.6.28-.63V427Zm43.61,2.13-.32,1.2-2.12-.89Zm-45.45,7.61h0v1.21l-.32.64.29-.64Zm-1.21,7.3-.28.64v1.21l-.32.6.28-.6V444.1ZM360,451.08l-.29.64v.6l-.32.6.29-.6v-.6Zm-1.53,7-.28.6v.64l-.26.66.23-.66v-.61H355.4l-.61.29.61-.32h2.73ZM338,459.94l-.6.32h-4.57v0h4.57Zm11,1.52-2.13,1.21-.92-.61Zm6.06,8.83h0v.6l0,0Zm-1.49,5.17v.92l-.22.41.19-.41v-.89ZM352,480.35h0v.6h0Zm-1.2,4.57-.29.92-.32.6.29-.6Zm-44.16,10.66,1.81.92-1.81.29Zm-4,.61.92.92-1.53.31Zm-7.94,14.31H296l-1.24.92Zm5.81.32h1.52L299.66,512Zm-1.84,4.57.92.92.32-.92.89,1.52-2.42-.31Zm87.73,2.13-2.73.31,2.13.92ZM297.22,519l3.65.32-3.05.28v.64Zm-6.42.32v.6l.92-.6Zm47.23,0-.92,1.2-2.44.61.64.63,1.52-.92H338l-.6-.6,3.33-.32v-.6l-1.52.6Zm-3,.28-1.84.32,1.23.6h-.31l-3.05.92,3.05-.31,3-1.53Zm-26.22,4.29-4.86.6-.31,1.21h3L304.2,527l1.46.31-1.14.61-2.73-.92,1.81.92-1.81.28h3.93v-.89l1.24.29-1.24.6h6.73l4.57-.92-6.41-1.21Zm-.89,4.25-4.28.6,1.23.64v-.32l1.4-.25-.19-.07Zm-1.65.67.32.13.09-.2Zm.32.13-.19.44,2.12.29Zm-4.76-.8v-.6l-3.05.6Zm-10.07-3.33,1.81.6,2.45.6Zm4.58,1.2-1.85.61,1.24.6,1.21-.6-.92.6,2.44-.6Zm7,0-1.24.93,1.53.28ZM300,527l-.32.28,1.84.32Zm26.5,11.87-1.52.31,3-.31Zm-2.73.31-6.41,1.21-2.13.32-5.78,1.52h-1.23l-.29.29-4.28.92-.92.6h-1.53l-.6.64-1.52-.32-.61.6,1.84-.28-1.84.6h.92l-4.89,1.2h.32l-1.52.32-.92-.6-3.05.28h-1.21v.32h-5.8l1.23.29,1.53.31h-2.16l3.36.32-3.65.29h4v.32h-7l-2.13.28h-1.84L264,548.31l-10.34-.61H253l-1.84-.32L247,547.1l-.06,0h-.32l-2.44-.29h-2.13l2.44.6,3.34.32-1.53-.32,3.37.61h.6l.92.32h2.45l.92.28h4.25l.32.32h6.09l.89.32h17.68l.6-.32h6.41l.32-.32h3.94l.31-.28h2.13l4.89-.93h1.21l2.76-1.2.6-.32,1.81-.32,3.36-1.2-1.52.32.6-1.24,3.37-1.21,5.49-2.13,1.21-.19-1.21.48.29.32,2.12-.61-.73-.25,2.26-.38Zm-26.22,9.15H299L300,548h-.61ZM249.67,548l-2.67-.16.54.16Zm-2.67-.16-.38-.13h-1.21l-.79-.16.48.16Zm-2.38-.29-.44-.16h-.29Zm-.73-.16-2.28-.25.76.25Zm-2.28-.25-.16-.06h-.32Zm68.4-5.84-2.45.6,2.73-.28ZM299,544l-3.34,1.24,1.81-.32Zm-71.9.92.89.32h.64l.88.28h.92l.92.32h1.53l-3.65-.6-1.53-.32Zm5.78.92.92.32h.92l.89.28h1.24Zm4,.6.5.07-.22-.07Zm.5.07.7.25h.32l1,.13.54.16h.92l-1.81-.29H239l-.16,0-1.33-.29.41.16Zm75.36-.07-.61.32h.32Zm-2.13.32-.7.22,1.3-.22Zm-.7.22-.41.07h.19Zm-.41.07h-1.62l-.92.31h-1.52l-.86.29,3-.29Zm-6.82.63-.77.26,2.45-.26Zm-.77.26-.44,0h.32Z" transform="translate(0 0)"/>
    <g id="g5411">
      <path id="path7634" class="cls-3" d="M300.55,13.82l-5.18.92,2.13.92-3.65-.32.32.64h2.73l1.2.6-3.93-.32,3.33.6H296l-.61-.28h-1.84l2.92.57,1.05.64L292,17.18l3.05,1.21-2.73-.29v.61l-1.84-1.21-2.13.89,3.05.92-2.73-.6h-1.24l1.24,1.52-1.53-.32.92.92-1.23-.6-1.53,1.52.61.32,2.44-.32-.29,2.13-2.76.32-3,1.81,4.28,1.23,3.05-.31.28.6h-3l3,.32-5.17.31,4,.61-1.53.6,1.53.6,2.44.32-.92-.6,2.13.28,1.52-.92,3,.32,1.52.6,6.7,2.45-.6,1.2,1.2-.6,2.76,2.76,3,.89-1.84.32h1.52v1.2l.61-.88-.89,1.52,3.05.29L312.74,37l1.52,1.52,2.13-.32-1.21.93,2.13-.29-.92.89,1.24-.6-.61.6h.61L321,41.24l-4.26-.6-2.12.6,4.57,1.24,3.05-.6v.28l.6,2.13,1.84-.29v.92l-1.84-.63,2.13,1.52h-.29v1.24l2.13.29h-2.13L324,48l3-.32-4.85,1.84,4-.31-3.36.92,3.36.6-1.84.6,2.13.32L328,50.1l1.24.28-3.68,2.76,3.05-.6-1.81,1.21,1.81.92,1.23-1.53,1.81.29-3,1.52,1.23-.28.61,1.52,1.2-.6-.89.89L331.94,58l1.21-1.81L331.62,55l4.29,2.16-1.27-.28L332.54,58l3-.28-2.44.6,1.23.32-.6.88,2.13-.28-.92.92,2.12-.32-1.8.32,2.41.29.31,1.23.61-.92v1.81l2.44.32V64.1l1.21-.61-.6.92.92-.6v.92h1.2l-1.2.6,2.12-.31-1.2.6,2.44-.29,1.52,1.53L351.43,65l-.89,1.84.89-1.24v1.52l.92-.89.92,1.21.29-1.21.31,2.13.32-1.52.89,1.81.32-1.53,2.73.64-3.34-.92,2.45-.61-1.84-.63.92-.89-1.84-.63,1.23-.89h-1.52l1.21-.64h-1.21l.6-.89-2.73-1.23,1.81.31-2.73-.92,2.13-.6L351.75,58l1.81.32-2.13-.92,1.84.32-1.52-.32,1.2-.6-1.81-.61,1.81.29-1.2-1.21h-1.84l1.52-.92-3.33-1.81,1.81.29L349,51.3,348.7,51l2.44-.64-1.84-2.12h1.24l.6,1.52h1.21l-1.21-.92.92.63,1.21-1.23-1.21-.61h1.81l-2.44-4,.63-.92-3-1.53,3,.92,1.53-.6-.92-.6,1.52.28,1.52-2.12-1.23-4.26h-3.94l-.32,1.53v.28h-1.84l.64-1.52-2.45.92-1.23-1.81h1.84v-.92l-3.65.28.28-.88L342,32.42l5.49.32,4.57,1.52-.92-.92,1.53.6.6-.32-2.73-.88-1.24-.93-.6.29-.32-.89-.6.6-.6-.6-3.65-.63.28.92-.6-.61-.92.32.92-.63L341.69,30l-.29.92-1.84-.31,1.2-.89-2.41.28.61-.28-1.53-.32h1.81v-.92l-2.41-.29,2.73.29-.92-.6h2.12l-1.52.31,2.76.29.61-.92-1.53-.6h-1.84l1.84.6-2.12-.6-.58-.29,1.5-.63h.28l-.6-.61h-1.21l-.92.32-1.24-.92-1.81.32,1.21-.64h.92l-2.44-1.2h-.61l-1.84.31.64-.92h-.32l-1.21.29-2.44-.6,1.21-.61.92-.31L328,20.55l-1.2.28h-.92l.31-.28v-.32h-.92L324,19.91l.92.92-1.81-.92-2.45-1.52-3.36-1.81v.92l-1.53-.32V15.66l-1.52.6-.6.32v-.32l.92-1.2-3.05-1.24-2.13.32,1.53.92H310l-.61.28,2.73,1.84L307,14.74l.6,1.52L306,15.34l-2.73,1.24-.63-.6,2.76-.92-.32-.92-2.44.31-1.21-.63L299,15.66l-.61-.92Zm34.09,43,0,0-1.52-.32Zm-8.19-5.21-2.13.29,1.21.31-.29.61Zm-1.81-4.28h-3.05l2.42.31h-2.13l.6,1.53Zm0-1.53H322.2L321,47.05ZM276.77,17.18l-1.52.32-1.52.29L275,19l-3.05-.92-1.24.29,1.52.63-2.12-.31-3.05.6,1.84.32-.92.28,2.13-.28-1.81.92,3.65-.32-3.65.6,1.2.32,4.26-.92-2.73.92-.32.29,2.16-.61,1.2.32-1.2.29h1.81l.6-.61,2.45-.92-1.53.92H278l-2.76.61-2.41.31L275,23.28l-2.77-1.21h-2.12l2.44,2.13-1.52.28,3-.28-1.52.6.6.6-2.44-.92-1.52.32L268.27,26l1.52-.29.29.29.92-.89-.32,2.12,2.44-.92-2.44,1.53-3.33-1.21,1.2,1.52-3.65.89.92.64.61-.92.6.92.32-.64.6.64.32-.64,1.2.92,1.21-.92,1.24.64v-.64l1.2.64-.6-.92,1.84,1.52,1.21-.32,1.84-.28.29-1.24-2.13-.29h-1.84l-.29-1.23,2.13.6,1.2.32.64-1.53h2.13l-.92-.31,1.52-.29-1.52-.32,1.84-.28-4-.92h4l-3.37-.32,4.26-.6-1.21-.61,2.44.29.61-.89h.31l-.92-.63,1.21.31,2.44-2.12-3.65.6,2.13-.6-2.13-.32H285l1.81-.92.31-.6L285,17.18l-2.76.61.92-.61Zm-10.95,2.73-2.12.92.89.32-2.42.29,1.21.92-1.52-.61-.32.61,1.84.31-1.21.92,3.94.29-3.65.32,2.13.92h-1.53l.64.6,2.41.29v-.89l.63.89L268,24.2l.32.92L271,23.88l-.61-.6h-1.52l.29-1.53-.61.61Zm-12.18,2.76L253,23.88h1.21l-1.84.92h1.52l2.16.92.6.29.29-1.53V24.2Zm-5.5.61-3,.6h3.65Zm88.05.31,1.24.89.6-.6Zm-77.38.61-.6,1.52,1.2.6h.32l1.52-1.2Zm-14.92.28-.92.92,1.81.32,1.84-.92Zm-6.73.32-1.52.6-5.46,1.53,2.41-.29v.89L237.16,26l-.89.92,4.26-1.53-.92-.6Zm100,1.21h1.24v.6Zm-150.83.31-2.13.92.61-.31.6-.29h-1.81l-1.52.29-4.89,1.23-.6-.92-2.73.92-2.45,2.42-2.44.92.32,1.24-2,.82,1.33-1.14-3.33,2.44-.92-1.24,2.12-1.2h-4.25l-1.84,1.84-.29-.32-2.44,1.53-.32,1.84,1.24-.32-1.24.6,2.45-.6-.32.92-1.52.28-2.13,1.53-1.52.63-.29-.63-2.44.63.6-.92-7.62,3-1.84,1.21.64.31-1.24.29-.07.35-1.46.28-.6.61,1.52-.32.51-.51-.19.83h-.92l-2.76,1.81,1.84.31-4,3.05-2.12.92,2.44-.32-.6.61-1.53,2.16,3.05-1.85-1.84,1.53,2.44-.32-3,1.24-3.37,2.44-5.49,1.53h-.89l-1.84,1.52-.32-1.24L118,61.05l1.2-.29-.28.29,1.52-.89-.63.89L122,59.84l-.93.92,2.32-.28-.79.57,11-3.65,2.44-.29,3.37-1.24V55l1.52-1.2,10.35-3.37,1.84.32-2.13.6-.31,1.53,2.73-.61-1.81.92,1.52-.6-.92.89,2.13-.29-1.21.29.29.64h-.29l-1.24,1.2,1.24.32-.92,1.52,3.36.89-.31,1.84.92-.32,1.2-.6-1.2.64,1.52-.32v.92l-1.52.6,1.2-1.2-2.12.89-.32,5.49,1.52-.29.92-2.44v1.2l1.24-.92-1.84,2.16.6.89L161,62.89l-2.73,3.36.32.92,1.81-.92-2.13,1.21.92,1.21h-1.23l.31,1.23-.6-1.23v1.52l-1.52.32.28,4-3,1.53,3.68-.92-.64,1.2-3.33,3,3-1.52L158.25,76l-3,2.73.6.6-2.13.64-.28,1.42.6.39-1.84.6-.32,2.44,3-1.81-1.37,1.37-.44-.16-.32,3.36-2.12,1.21,1.2-.6-.6,1.2,3-1.2-4,2.44-.6,1.52,1.52-.63-2.13.92,1.53.32-2.13.28,2.44.32-2.16.32,2.45.89-.92.31.32.61,2.12-.61-2.44.92.63.93,1.21-.93-.92.93.92.28,2.13-1.81-2.13,2.13,2.13-.32-2.45,1.52.64,1.24,1.2-.63.61-.61v.61l-.29,1.24-1.52.28h2.41l-1.81,2.45.92,1.23-3.36,5.46,1.2-2.73-2.73,2.13,2.73-2.73-3.93-1.84-2.16,5.49h.92l-2.45,2.73-9.14,12.82-1.81,5.78-3,4-1.24,6.7v4.25h2.16l-.32,2.76-.6-1.84L129,150.05l1.52,9.74-1.2,2.45,1.84.89,3.93,2.44,2.16,4,.6,15.55V186l4,6.73-1.52,2.41.89,1.53-3.65-1.21,3.65,5.49L143,200l2.44,4.57-1.24,5.78,5.81,6.73.61,3.33,2.44-1.21-.6-4-3-1.84-.64-10.35-3-6.41.31-3.05-4-7.9,1.24-8.54,5.17,3.65.28,5.81.32,4.85,2.45,5.18,2.12.63-.6,2.73,4.25,5.17L155.52,208l4.57,3.33v1.84l6.38,9.14,1.85,7-1.85,3,.92,1.21-1.84.6.64,1.84,7,8.83,6.41,2.44,3.34,3.65,4.57,2.13v-2.13l.31-.6-.28.6V253l14.31,7,10.35-1.81L225,269.49l13.11,4.26-1.2-.61,6.09-.6.29,2.44h-1.81l9.42,9.14-1.52.61,1.52.6-.28,3.65v.6l2.73,1.53,1.24-1.21-.92-.92-1.24-1.21,2.44,1.21.32.32,5.17,4.57.32,2.73,1.21.32-.32-1.84,2.16,3.65.89-1.53,4.57.64.92,2.41,2.44-.89.6,3.33,2.13-.28,2.16-1.24-2.16-3.33,2.16-1.53,4.25-2.44L285,297.2l1.52-.28L285,299l5.17,6.7-.92,11,2.44,1.53-.6,1.2L288.07,324l-3.68,1.24v3.05l-2.41.6.6,2.73-5.17,1.24h-.32l.32,1.81.29,1.24-.29.28L275,338.34l1.2,1.52-3.05,1.53v6.09l3.05,1.84,1.24-1.52.6-.92.92,1.84-1.52,3.33v.32l-6.09,4,2.12,6.38-1.52,1.52,5.49,3.36,4.86,6.42,3.65,7.9,2.44,5.81,6.7,8.82-.89,2.45,2.13,3,3.33,3,16.47,7.3L321,417l.63,6.41-.31,5.78-3,8.22v7l-5.78,13.1.6,3.37-.31.28-1.81,2.45-.64,10.06L303,484.92l-2.12.92,1.2,6.09-3.33,4.57L300,498l-.92.6,3-.92,1.24.32,1.21-.61L302.07,499l1.84.6-.6.92-1.24-.32.92.61-.92-.29-1.52,2.73,1.24.92-2.16.92,2.44.92-1.81.89-1.84.92,2.45.32-2.45.29-.32.92,1.53-.61-2.13,2.45-.6-.92h-1.53l.93-.92-1.24.6-.89-.6-1.24.31,1.84.29-1.24.92v.92h2.16l.61.92-1.85.6h1.85l-2.77.61,3.37-.32,1.2.92h-1.2l.6.63-4-.63,2.45.92-1.81.6,1.2.32-1.52,1.52,1.21-.6,1.24,1.21h-2.13l.6.6.6.6h-2.72l2.12.32-.32.92L296,520l.6.6-2.73.61,1.52.31-.92.92,1.53.93v-.93l.6.93-.28-.93,2.12.29-2.44-.6,1.52-.61-.6.61,1.84.6-1.84,1.52h4l.28.92-2.12.93.6-.61-1.81.29,3.05.92,1.81-2.13,5.2-1.2h2.41l-1.2-1.24h-1.84l1.84-.29-.92-.92,3.65-2.13-.29-.31-.32-.61.61.61.31.31,1.21-.31,1.84-2.13,6.7-3,.6-1.84-3.05-.28L317.31,509l3.05-2.13,4.88-.92,1.81-3.33,4-2.13-2.13-.63,2.13-.61.6.92,2.13-.92v-1.52L331,499l-1.84-.92,1.24-3.65,4,.89,5.18-.89,1.81-4.89.92.32-.6-1.84,4,.31,4.26-.92,5.49-1.24,3.65-1.52,4.57-4.25.32-1.53-1.85-.92,1.53-2.44-4.26-2.13,1.85-4.57-.64,2.76,1.52,1.53,5.5.89,7.61-1.53,7.34-6.09,2.73-4.57,5.77-5.46-.28-.92,2.12,1.2-7.3,6.7,5.78-4.25,3.65-4.26,2.44-2.76,4.26-3.33,2.76-5.21-.32-3,2.45-3.05-1.24-.6,1.84.31,3.36-3.65,5.18-3.65,3.33-.63,4.57-4.25,3.05.31,2.16-2.15-.32,1.23,3.65-.6.6-1.84,4-2.73.32-1.84,5.49-7.3v0l.92-1.21,1.52-5.17,2.73-3.37,4.89-21,.89-1.24.32,1.84,1.84-1.84,8.22-13.08,4.85-8.25.93-5.78-.93-7-.88-1.52-5.21.6-4.57-4.86-5.17-3-8.23,1.52L440.11,335l-5.49,5.49.32-3.37,1.81-1.52-2.73.92,2.13-2.13-1.21-2.76-1.84,2.13-.29-2.13-.63.92.32-1.2-.92.88-1.21-1.52-.6,1.24-.32-1.84-.6.92-3.65-1.84-.32,1.23-2.73-.31-1.84,4h1.84l-1.52,1.2-.93-1.52-3.36,5.2.6-3.36-4.57,1.84,6.41-3.05,2.13-5.81h-8.22l-1.84,4.57V331L409,333.48l-.32-2.44-1.52,2.44,1.52-4.28,5.81-6.7h-.92l.92-2.44-3.68-1.53-2.41-9.74-.92-.61-.61,1.85-2.76-4-8.22-3.37-12.79,1.53-5.49-4.57-1.21,2.44.6-4.57-2.76-2.73L370,292.66v0l-.92-.6-3.05.32v-4l-3.65-1.84-3.05.63-.92-.92-1.8-1.52,4.57-2.13-10.67,1.21,2.73.6-6.41,2.44-5.46-2.44-8.54,1.24-1.52-3.37-5.49-1.2-2.13-3.37-.92,2.73,2.13-.28v1.2l-1.53-.6-6.7,4,2.13,3.65.6,1.52v1.84l-3,1.53-2.13-3.69.6-.88,1.84-3.37-1.84-4.25,4-2.45-2.73-1.84-7.33,5.81h-3.94l-.63,1.52-2.73-.31-1.84,1.52-2.13,3.05.32.6.28,2.76L292,296l.64,3-5.21-5.49-5.17-2.12-3-.32-1.81.92-5.21,3.05-3.65-1.81.32,1.2-2.13-.32-3.36-4.85-4.25-6.41,3.33-14.32-.6-4.57-7.62-3.65-14.32,1.21-3.65-1.21,3.65-4.89.61-6.69h-1.21l1.52-2.45.89,3.37,2.16-6.7-1.52-.32,4.57-7.9-5.81-1.53-9.75,2.42-2.12,7.93L225,247.84l-3.33-1.2-9.46,2.44-3.05-3.36-3-.29-6.38-16.15-.32-2.77,1.21-8.82.63-3.36,1.81-.89-.92,2.12,2.16-4.57L204,204.9h-1.21l1.53-.32,1.2-3.65,3.37-1.2-.92-1.24,2.73.6-.92.64,4.89-2.45.92-3.05,1.81.92-1.21.89,4-1.2,6.09.92,2.13-1.24L232,198.2l1.84-1.24,1.21.92-.29-1.84,1.81.32,1.24,2.73,1.81-1.21L236.88,196l2.12-1.52-1.84-.29-.28-.31h-.51l-2.26-.92h9.46l.61-2.13.92,1.84-1.21.6,4.25-1.52-.6.92,4-.32-1.24.32,3.65.29.64,1.52.28,1.52,3.37-1.52,1.52-.6,1.27.63.86.57,4.25,4.89-.89,4.57,1.81-.32-1.21,2.16,1.21,2.41,1.52-.28,1.24,5.17,3,1.53-.32,2.12,2.13-.28V218l2.44-8.51-4.89-14.63-1.81-5.49,4-4.57-.63-1.21.92.89,2.44-2.13,4.89-4.57,9.43-5.17-2.73-.61,2.12-.92-2.12-1.2,3.33.89,1.52-1.53-.6-1.52-.6,1.52V167.7l-2.73.32,1.81-1.85,1.84,1.24-.92-3,1.84,4.25-1.84-5.17-4-1.21,2.13.6L289,161l1.24,1.24.6-1.52.32-1.24-4.28-2.13.31-1.21,3.65,2.73-1.52-5.49,2.73-1.2-1.52,3,2.76,3.65-.92,4,3-5.81-2.12-5.46,2.73,3.05,2.44-3.36-.92-3.37,2.45-2.12,7.3-1.53v-2.12l.92,1.52,4.28-.92-.63-1.53-.61,1.24-3-2.76,2.12-5.49,1.53-.29-.29-1.23,2.13.31.92-3v1.52l1.81-1.21.92,1.21,3.36-2.44-1.24-1.53,2.45.64,6.41-3.68-1.52,2.15,4.85-.31-1.81,1.52-1.52-1.21-4.57,3.65.29,3,2.76,1.21,2.73-4.89,2.12.32-.28-1.21,7.3-2.13.92-.63-3.65-2.13-4.29.92-5.17-2.12-.92-2.77h-1.81l1.21-3-2.73.92-.61-1.21h-3l4.85-.32,2.45-1.8-1.53-2.77h-4.89l-5.77,2.45-8.22,7.62,3.33-4-.6-1.81,7.33-4.57,1.52-2.45.61-1.23,18.88-1.21h.32l1.81-4,4.57-1.2,2.44-2.77-2.12-1.2h1.81L342.61,97l2.12-.28-1.52-.64.32-2.13-2.45-1.2-1.84,1.52L339,92.15l-3-.63-4,2.76,3.37-2.76-2.77.92L337.43,90,335,89.71l.32-.6-2.45.6-.6-1.24-.64.64.32-.92L330.73,90l.61-1.53-1.24.32v-.92l-.29.32-1.52,1.2V86.66l-.6.92-.32-1.23h-3.05l.61-1.21-1.53.29.92-.29-1.84-.6,1.24-.32-2.44-.6,2.44.28V82.41l-3.36-1.24,1.52-.6-2.45-.92.32-.92-1.84.92,1.24-1.81-2.13.89,1.21-1.53L317,76l-2.16.32,1.53-.64-3.94-2.41.29-.92L311.53,72l-.92,2.13,1.52,1.24-1.52.28,1.21.64-1.53.88.92,1.85-1.52-1.85-2.44,3L306,78.44l-1.21,1.81V77.84h-4.57l.89-.92.92.92.32-1.84h-1.24l-.6-2.13h-2.73l3.05-.32-.61-3-.63.92-4.26-1.21V68.7l-1.84.28-3.65-2.73-1.52,1.21-6.7-1.21-1.52.92L282,69.3l-1.52,2.45H282l.89,2.41-3.05,4.57,4,2.16,1.84,5.77-2.76,3.65-5.78,2.45,2.13,1.52,1.84,7.3-1.84,1.53.6,2.44-1.2-1.84-1.53,1.84h-.6l-1.84-.6v-1.53l-4.86-4.57.29-7.93-7.91-.29L248.46,82.7,243,83.9l1.52-1.52-.6-4.57-2.44-.29-.61,1.21-1.23-2.13,2.12-4.89,4.57-3.65-.6-.6,4.57-1.81-1.21-.92,2.13.29,2.13-1.21-2.13-1.52-1.52.31.6-.63-3.33-.6.6-.92,5.78,2.76,1.84-2.13h4l3-2.76-7.33-2.45,2.13-.28,4.28,2.13,3.34-2.45-1.53-.92,5.49,1.24-2.44-2.45h2.44l.92,1.85,4.26-3.05-2.41-2.76,2.41-.61L272.2,48l1.24-.92-3.05-.92,1.21-.29-4.86-.63.89,3h-1.52L264,51.94l-2.12.6V47.65L260,46.73l-2.42,2.76-.92-3.36h1.81l-3.93-.92.88-.6-.88-.29h-4.89l-.32.29,4.29,1.52h-1.85l-.92,1.52,1.53-.6v1.21l-3.94,1.23-.63,2.45L246,51l2.12-2.45-1.84.92.92-.92L246,48h-2.45l.32,1.52h1.52l-.63,1.21-1.52-1.81-1.21,1.21-1.84-.32-3.94-.29L235.35,48h-2.76l-.28-2.44-5.5,1.2,1.85.64,3.65-.92-5.18,1.81.29,1.84-.61.92-.92-.6-.28,1.8-.92-2.12,1.52-.61-1.84-2.12-3.65.28-4.57-.92.6-.89,2.76-.31L218.88,44l-2.73-.31-2.44-2.13L212.5,40l-4.57.6,1.81-1.52.63-.61-.92.61-3,1.23.61-1.84.6-1.84-.6,1.24-1.21.28h.89v0h-.92l-5.46.6,3.33-1.24,1.24-.6-1.84.32-4.89.92-1.52-.32,1.52-.92-3.33.6-1.52,1.53-.92-3.65-.29-1.85v-.28l-4.29-3.05.32-.92,1.21-.6-.92-.32.92-.92-1.81.32,1.81-.61.6-.6-2.73.29Zm69.16,18.29.64-.61h1.21l-2.73-4.57L250,42.16l1.2.32-1.52,1.81h4.89Zm41.78,479.6-.35.1v.09Zm-.35.19-1.5.73,1.21.32Zm-.29,1.05,1.24.61-.32-.61,3.37-.92H297.5Zm.29-1.14,0-.1.92-1.2-.92.92v-.6h-2.13v1.52Zm-2.7-8.32-.64-1.2-1.2,1.2h1.84Zm-.92,0-.6,1.84-1.85-.31.92,1.52,1.81-1.52-1.2,1.52,1.52-.29Zm.28-5.17-2.41.92.89.29-.6-.29Zm6.73-4,.29-1.2-1.52.6ZM299,498.63h-1.21l-.6,1.52L296,502.88h1.52l1.84-.6.29-3.65ZM153.4,81.39h0v.1Zm0,0V80l-.89.88Zm-2.73-28.56-.32-1.53-2.13.32-4,2.45.64.28-3.05,1.24h3.65l.67-.51,1.46-.73v.92l2.44-.92ZM118,61.05l.92-.89-2.45.6.61.29.6.32ZM258.81,26.64l2.73.6-.29-.6ZM239,26.93l-1.84.31.92.61h-2.73l2.13.31-3.37.29h2.45l-3.65.6,1.2.92,2.77-.92L236,30h3.65l-5.18.61,1.53.92,5.49-.61,3,.32,2.13-1.84-.6-.32-1.24.64-.89-.32,1.21-2.13-2.45.61L242.37,30l-2.45-.6Zm25,0,.61.92.63-.61Zm-28.63.31-3,.92h1.52Zm22.25.61.61,1.84,2.73-.32-.29,3.05,2.41,1.2,1.84-.88.92,1.2H271l.32-.92,2.12.92,2.13-.6.92-.32h-.92l-.32-.28.32-.32.6-.61-.6-.31-1.84-.61-6.1.92-2.41-.6-.32.6L264,30.29l-1.52-.6,2.76.28-2.44-.6.6-.32-3.05.32.61-1.21Zm-2.16.6-.88.6-.92-.28h-.93V30l-1.2-1.2V30l-2.45.32h3.34l.31.29h-.6l-1.24.63.32.6,2.45.29,1.52-.89Zm84.44.32v.6l2.41-.32Zm3,.28-.54.54-.38.1,1.81.6,2.76.29-3-1.08.89-.13Zm-119.47.64-.89,1.2-8.25,3.37,1.24.28L214.94,37l3.94-.32,1.84-1.2.67-.32L230.46,33l-.28-1.81-2.45.29-.31-.61-.29-1.2Zm35,1.2-3.33,1.21,3.65.92Zm-27.42,2.73-7,1.24-2.76,1.53,1.53.28-1.53.64,4.29.28-5.21.6-.28.93,5.17.6,2.13,1.52-8.54-.6-.6,1.84,3,1.52-.6,1.53h6.7L232.59,44l1.24,1.81,5.49.32V44.61l-2.16.92L237.8,44l1.2.61,2.45-.92.28.92.32-.92.32-.61-3.68-2.44,2.44-4.57-.92-1.21h-2.13l-2.73,4,.29-3.68h-1.21v1.24l-.6-.32-1.24.6-1.21-.28,2.13-.92L232,34.54l-3.05.93Zm116.42,0,.29,1.85,1.84-.93Zm-180.41.07v.57l-.29-.32Zm74,.25-.92.6,1.52,1.24,1.84-1.24Zm7.33.6-.32.93-1.2-.32,1.52.63.29.29-.61.32-.6.6-2.13-.92-1.23.92,2.12,2.73.64.63h1.52l.32-.63h1.81l1.81-2.41-2.13-.64,3-1.81-4-.32Zm7.3,0-2.12,4.89,2.73-1.24-.61-.6h2.73l3.68-2.44Zm11.27.93-4,1.2L260.65,41l4.25.92,3.05-.32-1.21-1.84V38.19l2.42-2.41Zm-.29,4.25,2.13.92-.6,1.84-.32-.6h-7l.92,1.52,1.2.89,2.45-.89.92,1.52h.31l6.1.29-.64-.29L271,44l1.52.92,1.84.89-.92-.89-.32-.31,2.45.31h.32l1.81.29-.29-.29-.92-.92.92-.92,1.81,1.84.6.61.92-.61-.28.89h1.81l.92.92-1.53,1.53,1.84-.92,2.42,1.52.92-.6,3.65,4L289,53.43l1.84.32H289l-2.41,1.52L289,57.4l-4.57.6-3.33-.6-.92,3.05h7.3l-.6-1.53,2.44,1.84.32-1.24L291.41,62l3.36.6-1.84.64,1.24.89,13.08,3L299.34,62l3.05,1.24L301.47,62l7.3,3-2.13-3.65,2.45,1.84-1.21-2.45-2.44-.6,1.2-.64-1.81-1.2-.92.92L302.68,58l.31.92-2.12-2.73-1.53.92-.92-1.84h2.45l-2.13-1.84h2.13L302.68,55l.92-.88-.29,1.2,2.13-1.2-1.24,1.8L309.09,58l-1.53-3,2.13.92-1.21-1.52,2.13.32-2.44-.92h2.76l-1.84-.92,1.52-.29-1.84-.92-.6,1.21-.61-.92-1.52.63.6-1.52-.92,1.2.32-.92-1.84.92.92-.92H303.6l1.52-.28-1.52-1.24-1,.51-.22.41-1.24-1.21V50.7l-.28-1.21-.61.61-.31-.92-.61.6-.6-.92h-1.52l1.81-.29-4.86-.92h2.73l-1.21-.92-1.24.61,1.53-.89-1.81-.32,3.93.32-.88-.64h-4.89l4.57-.6-.32-.6-.28-.32-1.53-.6-1.24.92.64-.61-2.45.61,2.73-1.53-2.12-.6-1.53.92.61-.92-1.81,2.13.28-1.21-1.2.29,1.52-1.81-2.76,1.2,1.84-1.52-2.44-.92-1.53,1.52V40.35l-1.81,1.53.29-1.24h-1.21l1.53-.92-3.05.32,1.52-1.53-3.36-.6-1.52.92,2.44.6h-2.57l-1.68-.92-.32.32L274.36,40l.89-1.85-1.81-2.41-4.57.89,1.52.64H268l2.13.6-2.45-.32,1.84,2.13-1.52-.6Zm35.87,10.57.38-.8-.6.89Zm-28.25-4.48,1.53.32.88-.6h-.88Zm.29-10,.92,1.81.92.6,4.86-.6-2.13-1.52-3.65-.29Zm-87.77,3-1.81.92v0Zm7.65.6-3.65,2.73,3.34,1.53-1.21,3-.29.19,0,.13-1.78,1.27,2.42,3.3-.92,1.52.6-1.52-2.44-3,.34-.25,0-.06,1.84-1.34.89-3.23-2.73-.29V41.56Zm-9.77.61-2.45,1.23v0ZM150,40.35l-2.41,1.81V43.4h0l-1.49.89,3.27-.6,0,0-1.14.57h-2.41l1.49-1.21.32-.92v.1l0-.1v-.28Zm167.28,1.81-2.13.32.32.29.89,1.23,2.16-.31v.92l2.12-1.21-2.12-.92Zm-165.18,0-.89.58-1.72.85,1.72-1.14Zm28.66.29-.6.32v0Zm32,0-.28.32-.92.6.28-.32Zm-35,1.81v0l-.6.29Zm68.88,0-3.05,2.44,3.65,1.53,2.77-.92Zm-107.57.32-1.81,1.84,1.21-.32L140,44.92Zm69.77.92h0l-.32.6Zm-33.2.28v0l-1.81.89ZM207,47.65h.32l.6.61-2.45.63-.28.29,1.84.6,2.41-.6-2.73,2.44L204,50.7l-.92,1.52h0l-1.21.32-3,.6,3.3-1.8-4.19,1.2-1.53-1.24,3.94-1.2-.6-.61,2.73.29-2.13-1.21-3.33.61h0l.92-1.21h0Zm-35.65.92-.6.32v0Zm110.3.92-.31,2.73,3-.31.32-1.53V50.1Zm3.65.61,2.45.6-.92-.6Zm-69.76.6h.92l-1.21,1.21Zm-3.65,1.84,2.76,1.81-.92.6Zm5.8,0,1.53,2.73-1.24.92Zm-52.75.6-.6.32v0Zm78.66,0,.28.93-1.52.28Zm-43.93,1.21h0l-.32.64Zm34.78,0h3.34l2.73.32-3,.6Zm-72,.6v0l-1.21.6Zm1.87.32-2.16,1.84.92-1.24Zm34.09.32-.29.6h0Zm68.88,0,.6.89h.32l1.52.32Zm-2.45.6-1.84,5.18-2.12,1.52,3-.32.92,1.84,4.89-3,.89,1.52,3.36.6,1.85-.92L274,61.37l-2.12.6.28-1.81L267,57.4l-.92.6Zm-104.52.29v0l-.6.29Zm54.56,0h2.76l-2.44.63Zm-1.2.32.92.92-2.45-.32Zm-75.61.31-1.37,1.08,1.69-.47Zm-1.37,1.08-.44.13h.29Zm63.87-.79.32,1.52h-.32l-1.21-1.2Zm18.88,0L221,59.24l-4.57-.92Zm72.85,0,3.33,2.44-3-.32Zm-133.5.32-.61.31v0ZM135.08,58,133,59.84l.6-1.2-1.21.6-.6,1.21.6-.29-1.52.89,3-.6.6-.93.32.64,1.52-1.24L136,58l-1.52.92Zm99.07.32h1.52l5.78.32-3,.92-2.73-.92h0Zm-68,1.84-2.45,2.73-1.52.6L165,61.37Zm36,.29,3,3,7-2.12,3,.6h-3l1.53.32h-2.45l1.84.28-2.76.32-8.22,3.36h-2.73l-4-2.15-4-.89h3.65l.31.89,2.73.92,2.13-1.53h2.16ZM212.21,62h-1.84l-1.2.6Zm26.51-1.52,1.84.31-.92.61Zm-124.65.6-1.3,1.05,1.3-.73Zm-1.3,1.05-.32.19h.1Zm-.32.19h-1.11l.6.28Zm120.49-.92-2.16,2.73-1.52-1.21Zm-40.88.92h0l-.32.6Zm56.12,1.2,1.81.61-1.53.31Zm31,0,1.24.92.6-.92Zm-64.56.32-3.37,2.44v-.92Zm23.74,0v1.52l-1.81-.6Zm-5.78.29v1.84h-.31l-.93-.29,0,0,1.17-1.49Zm-4,.31,1.23.32-2.16.89Zm43.26.61-2.45.31-2.12,1.21.28.92Zm-82.59.31-.29.61h0Zm32,.29.29.92-2.73.92Zm-65.83.32-2.15,2.73,1.23-.89.61.89V66.86l.6,1.2.92-.92Zm2.42.31L154,70.51l2.13-.92,2.12-2.45Zm119.15.29-.92,2.13V69l1.53-1.2Zm-89.6.92h0l-.32.6Zm121.28.6,1.24.61.28-.61Zm-87.42.32L221,69.59l1.52-.29-2.13,1.52ZM186,69.3h0l-.32.6Zm39,.89-.6,2.16-.92-.92Zm8.23,0-2.45,1.52.6.64-1.2-.32-.29,1.84h0l-.89-.63h0l-.28-.29.6-.6,1.2-1.53h0Zm-78.94.63-2.73,3.05L153.68,72Zm.6,0-1.21,1.81.92.32,1.53-1.52Zm64.94,0V72h-1.52Zm-12.19.89,7,1.84-7.33-.31-4.86,1.84-.32-.92Zm83.48,0,.6,1.24-3.93-.6ZM153.37,73l-1.81,2.45.6.28-1.52.92.6,1.21L151,79.05l1.81-1.85-.92-.6h1.24ZM289.92,75.4v.28l2.44.92L289,76Zm-134.71.28-1.53.92.32.6-.32.32,1.21-.32Zm14.63.32-.29,2.44.29,0v0l3.36.61-3.36-.58-.89,3Zm50.59.92-1.84,2.41-1.52-.28,1.52-1.85Zm2.13,1.52-2.13,3.65-4.25,2.13,1.21-1.84-.61,1.24,1.81-.92V80.25Zm-11.27.29V80l-2.73.28Zm-63.7,1.52-2.45,4v3.65l.32-2.73,1.21-.6-.61-.92,4-2.77-3.36,1.85,1.84-1.53Zm82.91.32-.92,1.81-4,.92,2.44-.6Zm-26.51.6.89,1.53-3,2.73-.28-2.13.92,1.24L204,83.3Zm87.13,1.21-1.52.92,1.24.6h-3Zm-139,2.76-1.52,2.13.6-.61-.6,1.81Zm126.14.6-1.81,2.45,1.81-.61v.89l.32-.6v0Zm34.15,4.57,3.94,3.15.82.44,1.34-.54-.29-.32h1.81l-1.21-2.12,2.45,2.44h2.12l-2.76.92-1.81-.92-1.43,1.14v.16l1.43,1.14h-1.23l-.2-1.14-.09-.09.09-.07-.09-.54-.13-.06L317,94l-.63-.5-3-1.62L314,93Zm-75.57.61,2.15.31-3.36,1.21Zm-9.75.92.32,1.2.92,10.67-2.16,3.05,1.24-4.58-1.84.64.32-2.44-1.85.28-1.2-3.33,1.2-.6h.32l-1.84-1.24,1.52-1.81,2.45.89Zm77.1,0,.6.92L303,93h-.31Zm-82.91.31,0,.1.06-.1-.6,1.53H221l-.92.6.31.6,1.21,1.53-1.52-.61L218,94.88l1.81-.6ZM146.38,94l-.32,1.53,1.85-.29-2.45,1.53,1.81.28v4.89l2.76-.6-2.12,1.81,3.65,1.84-.32-6.42V97Zm89.29,0,1.52.92h-2.44Zm74.05,1.24L309.4,97h-1.52Zm-92.36.6h1.55l.89.61h0l.89.6h0l-1.81,4.76-.06.13.63-4v-.6l-2.44-.6Zm102.71,1.81,1.84,1.53-1.24-.29Zm-46.95.32-2.44.6,3.68,1.24ZM346,100.38,343.21,104l.32,2.73.6,2.15-1.52.29,1.52,1.52-1.52-.28-1.85,2.73,3.05-.61-2.73,2.73,1.21,1.24,2.16-1.24,4.85.61,2.45-1.81-.32,1.81,4-1.21-2.73,3.37,2.12-.64,2.13-3.65,1.52,1.52-.28,2.77,1.2-1.85.61,2.13h1.52v-3.65l-.92-.92-.89.92v-2.44l-.63,2.76-1.81-1.24.6-.92-1.2-.29,2.12-1.52-3.05.92.61-3.68-2.73.32-.64-1.21-1.81,2.41v-2.12l-2.44.92.92-2.45-2.13.61v-.89l-.31.6-.92,1.81.31-1.81.61-4.29-1.53-.88,1.84-.32Zm-146.87.92.32.88-1.52.32Zm21.65,0,.26,1.81h0l.6,4.28-.63-4.28-1.78-.93Zm-51.51.6.6.28h1.21l.92.32-.92-.28h-1.21Zm135.31.28h1.2v1.24Zm6.7,0-.93,4.29-2.44-4Zm-132,1.24.63.29h1.52l.61.32-.64-.29h-1.52Zm118.87.92-4,5.18.6-3.65ZM190.57,105l.6.28h1.52l.89.32-.89-.29h-1.52Zm94.17.92,2.13.28-1.84.92Zm-80.78.6.6.29H207l.92.31-.92-.28h-2.45Zm37.8,0-.92,1.81h-2.12l-1.84-1.52,2.44,1.23Zm67.33,0,0,0,1.2,2.7.29.89v0l-1.21-.92-.92-.92Zm-18.25,1.21h.28l1.24.31-.92,1.21Zm-68,.31.6.29h3.36l.92.32-.92-.29h-3.36Zm28.06.29.92,1.24.28.28v0l-.82,1-1,1.14h0l-1.81-1.52,1.21-.92,1.2-1.21Zm33.48.32,0,0,.61,1.17v.32l-1.81.92v0l.57-1.21Zm-52.08.31.92,2.73-2.45-.31,2.45.63-4.26.89,2.73-2.73h-1.81Zm91.41,0,8.22,2.42.32-.89-3.05-1.24Zm-68.56.61.92.28h20.41v0H256.08Zm51.2.28,2.12,1.84-1.81-.92L304.55,112Zm-71.29,3,2.12,2.76-2.44-1.24Zm15.52.63,5.81.89,1.52,3,3,.32h0l.92,5.77L274,125.67h0l2.73,3.34.92,1.23-.92,1.21h0l-.28.32-3.05-.64-2.35-2.63,1.46,2.63-1.84,5.21h0l-2.41,1.52L267,133.58l-3.94,1.23h0l2.16-2.44v-4l-5.17-2.12-2.13,4v-.06l0,.06v-1.49l-2.41,1.78-.61,7-1.52,4.58h0l-3,1.2h0l-.92-6.7,2.44-6.38-2.09.29h0l4-4.86.92,1.21,3.65-1.84,5.49.63-1.24-1.84-2.44-.28.31-1.24-7.9.92h0l-1.21-1.52-.25,0-1.88.28v0l-.31-1.81-6.38,2.45h-1.53l.61-1.53-4.26.61,10.64-6.42h0l.92.61,1.21-2.13-.61,1.81,1.21-.57Zm-45.39.29.6,1.52,1.24-.6-.32,1.52,3.05.61-4-.29-.6-2.16-2.73-.28Zm-10.06.32-.92,1.52v-1.24l-4.86,1.24-.32-1.24h.32Zm98.43.28,1.84,1.84-2.76-.92-1.21.61Zm-79.86,1.24-.29.6v.32l-.32.6.29-.6v-.32Zm74.08,3,.6,2.73-1.52-1.21Zm51.45.28-2.41,4.29,1.52,1.81,3.34-1.81.6-.32-.6-.6-1.21-.6-.92,2.44-1.21.29,1.81-2.73Zm-11.27.64-.6,1.81,5.17,2.12,2.45-1.8-6.1.28Zm-117.88.6-1.84,9.14-2.13-1.23,2.13-1.21Zm2.09.61-.28.6v.32l-.32.6.28-.6v-.32Zm93,1.2-14,9.46L289.31,133l.61,2.45-2.45,1.2h-9.74l2.12-2.12,6.7-.32.92-.89H285l6.09-1.84,5.49-4-7.62.32-4.57-3,4.57,2.73h7.62Zm-28.38,2.16h1l1.2.6-2.12-.31H275Zm-66.4,2.41v.64l-.32.6.29-.6v-.61ZM209,131.35l-.19.42v.6l-.32.6.29-.6v-.6Zm2.25.1,1.53,4-2.13-1.84Zm-45.7,4.89,1.2,3.33-.6-.6-.92,1.52Zm41.93,1.11-.19.41v.6l-.32.61.28-.61v-.6Zm73.22.09h0l-.92,2.13h0l-3.05,1.52L270.71,144,264.3,143l3.05-4,.92,1.2-2.13.64.32,1.21L271,140l5.49-.32-1.21-.28,1.49-.64Zm-74.75,6-.19.42v.6l-.32.6.29-.6V144Zm98.84,1.62-6.41,2.13,4.89-.6Zm-100.27,4.57-.28.61v.6l0,0v-.63Zm-37.45,3.37-1.84,2.73-3.05.92ZM203,155.83l-.29.6v.6l-.31.64.28-.64v-.6ZM152.48,157l-.29,1.53.89-.29.32,2.13-.61-1.84-2.76.31Zm49,5.81-.29.61v.6l-.32.6.29-.6v-.6Zm-1.53,7-.28.89v.63l-.32.6.29-.6v-.63Zm12.22,4.57v.89l-1.84-.29Zm55.45,2.41.61,1.24-1.53.28Zm-69.19.32-.29.6V179l-.31.89.28-.89v-1.24ZM197,185.7l-.29.6v.6l-.32.92.29-.92v-.6Zm-48.16,4.57-.88.92.6,1.2Zm9.5.6,1.2.92-1.2,1.21Zm40.18.92.6.29h3.68l.61.31-.61-.28h-3.68Zm23.77,1.52.61.29h6.09l.6.32-.6-.29h-6.09Zm-26.82.32-.28.6v1.53l-.32.6.28-.6v-1.53Zm-1.52,9.43-.29.6v1.52l-.31.61.28-.61v-1.52Zm80.18,4.57v2.44l-1.53-1.24Zm13.36,1.2,2.16,1.85-1.24,2.44.92.6.6-3Zm-95.06,4.29-.29.6v1.53l-.32.6.29-.6v-1.53Zm98.74,2.13,2.73,2.44v1.81l.32-2.41ZM285,216.77l-1.24,3,2.13,1.2.92-1.81Zm2.41,4.25-1.21.92,1.21,1.53.63-.92h-1.23Zm-96.59,3.08-.28.61v1.52l-.32.6.28-.6v-1.52Zm81.35,2.13-12.79,2.41-1.2,3.37-3,.6,4.25-.29,5.49-3.68,4,.32,1.21.6-2.45.6,1.53.93,7.93,1.52,5.78,1.24,2.76,3.93,4,.64.6,1.2-2.76,2.45,12.19-.32,4-1.81-7.3-1.84V236l-5.18-.6L278,227.75l-.92-.31ZM264,232.32v2.13l2.13-.32-.89-1.52Zm44.19,2.42-2.73,1.52h2.44Zm-133.44.92h2.44l.6.92Zm14.6.6-.29.92v2.13l-.32.63.29-.63v-2.13Zm120.07,4.89-2.76,1.52,3.37.92-.32,2.13,2.13,2.12-8.22-.28-1.21,1.21,2.73,1.84,8.22-1.24,3.05,2.76.92-1.84,2.12-2.13,9.15.61,1.23-1.85L324,244.8l1.84-1.21-2.45.29-1.2-1.81ZM179.3,243l2.95,1.74.41.07h-.32l-.09-.07-1.75-.22-.28,1.53ZM342,247.24l-7.33.6.32,1.85,5.49-.32Zm-50.59,1.84-6.7.29,2.73,2.44h3.68l3.65-.6Zm69.48,5.78-1.53,1.21.93,1.23,1.8-1.23ZM219.23,257.3l3.05,2.73-3.37-.92Zm29,19.81.6,1.52-2.13-.92Zm2.12,1.81,4.57,5.2-4.28-1.52Zm114.84,2.76-3.05.92.93,1.81-2.13,1.52,4.25-.92Zm-6.06,5.78,1.52,4.89,2.13.28-11,4.29-3.37,1.52-3.36-1.24-3.33,1.53-5.18,7,1.53-4.57,3.33-2.73,3.65-1.24,3.36.92L360,293v-1.52Zm-1.21,9.74-.31,4.57-.92-3.93Zm35.05,10.06.28,1.84-2.13.61Zm22.82,18.89-3.05,1.24,1.52.92Zm-192.29,8.54-1.21.92,2.45,2.73-2.13,1.24,2.13.6,1.52-.92Zm130.74.6,9.75,4.57h0l7,7.62,7-.6-.93.92-4.85-.32-1.24.63-8.22,3.65-2.06-.92-.67-.31,2.09.92h0l4.54-1.81.63-1.84,3.65-.32-2.73-.6h0l-4.57-6.7-9.14-4.25-12.48.6,2.45-.92ZM403,336.81l-4.58,3.37-1.52,1.21-3.65.63-2.09,5.33-.07.13.92-5.78h2.13l-3.94-.31,2.42-.29-2.1-.92-4.89,3.36-3.3-.6,3.3.29,3.05-3.05,4.86-.32,1.52.32h0l-.32,1.52,1.53-.31Zm8.53,0L410,339l.6,1.21-1.74-2.95-.07,0-.31,2.32-.92-2.13,1.23-.19v-.13l.07.1Zm-25.9.64,3.05.29.6,1.52Zm67.23,1.11-.19.41v5.18l-.32.92.29-.92V339Zm-71.19,4.35.25,0-3.52,3.56-.32.28Zm.31,0,.22,0h-.25Zm-35.36,2.76,4.57,4.86,5.81,2.16,2.64-1.88-4.76,3.68h0l-.31-1.52h0l1.2-.6-4.57-1.84-1.52-.61-.6.92-2.16-3.65-3.33-.92-6.1.61-3.93,4.57h-5.21l-1.49,2.12,1.17.64-.92.54-1.17,1-.19-.22h0l-.39.22h0l-1.84-2.16-5.46-.28h0l-1.52-2.45-5.72,1.21,1.78-.89-1.17-.32,2.09.32,3-.63h0l1.52,2.44,5.78.32h0l1.94,2.22,1.36-.76.16-.13-.13.07.61-.48-1.21-.32h0l1.84-2.73,5.49-.32,3.65-4.25Zm-70.08,3.65.28,1.21.64-.61.6-.6h-1.52Zm168.19,19.2-.6.32h-.92l-.6.29.6-.32h.92ZM434,370.33h1.21v0H434l-.6.28Zm-7.62,1.24-.6.32H424v0h1.84Zm-13.11,1.81h1.84v0h-1.84l-.6.29Zm36.28,0v1.24l-.31.6.28-.6v-1.21Zm-45.93,1.33-.41.23h-1.81l-.41.19.41-.23h1.81Zm-12.88,1.43-.61.32h-2.44l-.6.29.6-.32h2.44Zm-15.56,1.53-.6.31h-3.05l-.6.29.6-.32h3.05Zm-24.06,1.8h4l0,0h-3.94l-.41.19Zm97.2,3.37-.29.6v.61l0,0v-.64Zm-79.23,3.65-.29.92v3l-.31.6.28-.6v-3Zm77.42,5.17v1.24l-.32.6.28-.6v-1.2Zm-1.24,6.73L445,399v.6l-.32.6.29-.6V399ZM367.59,403l-.29.61v1.84l-.32.6.29-.63v-1.81Zm-43.87.89,1.52.32h.32l4,3.36L328,409.06l-.6-1.84-1.24.6-3-1.52Zm120,1.24-.28.6v.61l-.22.41.19-.41v-.61ZM425.2,406.3l.92,2.44-.92.92H424l1.21-2.13-1.21.61Zm-89.89,8.53.6,4.26-1.53-1.81Zm30.75.92-.28.61v1.24l-.32.6.28-.64v-1.2Zm56.09.29-.29.92.89,1.24-1.81-1.52-1.24.88,1.53,2.45-1.21-.92-1.2.92,1.2-1.21L419.1,417Zm-57.61,10.38-.29.6v1.24l-.31.6.28-.63V427Zm43.61,2.13-.32,1.2-2.12-.89Zm-45.45,7.61h0v1.21l-.32.64.29-.64Zm-1.21,7.3-.28.64v1.21l-.32.6.28-.6V444.1ZM360,451.08l-.29.64v.6l-.32.6.29-.6v-.6Zm-1.53,7-.28.6v.64l-.26.66.23-.66v-.61H355.4l-.61.29.61-.32h2.73ZM338,459.94l-.6.32h-4.57v0h4.57Zm11,1.52-2.13,1.21-.92-.6Zm6.06,8.83h0v.6l0,0Zm-1.49,5.17v.92l-.22.41.19-.41v-.89ZM352,480.35h0v.6h0Zm-1.2,4.57-.29.92-.32.6.29-.6Zm-44.16,10.66,1.81.92-1.81.29Zm-4,.61.92.92-1.53.31Zm-7.94,14.31H296l-1.24.92Zm5.81.32h1.52L299.66,512Zm-1.84,4.57.92.92.32-.92.89,1.52-2.42-.31Zm87.73,2.13-2.73.31,2.13.92ZM297.22,519l3.65.32-3.05.28v.64Zm-6.42.32v.6l.92-.6Zm47.23,0-.92,1.2-2.44.61.64.63,1.52-.92H338l-.6-.6,3.33-.32v-.6l-1.52.6Zm-3,.28-1.84.32,1.23.6h-.31l-3.05.92,3.05-.31,3-1.53Zm-26.22,4.29-4.86.6-.31,1.21h3L304.2,527l1.46.31-1.14.61-2.73-.92,1.81.92-1.81.28h3.93v-.89l1.24.29-1.24.6h6.73l4.57-.92-6.41-1.2Zm-.89,4.25-4.28.6,1.23.64v-.32l1.4-.25-.19-.07Zm-1.65.67.32.13.09-.2Zm.32.13-.19.44,2.12.29Zm-4.76-.8v-.6l-3.05.6Zm-10.07-3.33,1.81.6,2.45.61Zm4.58,1.21-1.85.6,1.24.6,1.21-.6-.92.6,2.44-.6Zm7,0-1.24.92,1.53.28ZM300,527l-.32.28,1.84.32Z" transform="translate(0 0)"/>
      <path id="path3206" class="cls-4" d="M152.16,35.47l-1.84,1.83,1.52-.31L154,34.54Z" transform="translate(0 0)"/>
    </g>
    <path id="path6210" class="cls-5" d="M549.22,275C549.81,186,503.83,98.45,430.06,48.86,360.72.45,268.45-12.38,188.45,14.76,108.16,40.88,42.15,106.42,15.38,186.61-12.84,267.84.36,362.09,50.43,432.2c47.86,69.61,129.8,114.29,214.2,116.7,89.29,4.3,179-39.11,231.31-111.57A274.17,274.17,0,0,0,549.22,275Z" transform="translate(0 0)"/>
    <path id="path11943" class="cls-6" d="M543.46,334.33c-32.76,148.21-179.52,241.79-327.79,209S-26.23,363.84,6.54,215.63,186.06-26.16,334.33,6.61s241.9,179.51,209.13,327.72Z" transform="translate(0 0)"/>
    <g id="g6011">
      <path id="path6168" class="cls-7" d="M416.37,40C373.69,14.28,324.66,3.65,275,7.74" transform="translate(0 0)"/>
      <path id="path6170" class="cls-7" d="M325,5.3a112.28,112.28,0,0,0-50,2.44" transform="translate(0 0)"/>
      <path id="path6172" class="cls-7" d="M285.34,1c-4.71-.33-7.75,3.44-10.36,6.7" transform="translate(0 0)"/>
      <path id="path6174" class="cls-7" d="M252.13,1.64c8.47-.57,15.88,2,22.85,6.1" transform="translate(0 0)"/>
      <path id="path6176" class="cls-7" d="M202.76,10.48C225.61,4,251.26,3.31,275,7.74" transform="translate(0 0)"/>
      <path id="path6178" class="cls-7" d="M55,111.34C82.94,73.4,121.49,44.08,166.5,26A270.64,270.64,0,0,1,275,7.74" transform="translate(0 0)"/>
      <path id="path6180" class="cls-7" d="M133.59,509.91c-43-25.71-76.07-65.12-95.76-112.3-18.31-44-23.57-93.26-17-140.91C29.13,198.91,56.21,141.57,96,98.38a287,287,0,0,1,117.9-77.91A268.26,268.26,0,0,1,275,7.76" transform="translate(0 0)"/>
      <path id="path6182" class="cls-7" d="M225,544.65c-46.45-8.57-80.18-47.37-98.42-89-23.29-51.77-28.8-109.8-24.68-167.59,5.37-60.71,22.17-119.73,52.71-174,22.69-38,50.95-72.16,89.58-93.85A151.47,151.47,0,0,1,275,7.76" transform="translate(0 0)"/>
      <path id="path6184" class="cls-7" d="M264.62,548.91c-11-2.12-13.86-17-18-27.12-11.34-43.54-13.94-87.94-15.84-133.55a1600.54,1600.54,0,0,1,10-243.09C246.09,105.88,251.56,68,264,30.3c3.18-7.95,6-15.78,11-22.54" transform="translate(0 0)"/>
      <path id="path6186" class="cls-7" d="M297.83,548.3c22.86-2.59,36.62-25.14,45.71-44.79,14-32.48,20.18-66.43,24.07-102.1,6.6-64.06,3.38-130.51-6.4-193.16-9.2-53.92-22.44-107.63-47.84-155.4C303.59,36.06,292,18.33,275,7.76" transform="translate(0 0)"/>
      <path id="path6188" class="cls-7" d="M347.2,539.46c37.54-9.78,71.74-35.93,94.15-68.55,30.51-43.65,43.71-95.57,45.1-148.18,1.55-63-13.67-123.33-43.27-179.07C417.42,97.26,382.39,57,335.92,30.31,316.48,19.5,296.38,11.74,275,7.76" transform="translate(0 0)"/>
      <path id="path6190" class="cls-7" d="M495,438.6a253.72,253.72,0,0,0,50-139.55c3.28-55.4-11.53-109.06-40.23-156.62C474.3,93.29,430.14,54.91,376.45,30.91,344.06,17.19,310.3,9.06,275,7.76" transform="translate(0 0)"/>
      <path id="path6192" class="cls-7" d="M149.44,518.74c25.74,11.73,52.55,14,80.46,16.76,51,3.55,104.52,2.22,152.33-9.75,6-2.13,12.58-3.82,18.28-7" transform="translate(0 0)"/>
      <path id="path6196" class="cls-7" d="M39.74,415.75c11.42,15.31,31.19,20,48.45,25.9,45.25,12.19,91.16,16.77,138.68,19.2,66.95,3,135.46.25,199.23-11,25.78-5.69,55-10.64,77.4-26.82a30,30,0,0,0,5.79-5.79" transform="translate(0 0)"/>
      <path id="path6200" class="cls-7" d="M.74,275c1.69,15.27,18.17,22.12,30.47,28.34C65,317.12,98.74,322.66,134.2,328c68.92,8.89,140.81,10.46,211.46,6.7C396,331.05,446.12,326,493.44,312.15c18.4-5.9,39.19-11.92,52.1-27.12" transform="translate(0 0)"/>
      <path id="path6204" class="cls-7" d="M39.74,134.2c-7.37,12,5.73,22.52,15.54,27.42,27.66,14.25,58.82,19.23,88.36,24.37,67.26,9.39,138.22,11,207.2,6.1,41.78-3.73,81.33-8.18,121.58-21,13.29-4.85,27.54-9.78,36.87-21" transform="translate(0 0)"/>
      <path id="path6206" class="cls-7" d="M410.27,48.57C416,41.3,407.13,34,400.52,31.2" transform="translate(0 0)"/>
      <path id="path6208" class="cls-7" d="M149.44,31.2c-7.8,2.77-16,12-8.53,18.89,14.49,11.82,33.19,14.07,50,18,57.3,8.72,119.37,8.8,176.11-1.52,14.16-3.9,32.19-6.15,43.27-18" transform="translate(0 0)"/>
      <path id="path5927" class="cls-7" d="M510.09,134.39c3.51,5.71,2.37,11.09-.84,15.69" transform="translate(0 0)"/>
      <path id="path6009" class="cls-7" d="M549.41,274.86a21.78,21.78,0,0,1-3.95,10.29" transform="translate(0 0)"/>
    </g>
  </g>
</svg>
