<?xml version="1.0" encoding="UTF-8" standalone="no"?>
<!-- Generator: Adobe Illustrator 23.1.0, SVG Export Plug-In . SVG Version: 6.00 Build 0)  -->

<svg
   version="1.1"
   id="Layer_1"
   x="0px"
   y="0px"
   viewBox="0 0 550 550"
   style="enable-background:new 0 0 550 550;"
   xml:space="preserve"
   sodipodi:docname="Africa_(orthographic_projection)_blank.svg"
   inkscape:version="1.2.1 (9c6d41e410, 2022-07-14)"
   xmlns:inkscape="http://www.inkscape.org/namespaces/inkscape"
   xmlns:sodipodi="http://sodipodi.sourceforge.net/DTD/sodipodi-0.dtd"
   xmlns="http://www.w3.org/2000/svg"
   xmlns:svg="http://www.w3.org/2000/svg"><defs
   id="defs55272" /><sodipodi:namedview
   id="namedview55270"
   pagecolor="#ffffff"
   bordercolor="#000000"
   borderopacity="0.25"
   inkscape:showpageshadow="2"
   inkscape:pageopacity="0.0"
   inkscape:pagecheckerboard="0"
   inkscape:deskcolor="#d1d1d1"
   showgrid="false"
   inkscape:zoom="5.6568543"
   inkscape:cx="435.84294"
   inkscape:cy="215.31401"
   inkscape:window-width="1366"
   inkscape:window-height="705"
   inkscape:window-x="-8"
   inkscape:window-y="-8"
   inkscape:window-maximized="1"
   inkscape:current-layer="Layer_1" />
<style
   type="text/css"
   id="style55241">
	.st0{fill:none;stroke:#9999CC;stroke-width:1.5;}
	.st1{fill:#FFFFFF;}
	.st2{fill:#E0E0E0;stroke:#666666;stroke-width:0.6;}
	.st3{fill:#E0E0E0;}
	.st4{fill:#336633;}
	.st5{fill:none;stroke:#666666;stroke-width:0.6;}
	.st6{fill:none;stroke:#000000;stroke-width:0.3;stroke-opacity:0.5;}
	.st7{opacity:0.26;fill:url(#hemisphere-shadow_1_);enable-background:new    ;}
</style>
<g
   transform="translate(-1.8-502.3)"
   id="g55267">
	<path
   id="atmosphere"
   class="st0"
   d="M551,777.4c0.4-80-36.5-159.2-98.1-210.2c-61.3-51.8-146.3-74.6-225.2-59.4   c-84,14.4-159.2,71.1-196.5,147.8c-34.7,68.8-38.1,152.5-8.8,223.9c30.5,78,99.3,139.7,180.1,161.8c77.7,22.6,165.1,7.7,231.3-39   c66.6-45.8,110.7-122.8,116.4-203.5c0.7-6.5,0.9-13.2,0.9-19.8L551,777.4z" />
	<path
   id="hemisphere-seas"
   class="st1"
   d="M551,777.4c0.4-80-36.5-159.2-98.1-210.2c-61.3-51.8-146.3-74.6-225.2-59.4   c-84,14.4-159.2,71.1-196.5,147.8c-34.7,68.8-38.1,152.5-8.8,223.9c30.5,78,99.3,139.7,180.1,161.8c77.7,22.6,165.1,7.7,231.3-39   c66.6-45.8,110.7-122.8,116.4-203.5c0.7-6.5,0.9-13.2,0.9-19.8L551,777.4z" />
	<path
   id="hemisphere-lands"
   class="st2"
   d="M244.4,504.1l-1.2,0.3h0.6L244.4,504.1z M243.2,504.4H242l-0.5,0.3L243.2,504.4z    M248.7,504.1l-1.8,0.3h0.6l-1.5,0.3l0.3-0.3l-1,0.2l-0.2-0.2l-0.8,0.3h-0.1l-1.8,0.3l1.5-0.3l-3.7,0.6l0.6-0.3l1.5-0.3l-2.4,0.3   l-1.3,0.2l1-0.2l1.7-0.3h-1.7l-0.6,0.3h-0.6H238l-0.3,0.2l-0.3,0V505l-0.6,0.3h-0.1h-0.3h-0.9l-0.4,0.3l1-0.2l-1.1,0.2l0.1-0.1   l-0.3,0l-0.1,0h0h-0.3h-0.6l-1.2,0.3h-0.6l-1.5,0.3h0.3h0.6l1.8-0.3l1-0.2l-0.2,0.1v0h0l-0.4,0.1h0h-0.3l-0.1,0.1h0l-1.7,0.3   l-1.5,0.3l0.9-0.3l-1,0.2l0.4-0.2h-0.3l-1.8,0.3h0.3l-0.3,0.2l0.9-0.2h0.3l-1.4,0.3l0.2-0.1l-0.9,0.2h0.3l-1.4,0.3l0.5-0.3   l-1.5,0.3l-1.3,0.3h-0.3l-0.2,0.1l-1,0.2l-0.1,0L221,508h-0.6l-0.2,0.1l-2.5,0.5h0.3L217,509h-0.3l-0.3,0.3h-0.6l-1.8,0.3l-1.2,0.3   l-1.5,0.3l-0.6,0.3l1.5-0.3l-0.9,0.3l2.2-0.6l-0.6,0.3l-0.9,0.3l-4.9,1.8l-2.4,0.3h1.2l-5.2,1.5l-1.8,0.9h-0.6l-2.2,0.6l1.4-0.2h0   l0.4-0.1l-0.8,0.2l-0.1,0l-2.5,0.7v0.3l1.5-0.6h0h0.9l-2.1,0.6h1.2l-2.1,0.3l0.3,0.3h-0.3l-2.1,1.2l0.3-0.9l-1.2,0.3l-1.5,0.9h1.2   l-4,1.5h0.6l-1.4,0.3l-1.6,1l-0.6-0.3l-2.1,0.6l2.4-0.3l-1.5,0.3l-0.6,0.6l-2.9,0.6l2.3-0.6l-0.9,0.3l1.5-0.3l-0.6-0.6l-0.3,0.6   l-0.3-0.3l-2.5,1.1l-0.5,0.1l1.2,0.3l-2.4,0.3v0.6l-1.8,0.3l0.2,0.2l2.8-0.8v0.3l-4.3,1.2l-2.1,0.6l-1.1,0.8l-0.4,0.1h0.6l-1.8,0.9   l-1,0.3l-1.8,1.2l3-1.2l1.8-0.9l-2.4,1.8v-0.6l-0.3,0.3l-2.2,0.6h1.2l-1.5,0.3v0.3l-1.5,0.3l0.6,0.3l-1.2,0.3h0.6l-0.9,0.3l0.3,0.3   l-2.2,0.9l1.8-0.6l-2.7,1.2v0.3l-1.5,0.9l1.2-0.3l-1.8,0.6l1.5-0.3l-1.5,0.6h0.3l-0.9,0.3h0.9l-1.5,0.3h0.9l-1.5,1.2l4-0.9   l-2.8,1.2l1.8-0.6l-2.4,0.9l1.5-0.3l-1.2,0.9l1.2-0.6l-2.1,1.5l1.8-0.9l0.3,0.6l0.3-1.2h1.8V537l1.8-0.6h0.3v-0.6l1.5-0.3l-0.3-0.3   h1.5l-0.6-0.3l1.8-0.6l0.9-0.9l0.3,0.3l0.3-0.9l1.8-0.3l1.2-0.9v0.6l0.9-0.9l0.3,0.3v-0.3l1.5-0.3v-0.6l0.6,0.3l1.5-0.9l-0.6-0.3   h1.5l2.1-1.8l0.3,0.3l1.8-0.6l0.6-0.3l2.1-0.3l3.4-1.5l0.3,0.3l-1.1,0.4l-0.4,0.4l2.7-0.6l0.6-0.6l0.9,0.3l6.7-2.8l2.1-0.3l1.8-1.2   l-0.9,0.9h2.1l0.9-0.6v0.3l5.2-0.6l9.1-2.4h0.6l-3-0.6l-3.4,0.6l-0.6,0.3l-0.3-0.3H210l3.6-0.6h-1.5h-1.5l3.6-1.2l0.6,0.3l2.4-0.3   l-2.4-0.6h1.8l-0.3-0.6l2.1,0.9l-1.2,1.5l2.4-0.6l-1.2,0.6h1.2l0.6-0.9l1.8-0.6h-0.9l1.5-0.6l-1.8,0.3l1.8-0.6l-0.9-0.6l-1.8,0.6   l0.9-0.6h0.9h0.3v-0.6L220,515v-0.6l3.3-0.3H221l1.5-0.3v-0.3l0.3,0.3l2.1-0.3l0.3-0.6v0.6l1-0.2l0.5,0.5l2.7-0.3l1.2-0.3l-0.9-0.3   l-1.5,0.3l0.6-0.3l2.1-0.9l1.2,0.6l1.5-0.3h-0.9l-0.6-0.3l1.5-0.6h0.3l-0.6-0.3l1.2,0.3h0.3l1.8-0.6h-0.6l-1.2-0.3l2.4-0.3h-1.5   l0.6-0.6h2.8h1.5l1.2-0.6h-0.9l-0.6-0.3h1.2h0.9l-0.3-0.3H242l-1.8,0.3l1.5-0.6l3.7-0.6l4.6-0.9h-2.2h-0.6l0.9-0.3h0.6h0.9l0.1-0.1   l2.6-0.2h-2.4l4.3-0.3l3-0.6h-1.8l-2.1,0.3H252l-5.2,0.6l5.8-0.9l-4.6,0.3l2.7-0.3h-4.3l1.8-0.3h3l3.3-0.3H253l1.5-0.3l-5.5,0.3   l2.4-0.3l-3.4,0.3L248.7,504.1L248.7,504.1z M224.9,513.5l-1.8,0.3l2.4,0.3L224.9,513.5z M212.1,518.1l3.6-0.3l0.6-0.6L212.1,518.1   z M186.4,525.9l0.2-0.2l-0.3,0.2L186.4,525.9z M186.2,525.9l-1,0.4v0.3L186.2,525.9z M174.6,525l-0.3,0.1L174.6,525L174.6,525   L174.6,525z M174.3,525.1h-0.5l-0.2,0.2L174.3,525.1z M173.5,525.3l-1.3,0.4L173.5,525.3L173.5,525.3z M317.8,505.3l4,0.9l1.5,0.3   l-0.3-0.3l-2.2-0.3L317.8,505.3z M323.3,506.5h-0.9l1.8,0.3h0.3l-0.9-0.3H323.3z M300.8,505.6l-0.6,0.6l1.8-0.3L300.8,505.6z    M307.8,505.6l-0.9,0.3h-0.3l1.5,0.3L307.8,505.6z M278.9,505.9v0.3h-1.5l0.9,0.6l1.2-0.3h1.5l-1.5,0.3l3.3,0.3l2.4-0.6l-2.1-0.3   h-1.2l-0.3-0.3l-0.3,0.6l-1.8-0.3v0h-0.3L278.9,505.9L278.9,505.9z M323.3,506.2l1.8,0.6l3.3,0.6h0.9l-0.9-0.3h-0.4l-1.3-0.3   l-0.1,0h-0.1l-1.5-0.3l-1.5-0.3l0.9,0.3L323.3,506.2L323.3,506.2z M274.3,506.5l-3,0.3l1.8,1.2l2.1-0.6v0.3l1.2-0.3l-1.5-0.9   l-0.6,0.6l-1.5-0.3L274.3,506.5z M276.4,507.4l0.9,0.3l-4,0.6l0.3,0.3l3-0.3l-2.1,0.3l1.2,0.3l-2.2-0.3l3,1.2l2.2-2.1h0.9l1.2-0.3   l-1.5-0.3l-1.5-0.3l-0.6,0.3l-0.9-0.6L276.4,507.4z M279.7,507.7l0.9,0.3l0.6-0.3H279.7z M280.7,508l0.3,0.9l1.5-0.3l0.3,0.3   l1.2-0.3l-1.5-0.6H280.7z M327.3,506.8l1.8,0.4l0.2,0l4.4,1l-2.2-0.6l-1.5-0.3L327.3,506.8L327.3,506.8z M335.2,508.7l5.5,1.2h-0.3   l1.1,0.3h-0.2l0.6,0.1l0.6,0.2l-1.2-0.3H341l0.9,0.3l1.2,0.9l2.1,0.6l-1.5-0.3l5.2,1.5l-2.4,0.3l4.9,1.5l3.6,0.9h-0.6l-1.4-0.2   l-0.1-0.1h-0.6l-2.4-0.6v0.3l1.8,0.6H350l-4.8-1.5l2.8,0.9l1.5,1.2l4,1.2l2.1,0.9l2.7,1.5l1.8-0.3l2.7,0.6l3,1.2l1.2,0.9l2.1,0.6   l-2.4-0.6l-5.2-2.1l-0.9,0.3l4,1.8l2.7,3l-4.9-0.9l2.1-0.6l-3.6-2.7l-3-0.9l-3.7-1.8l-3.3-1.2l-3-0.9l-3.6-1.8l-1.8-0.3h-1.8   l3.7,1.8l0.3,0.9l3.6,1.5l1.8,0.9h1.2l3.4,0.9l1.8,1.5l-6.7-1.8h1.2l-8.9-1.2v0.6l3.7,1.2h-1.2l0.3,0.3l0.6,0.6l-3-1.2l-0.9,0.6   h-2.7l0.6,0.9h-1.2L337,523l5.2,4h3.4l-3.4,0.3l-5.5-4.3l1.5-0.9H337l-1.2-1.2l0.9-0.3h-0.9l-0.3,1.2l-0.9-0.6l-3.9,1.2l1.5,0.6   h-1.8l1.2,1.2l-2.4,0.3l-3-1.2l1.8-0.6l-0.9-0.6l-6.1-0.9l2.2,0.6l4.6,4.3l-4.3-0.9l-1.8,0.9l-0.6,0.6l-0.3,0.3l1.2,0.9l1.8,1.2   l-0.9-0.3l-3.4-0.3l-0.6,0.3l0.3-0.6l-3.4-0.6v0.9l3.6,0.9l-0.6,1.2l-6.1-1.5l-2.1-1.8l0.6-0.9l-4-0.9l0.9-0.3l-4-1.2l14.3,1.8   l0.9-0.6l1.2-1.2l-3.6-1.5l-0.6-0.3l-9.1-2.1h-2.7l-0.3,0.9v-0.9H302l-0.6-0.6h1.8l-2.2-0.3l-0.9,0.6l-1.8-0.6l-0.9,0.3l-1.5-0.6   l-0.6-0.3l2.7,0.3l0.9-0.6l-3.6-0.6l-1.2,0.6l0.6-0.9l-1.5-0.3l-0.3,1.2h-0.9l-0.3-0.9l-1.5,1.5l0.6-1.2l-2.1-0.3l-1.2,1.5h-0.3   l-3-0.3l0.6,0.3l0.6,0.6l-1.5-0.6l-1.8,1.2h-0.3l0.3-0.3l0.3-0.9l-0.6,0.6l-0.3,0.6V519l-1.2,0.3l0.9,0.9l-2.4-0.6l-0.6,1.5   l-2.1,0.3h-0.3l0.3,1.2l-0.9-0.9l-1.2,0.3l0.9,0.3h-1.8l1.8,0.6l-2.7,0.6l2.1,0.3l-4,0.3l0.9,0.3l-1.7,1.1l-1,0.1l0.9,0.6l-0.9-0.3   l-1.5,1.5l1.8-0.3l-3.3,0.9h1.8l-1.8,0.3l0.9,0.6l-1.5,0.3l-0.3-0.6l-3.4,2.1h0.3h1.5l2.1-1.2l-1.2,1.5l-2.4,0.3v-0.6l-2.8,0.3v1.5   l-1.5-0.6l1.2,0.9l-1.5-0.3L253,533l0.9,0.6l-0.6,0.6l-1.2-0.3l0.6,0.3l-2.4-0.3v0.6l-0.6,0.9h1.5l-1.8,0.3h1.5l-1.2,0.6l3-0.3   l0.6-0.3l1.2,0.6l0.6-0.9l0.3,0.6l-1.8,0.9l-0.6-0.6l-4,0.3l1.2,0.3h-1.5l0.6,0.6l1.2-0.3l-1.8,0.9l0.6,0.6l0.9-0.6l-0.9,1.2   l4.3-1.5l-5.5,2.1l0.9,0.9l2.4-0.9l-2.2,1.2h1.8l-0.9,0.6l-1.5-0.6l-0.3,1.2l3,1.5l3-0.3l3.6-2.4h2.1l1.2-2.1l0.6,3.9l1.2-0.3   l-0.6,1.2l1.2-0.9l-0.9,1.5l2.8,3l-1.2,0.6l0.6,2.4h3.6l1.5-1.8h3l2.4-3.4l-0.6-2.7h1.2l-1.8-0.3l3.4-0.6l0.3-0.9l0.6,0.9l1.8-1.2   l-1.5-0.3l2.4-0.6l-2.7-2.1l-1.8-0.3l1.2-5.2l0.9,0.6l4-1.8l1.2-0.3l1.8-1.5l-1.2-1.8l1.2,0.3l-0.3-1.2l1.5,0.6l0.3-0.9l3.6,0.3   l2.4,1.5l-8.2,4.9l2.1,2.7l-0.6,2.2l2.7,0.9l1.2-0.3l-0.3,1.2l12.8-2.1l0.3,0.9l4.6,0.9l-5.2,0.3l-0.3,0.9l-5.5-0.6l-4.9,1.2   l0.9,2.1h2.2v2.8l-1.8,0.9l-3-2.2l-2.1,0.3l-1.5,2.7l1.2,4.3h-2.1l1.2-2.1l-1.2,1.8l-1.5,0.3v0.6v0.3h0.3h0.9l-0.9,0.3l-1.8,0.9   l1.2-1.2l-2.7,0.9l-2.4-1.5l-9.1,2.4l-0.3,1.2l-4.3-2.4l-6.1,1.2l0.9-1.2l-2.7,0.3l-1.8-1.5l0.9-2.1l4-2.1l-2.2-0.6l1.8-2.8   l-5.5,1.5l-2.1,6.4l0.9-0.3l0.9,1.2l-1.5,0.3l3,2.2l-3-0.9l-0.6,1.5l-1.2-0.9l-2.7,0.3l0.9,0.9l-4.3-0.3l-1.8,0.9l0.9,1.2l-1.8,0.9   l-0.9-1.8l-2.8,2.8l1.5,0.9l-3.6,0.3l2.1,0.6l-8.2,1.5l-0.3,2.1l-1.2,0.6l-4.6,2.1l-5.5-1.5l0.6,3.6l-4.3,0.3l-0.6-1.2l-5.5,1.2   l1.5,0.9l-1.5-0.3l0.3,1.5l5.5,1.2l0.6,3l2.1,0.6l-1.2,2.2l0.3,0.6l-4,7h-17.4l-1.5-1.2l-6.1,2.8l1.2,2.4l-4,7.9l-4,4.9l2.1-0.6   l-1.8,2.2h1.2l-2.1,5.2l7.6-0.9l3,4.9l4.9-2.8h8.3l3.3-3l2.8-0.3l1.2-2.8l2.1-0.9l0.9-0.6l-0.6-0.6l-0.6-0.9l0.6-2.1l1.2-1.2l4-3.7   l8.5-3V590l1.5-1.5l2.7-0.9l6.7,1.8l9.8-4.9l4.6,1.5l2.4,5.5l16.2,8.5l1.8,4.6l-2.1,3l1.5,0.3l2.1-3.3l2.1-0.9l-2.4-2.4l1.2-2.7   l3.6,0.6l1.8,1.8l0.6-1.2l-9.1-4.9l0.6-1.5l-4.9-0.6l-4-5.2l-3.9-2.1l-0.6-4.3l4.9-1.2l0.9,3.4l2.4-1.8l4.6,6.4l3.3,0.3l2.8,1.8   l-2.4-0.6l6.1,1.8l3,2.4l-0.9,5.2l2.7,2.4l2.8,2.7l1.5-0.3l-1.5,0.9l1.5,1.8l7.9,0.6l-0.9,0.9l-5.8-1.2l-0.9,1.5l2.4,4l1.5-0.9   l1.5,2.4l0.3-1.5l2.4,1.5l-2.2-4.3l3,0.3l-2.1-1.5l1.8-0.6l2.1,1.2v-1.8l-6.1-2.4l1.8-0.6l-0.3-1.5l1.5,0.9l-3.4-4.9l1.2-0.6l4,2.4   l-0.9-1.5l2.4,0.9l-2.4-2.1l4.9-0.9l6.1,1.2l-1.8,2.2l4.3-3.4h5.2l-5.5-5.2h-1.2l3.6-3.6v-5.2l0.6,0.9l1.8-0.6l-0.6-3l0.6,0.6   l2.1-1.5l0.3-1.5l3.6-1.2l1.8,1.2l-3-0.3l1.8,0.6l-0.6,0.6l5.8,0.3l0.6,1.2l-3.4,1.2h2.1l1.5,2.8l2.2,0.9l7.6-3.4h-3.7l-3-2.7l3,3   l-1.8-0.3l-2.1-1.8l1.5-2.1v1.5l2.1-1.8l9.7-2.2l-1.5,2.2l-2.7-0.3l3.6,2.1l-1.2-0.6l-1.2,3l-2.7,0.6l12.8,5.8l5.5,2.4l2.4,3.4   l-0.6,1.5l-3.3,1.8h-0.6H352l-7-1.2l-5.8-3l-5.5,0.3l-6.7,3.3l-7.3-0.6l0.6,1.5l2.8,0.3l-3.7,0.3l0.3,0.9h-7.9l-1.8,1.8l-0.3,1.5   l3.4-0.3l-0.6,3.4l1.8,0.9l-1.8,0.3l-0.9-1.2l-0.6,1.5l3.9,0.9l-0.9,1.2l2.7,1.5l-1.2,1.2l3.9-0.3l-3.3,1.5l4-0.9l4.9,2.7h2.8   l0.3-2.7h2.1l6.7,3.4l4.3-0.9l1.8-2.1l2.7,0.9l2.7-0.9l-0.3,4.6l1.8,4.3l-4.3,12.8l-8.2,1.2l-0.9-1.8l-3.6-0.3l-7.3,3l-8.5-2.4   l-7.3-0.3l-1.2-1.8l-6.7-0.9l-0.9-1.8l-5.5-1.2l-6.4,3v5.5h-0.3l-4.3,2.2l-4.6-2.4l-8.5-2.1l-2.2-4l-7.3-2.1l-4.3,0.3l-8.3-3.6   l-0.6-1.8l4.9-3.9l-2.4-3.7l2.4-3.6l-2.4,1.5l-2.4-2.4l-7,2.2l-5.5-1.2l-4.3,1.8l-5.2-1.2l-11,1.8l-4.6,2.4l-3.3,0.6l-4.6,2.4h-3   l-0.3-1.5l-6.4,0.9l-2.2-2.8l-1.8,0.6l-4.9,7L174,629l-3.3,4.6l-0.9,5.5l-0.3,0.3l-2.4,3l-6.1,4.3l-5.5,1.2l-4,5.5l-3.6,2.1l-3,6.4   l-4.2,3.4l-6.4,9.4l-1.5,4.3l0.9-1.5l1.8,4.3l-2.1,4l0.6,7.3l-3.6,9.4l-4.3,4.3l3.4,3.9l-0.3,2.4l3.7-0.6l-3,1.2l-1.2-0.9l-0.9,3.9   h2.2l-2.2,0.9l3,0.3l-1.5,1.2l1.8,0.3l-0.6,1.2l4.3-1.2l-2.4,0.9l1.8,0.9l-2.1,1.2l0.9,1.5l1.2-0.6l-0.6,1.2l1.5-0.9l0.6,4.3   l1.8,0.9l1.8,0.9l-0.9,1.5l1.5,0.6l0.3,4l1.5-0.3l-2.1,0.6l3.3,3.3l-0.3,1.8l5.2,2.7l10.1,9.5l5.2,2.1l6.1-3l9.5-1.2l8.8,2.4   l9.1-4.3l6.4-2.4l11.3-2.4l-1.8,1.2l4.6,0.3l3,2.7l1.5-0.9l-1.5,1.2l2.1,0.3l-1.5,0.3l0.6,0.9l1.5-0.9l-1.5,1.8l3,4.3l3.3-0.3v-1.2   l0.6,1.2l-0.3-1.5l0.9,1.5l0.6-1.8l1.2,1.2l4.3-0.3l-0.3-1.8l1.5,2.1l1.5-1.2l1.5,3.6l2.4-0.6l0.6,1.2h-1.2l1.8,3.6l-3,9.1l1.8,0.3   l-0.3,3l-1.5-0.3l3,1.5l-2.1,0.6l-0.9-1.2l-0.9,4.9h-2.1l4.6,8.2l10.1,9.7l2.1,6.1l2.4,1.2l-2.1,0.6l5.5,10.9l-1.8,3l2.1,4.3   l2.1,4.9l-0.9,5.8l-5.2,5.5l-3.3,11.3l0.6,9.7l12.5,20.4l2.1,16.4l9.7,15.6l4.3,7l0.3,3.3l-1.8,1.2l2.2,5.8l1.5-0.9l4.6,3l10.3-3.3   l8.8,0.9l8.9-2.4l13.1-9.1l4.3-5.5l1.8-2.1l4.9-4l4-10.3l-0.6,0.9l-1.2-1.5l13.4-7.9l1.2-8.5l-2.7-7.3l0.3-4l0.9,0.9l6.7-4.6   l2.8-4.6l13.7-6.4l0.6-1.2l4.3-6.1l-0.9-8.9l0.9-0.9l-0.6-6.7l1.5-3l-2.7-2.1l-1.2-0.9V824l-1.2-7.9l0.9-2.1h-1.2l1.8-4l-3.4-4.6   l2.2-6.4l3.6-7.6l0.9-1.8l3.6-2.1l-0.9-1.5h2.4l9.7-12.8l10.3-8.2l7.6-9.7l10.1-23.5v-2.8l-0.3-1.5l2.1-0.6h-1.5l0.3-6.4l-2.1-0.9   l-4.9,3l-8.3,0.9l-3.6,2.1l-2.7-0.9l-4.9,2.4l-6.4-5.8l-2.8,0.3l3.6-2.1l-0.6-2.1l-10.1-10.1l-4.3-1.5l-0.9-1.5l-0.9-0.9l-0.3,1.8   l-6.4-13.7l-5.5-3.7l-2.4-10.3l0.9,0.6l-2.4-4.6l-5.5-4l-1.5-4.3h1.2l-3-2.4l-8.2-14.3l-4.6-4.9l-1.2-3.9l3.9,5.8l4.6,3.4l2.5-7.6   l-1.6,6.1l2.8,0.3l10,12.2l1.5,3.6l4.6,2.4l3.7,6.1l1.2,5.8l3.6,3l3.6,3l9.8,13.7l0.6,7l4.9,11.9l6.4-0.3l2.1-3l11.9-3l2.1-2.7   l10.3-4.6l0.6-4l8.9-2.4l0.6-3.6l3.4-0.6l0.6-3.6l3.3-1.2l-1.2-5.5l0.9-1.8l1.2,0.9l2.1-7.9l-5.2-5.8l-5.5-1.8l-2.7-2.4L433,658   l-0.3-3l-5.5,9.4l-5.2-0.3l-1.5,1.2l-3.4-1.5l-0.9-7l-2.1-0.3l0.6,5.5l-4.3-5.5v-2.8l-5.8-4.3l-4.9-7.3h-1.5l1.5-0.9l-1.2-1.8   l-0.3-0.3l3.3,0.3l-0.3-1.5l2.7,1.5l1.8-0.6l0.6,0.6l6.7,8.8l4,1.2l5.8,4l4,0.9l5.2-3l4,6.1l9.5,1.8l5.8,1.5l13.1-2.7l1.8,3.3   l1.8,0.3l1.8,3.6h0.6l-0.4-5.6l-0.2-1.7l-3.6-5.8l3.6,5.5l0.2,2l0.4,4.7l0.9,0.9h0.9l0.3,1.5l0.9-1.2l-0.3,1.5l3,3l3-0.6v1.8   l-3,1.2l7.3,7l2.7-2.1l-1.2-5.2l1.5,0.3l-0.6,1.2l0.6,1.5h0.9l-0.3,1.5l1.8,2.4l0.3,4.3l6.7,17.1l10.7,22.9l1.8,5.5l1.5,5.2   l2.7,3.9l1.2-1.5v-3l1.8-1.2l-0.6-0.9v-2.4l0.3-1.2l1.2-0.3l-1.5-6.4v-3.6v-4l-2.7-8.2v-0.3v-2.4l1.2-0.3v-2.4l1.8-1.2L515,696   l1.5-5.8v-4.9l1.5-2.4l-0.3-3.4l-1.2-2.7l0.9-1.8l-0.6-2.1l1.5,2.7l-0.3-2.1l1.2,2.1l-0.6-2.1l0.6,1.5v-1.5l0.6,0.9l-0.6-2.4   l1.2,2.8l-0.9-3.7l1.2,2.8v-0.6l-1.2-2.8h0.9l5.8,11.3l-0.3-1.5l0.6,1.8l1.2,0.9l1.2,2.7l3,8.2l1.8,7.3v-1.5l0.3,2.1v-1.2l0.9,1.5   l-0.3-1.8l0.6,1.8l-0.3-2.4l0.3-0.6l-0.6-1.8l0.6,1.5v-1.5l-1.2-3.4l1.8,4.6l0.3-0.3l2.1,7.9l1.8,6.1l-0.3-1.8l1.5,5.2l0.9,4.6   l0.3,0.9l0.6,4.6l0.6,3.3v-1.5l0.3,1.5l0.9,8.5l0.3-0.9l1.5,6.7v0l0,0.1l0.3,1.1v0.6l1.2,10.7l0.9,7l1.2,7.6v-1.8l0.3,1.5l-0.6-7   l-0.6-8.3l-0.3-3.9l-1.5-7l-0.6-1.5l-1.2-7.6l-0.6-2.4h-0.3l-0.6-3.4l-0.3-1.8l-1.2-8.2v-0.3v-0.3l-0.1-0.3v0l-0.2-1.2l-0.9-3.3   l0.3-0.9l0.9,4l0.3-0.3l0.9,2.4l1.3,5.2l0.5,2.7v-0.9l0.9,3.3l-0.6-2.7l-0.8-4.3l0.8,3.6l-1.5-7.6l-0.7-2.8l-2.4-9.1l-0.2-1.5   l-0.2-0.8l-0.4-1.3l-1.2-3.8l0.4,1.2l-0.5-2.5l-0.3-0.3l-3-9.4l-1.5-4.3l-0.6-1.8l-0.6-2.1v0.3l-0.3-0.9l-0.9-2.4l0.3,0.9l-0.6-1.5   l-0.2-0.5l0,0.2l-0.4-0.9l0.2,0.2l0.1,0.1l-0.3-0.6l-0.9-2.2l-0.1-0.3l0.3,0.6l-1.3-2.8l-0.2-0.5l0.1,0.3l0.1,0.3l0,0.2l0,0.1   l0,0.1l0.1,0.2l0.8,1.9l-0.6-1.2l-0.6-1.5l0.2,0.4l-0.5-1.4l-0.6-1.2l-0.6-1.8l-0.9-1.5l0.6,0.9l-1.2-2.8l-0.6-0.9v-0.3l-0.9-1.5   l-0.6-1.8v0.3l-0.9-1.8l0.6,0.9l-1.5-3l-0.9-1.5v-0.3l-0.9-1.5l-0.6-1.2l-0.3-0.3l-1.2-2.4l-0.3-0.3v-0.6l-0.9-1.8l-0.3-0.3   l-0.9-1.8l0.6,1.5l-0.9-1.5l-0.6-1.1l0.6,0.9l-1.2-2.4l-0.3-0.3v0l-0.1-0.1l-0.2-0.5l-0.3-0.4v-0.2h-0.1l-0.8-1.2l0.4,0.7l-0.4-0.4   V636v-0.3l-0.3-0.3l-0.3-0.6l-0.3-0.3l-0.3-0.6l-0.3-0.3l-0.6-1.2l-0.3-0.3l-0.3-0.6l-0.1-0.1l-1.7-2.9l-0.3-0.3v0l-0.3-0.6   l-0.3-0.3l-0.3-0.6l-0.6-0.6l-0.3-0.6l-0.3-0.3l-0.6-1.2l-0.3-0.3l-0.6-1.2l-0.6-0.3l-0.6-1.2l-0.3-0.3l-0.6-1.2l-0.6-0.3L501,618   l-0.9-1.2l-2.4-3l-0.3-0.6l-0.3-0.3l-0.6-1.2l-0.6-0.3l-0.3-0.6l-0.3-0.3l-0.3-0.6l-0.9-0.9l-0.3-0.6l-0.9-0.9l-0.3-0.6l-1.8-2.2   v-0.3l-2.2-2.4l-0.9-0.9l-2.8-3.3l-0.6-0.6l-0.3-0.6l-0.9-0.9l-0.3-0.6l-0.6-0.3l-0.3-0.6l-0.6-0.6l-0.3-0.6l-0.6-0.3l-0.3-0.6   l-0.6-0.3l-0.3-0.6l-0.6-0.6l-0.6-0.3l-0.3-0.6l-1.5-1.5l-0.3-0.6l-0.6-0.3l-0.3-0.6l-0.6-0.3l-0.3-0.6l-0.6-0.6l-0.6-0.3l-0.3-0.6   l-0.6-0.3l-0.3-0.6l-1.5-1.5l-0.6-0.3l-0.3-0.6l-1.5-1.5l-0.6-0.3l-0.3-0.6l-0.6-0.3l-2.4-2.4l-0.6-0.3l-0.3-0.6l-0.6-0.3l-1.5-1.5   l-0.6-0.3l-0.3-0.6l-0.6-0.3l-1.5-1.5l-0.6-0.3l-0.3-0.6l-0.6-0.3l-1.5-1.5l-1.2-0.6h0.3l-0.3-0.3H453l-0.2-0.3l-0.3-0.1v-0.2h-0.3   l-0.9-0.9l-0.3-0.3v0l-0.3-0.3l-1.2-0.6l-0.3-0.6l-0.6-0.3l-0.9-0.9l-0.6-0.3l0.6,0.6l-0.9-0.6l-0.6-0.6l-0.3-0.3l-1-0.8l0.8,0.6   l-0.7-0.7l-0.6-0.3l0.3,0.3l-1.5-1.2l-1.2-1l-0.4-0.3l-0.5-0.3l-0.1-0.1l-0.3-0.2l-0.3-0.3l-0.8-0.5l1.8,1.5l-2.1-1.5l-0.6-0.3h0.3   l-0.8-0.5l-1-0.7l0.3,0.3l-3.4-2.5l-3.9-2.7l-0.4-0.2v0.3l1.6,1.1l-1.9-1.1l-0.3-0.6l0.6,0.3v0l0.4,0.3l1.1,0.7l-0.6-0.6l-1.8-0.9   l-0.3-0.6l-2.4-1.2l-0.6-0.6l-0.6-0.3l-0.3-0.3l-1.2-0.6l-0.6-0.6l-2.4-1.2l-0.9-0.9l-2.4-1.2l-0.2-0.1l0,0l-1.6-0.8l-0.3-0.3   l1.9,1.1l-2-1.2l-0.5-0.5l-2.5-1.3l-1.4-0.9l0.8,0.5l-0.5-0.3l-1.2-0.6l-0.3-0.3l-1.8-0.9l-0.3-0.3l-1.8-0.9l-0.3-0.3l-1.2-0.6   h-0.6l-0.3-0.3l-2.4-1.2l-0.3-0.3l-1.8-0.9h-0.3l-1.2-0.6l-4.3-2.1h-0.6l-0.6-0.3l-0.3-0.3l-3.6-1.8h-0.6l-3-1.5h-0.6l-2.4-1.2   h-0.6l-2.4-1.2h-0.6l-2.4-1.2h-0.6l-1.8-0.9h-0.6l-1.2-0.6h-0.6v-0.3h-0.6l-1.2-0.6h-0.6l-1.2-0.6h-0.6l-1.2-0.6h-0.3h-0.3   l-0.2-0.1l0.4,0.1l-0.8-0.3l-0.2-0.1l-0.2-0.1l-0.6-0.2l-0.7-0.3h-0.3l-1-0.3l-0.5-0.3H359H359h-0.3l-0.6-0.3h-0.4l0.7,0.3   l-0.8-0.3h-0.1l-0.3-0.2l-1.2-0.4h0h-0.3l-0.8-0.3l1,0.3l-1.4-0.4l0.2,0.1l-1.2-0.3l-1.2-0.3l1.5,0.3l-0.3-0.1l0.4,0.1l-0.2-0.1   l-0.6-0.2l-0.9-0.3l0.2,0.2l-5.9-1.7l-2.8-0.6l-2.3-0.5l-0.1-0.1h-0.2l-1.4-0.3l-0.6-0.3h-0.9l-1.2-0.3L335.2,508.7L335.2,508.7z    M353.8,513.2l0.1,0.1h0.1L353.8,513.2z M354,513.2h-0.2l0.7,0.2L354,513.2z M355.9,513.8l-1.5-0.6h-0.3L355.9,513.8z M357.1,514.3   l0.4,0.2h0.1l-1.4-0.6L357.1,514.3L357.1,514.3z M431.2,549.8l2.7,2.1l4.1,2.9l1.3,0.8l-0.8-0.5l-2.5-1.9l-0.5-0.3l-0.1-0.2l-1.4-1   l-0.7-0.3l-0.5-0.5l-0.1-0.1l-0.1,0l-0.5-0.3l-0.3-0.3L431.2,549.8z M440.3,556.1l0.5,0.3l-0.2-0.3l-0.6-0.3L440.3,556.1z    M441.9,557.3l0.6,0.3l-0.3-0.3l-0.4-0.3L441.9,557.3z M531.7,674.7l0.1,0.3l0.5,1.3L531.7,674.7z M531.8,675l-0.2-0.3l0.2,0.5   L531.8,675L531.8,675z M544.1,715.2l0.5,1.8l-0.1-0.6l-0.9-3.6L544.1,715.2z M546.3,725.6l0.3,1.8h0.3l-0.3-1.2v0.9L546.3,725.6z    M547,728.9v-0.6l-0.3-0.7L547,728.9z M547,728.9l0.8,5l-0.2-2.3L547,728.9z M547.8,734l0.1,0.8v-0.3L547.8,734z M529,685.7h-0.6   l1.2,2.1L529,685.7z M140.6,665.3l0.3-0.4l-0.9,0.9L140.6,665.3z M256.7,532.8l0.5,0l-2.4-0.3L256.7,532.8L256.7,532.8z    M325.4,509.3l-0.6,0.9h-2.7v0.3l-1.2,0.9l2.4,0.6l-0.6,0.6l0.3,0l-0.6,0.6h2.8l-0.9,0.6h0.9h2.1l-1.8-0.6l1.5,0.3l-1.5-0.6   l1.5,0.3l-1.5-0.6l1.2,0.3l-1.8-0.6h1.5l-0.3-0.3l-0.6-0.9l2.4-0.9L325.4,509.3L325.4,509.3z M325.2,513.8l-1.5,0.3l1.2,0.3   l-0.9,0.3h1.8l-0.6,1.2l1.5,0.6l1.8-0.3l2.8,1.2l4.6,0.3l-6.4-1.8l-1.8-1.2l-0.3-0.6L325.2,513.8z M237.1,511.1l-1.8,0.6h1.5   L237.1,511.1z M347.4,511.4l1.2,0.3l1.5,0.6h0.3l0.6,0.3l1.8,0.6l-2.7-0.9h-0.6l-0.3-0.3h-0.3L347.4,511.4z M231.3,512.3l-1.2,0.3   h1.5L231.3,512.3z M226.4,513.2l1.5,0.3l-1.7-0.3L226.4,513.2L226.4,513.2z M340.4,513.5l-0.9,0.3l1.2,0.3h0.6L340.4,513.5z    M225.8,514.1l-1.8,0.3h-0.9l-0.6,0.6l1.2,0.3l0.8-0.8l1.3,0.2L225.8,514.1z M196,514.4l-1,0.4l0.1-0.1l-0.9,0.3h0.2l-0.5,0.2   l0.8-0.2L196,514.4L196,514.4z M193.8,515l-0.9,0.3h-0.1l-0.2,0.1l-1.3,0.5l0.9-0.3l-0.6,0.3l0.9-0.3l0.9-0.3h-0.3L193.8,515   L193.8,515z M193.2,515.4l0.5-0.1l0.3-0.2L193.2,515.4z M191.7,516h-0.3h-0.3l-0.7,0.3h-0.3l-0.7,0.3h-0.2l-1.1,0.6h0.1l0.8-0.3   l0.9-0.3h-0.1l0.2-0.1l-0.1,0.1l0.9-0.3L191.7,516L191.7,516z M360.1,515.2l0.6,0.2h-0.2L360.1,515.2z M350.8,516.2l4.8,1.3   l-2.8-0.6L350.8,516.2z M356.6,516.4l2.1,0.8l4.3,1.5l1.2,0.6l0.6-0.3l2.1,0.6l-2.7-0.3l-1.5-0.6l-1.2-0.3l-2.7-1.2l0.9,0.6   L356.6,516.4z M187.4,517.2l-0.8,0.4l1.4-0.4H187.4z M187.4,517.5l-1.4,0.4l-0.2,0.1L187.4,517.5z M185.8,518l-1.4,0.4l-0.6,0.2v0   l-0.3,0.1h0.3l1.2-0.3l-0.9,0.2l1.5-0.5L185.8,518z M183.5,518.7l-1.5,0.6l-2.1,0.6l-2.2,0.9l1.2-0.3l-2.1,0.6h0.6l0.6-0.3h0.3   l1-0.4l0.8-0.2l1.2-0.6l1.2-0.3L183.5,518.7z M183.5,518.7l0.3-0.1v0L183.5,518.7L183.5,518.7z M183.8,518.6l0.4-0.2h-0.4V518.6z    M184.2,518.4h0.2l0.6-0.3l0.1,0l0.7-0.2h0.1l-0.6,0.3l0.7-0.2l0.2-0.1H186l0.2-0.1l-0.2,0l0,0h0h-0.3L184.2,518.4L184.2,518.4z    M177.4,521.1l-3.4,1.2l-4.6,1.8l-0.6,0.3l-0.3,0.3h0.3l-2,0.9l0.5-0.3l1.2-0.6v-0.3l-2.4,1.2v0.3l-0.9,0.3l-3,1.8l4.6-2.1   l-1.2,0.9l2.2-1.2l-0.3,0.3l1.2-0.6h0.3l1.2-0.6h0.6l1.1-0.8l1-0.4l-2.1,0.6l1.5-0.6l0.3-0.3l1.8-0.5l1-0.4l-1.8,0.6l1.5-0.6   l-0.9,0.3l-0.9,0.3l2.2-0.9l-0.6,0.3l1.5-0.6h-0.3l0.9-0.3L177.4,521.1z M174.6,522.4l-0.6,0.3l1.5-0.6L174.6,522.4z M166.1,525.7   l-3,1.2l-0.9,0.6l-2.4,1.2l-0.6,0.3h-0.2h-0.1h-0.1l-0.3,0.2l-1.2,0.4l-1.2,0.6l-0.9,0.6l-0.6,0.3l-1.5,0.6l-4,2.8l6.6-3.7l0.7-0.2   l-4.3,2.4l2.7-1.5l4.9-2.4l1.3-0.8l-0.7,0.4l1-0.6l2.4-1.1L166.1,525.7z M163.7,527l-0.3,0.2l1.2-0.6L163.7,527z M158.8,529.1   l0.6-0.3l1.1-0.6l-2,0.9H158.8z M337.9,518.1l1.2,0.6l2.4,0.6V519l-0.6-0.3h-0.3L337.9,518.1z M188.7,518.4l-0.9,0.3l-1.5,0.6   l0.6,0.3l-1.5,0.3l2.2-0.3l1.5-0.9l0.6-0.3H188.7z M365.4,518.7h0.3l2.4,0.9l-2.4-0.6L365.4,518.7z M277.6,519.6l-1.2,0.9l1.8-0.9   H277.6z M296.5,519.6l-0.3,1.2l-2.1-0.3L296.5,519.6z M327.9,519.6l-0.3,0.6l1.8,0.6l0.9-0.6L327.9,519.6z M368.4,519.6l1.5,0.3   H369L368.4,519.6z M273.6,520.5l-1.5,0.6h0.9L273.6,520.5z M274.3,520.5l-1.2,1.2l3-0.9l-1.5,0.3L274.3,520.5z M373.3,521.5h1.2   l-0.3,0.3L373.3,521.5z M305,521.7l1.2,1.2l-1.2,0.3V521.7z M292.8,522.1h3.4l-0.6,0.6L292.8,522.1z M171.6,524l-0.3,0.2l-0.9,0.3   L171.6,524z M361.7,524.5l0.3,0.6l-2.4-0.3L361.7,524.5z M217,524.8l-1.8,0.9h-2.4l-0.9,0.9l0.3-0.9l-2.4,0.9l-0.3-0.6l-0.3-0.3   l-3.3,1.8l1.8-1.5l-1.5-0.9l-0.6,1.2l-0.6-0.6l-0.9,0.9l-0.9-0.3l-0.3,0.6h2.7l-2.1,0.6l0.9,0.3l-4,0.3l3,1.2l-4,1.2l3-0.3l1.2,0.3   l1.2,0.6l4.3-0.6l4.6-0.9l3.6-1.5l-0.6-0.3h1.2l-0.3-2.1l1.5-0.6l-1.8,0.6L217,524.8z M378.8,524.8l1.8,0.3l2.4,1.2V526l2.1,0.6   l3.6,1.8l-4-1.8L383,526l0.3,0.3l7,3.7l0.5,0.4l1.6,0.8l5.5,2.4l-5.5-2.1l-1.6-1.1l-7.2-3.7l-3-1.2L378.8,524.8z M303.5,525.4   l0.9,0.9l-1.5-0.3L303.5,525.4z M172.5,526.3v0.3l-2.3,0.4L172.5,526.3z M362.9,527.8l5.2,2.8l1.2,1.5l10.7,3.6l7.9,0.3l6.7,1.5   l0.4,0.2l0.4,0.1l4.6,2.1l1.2,0.3l2.1,0.9l5.8,2.4l2.2,0.9l3,1.5l-5.2-2.4l-7.6-2.8l-1.5-0.9l-5-2.2l-5.3-1.1l-8.2-0.3l2.4,1.2   l-14.6-5.5l-2.1-1.8L362.9,527.8L362.9,527.8z M296.8,528.8l3,0.9h-2.7L296.8,528.8z M312.7,530.3h0.3l2.7,0.9h-1.5l0.6,1.2   L312.7,530.3z M326.7,530.6l2.4,1.2l8.2,2.4l-8.2-2.1L326.7,530.6z M297.4,530.9l5.5,2.8l-2.4-0.9l0.3,1.2l-1.5-0.6l0.6-0.9   L297.4,530.9z M311.7,531.2l1.2,0.6l-1.5-0.3L311.7,531.2z M295.9,531.8l0.6,1.8l0.3-1.2l1.2,0.6l-0.9-0.9l1.5,0.6l-2.8,1.8   l0.3,1.3l0.3,0.2l1.6-0.3l-0.3,0.9l-1.3-0.6l-0.3,0l0-0.2l-0.9-0.4l0.6-0.9l0.6-0.9l-0.6-1.2l-1.2-0.3L295.9,531.8L295.9,531.8z    M314.5,532.4l3,0.9l3,3l-0.9,0.6l-2.4-0.3l1.8-0.3l-4-1.5l-1.5-1.8l2.1,1.2l-1.2-1.2l1.8,1.2l0.9-0.3L314.5,532.4z M151.2,533   l-1.1,0.4l-0.2,0.1L151.2,533z M149.8,533.6l-0.2,0.1l-3,1.5v0.3l1.5-0.9L149.8,533.6L149.8,533.6z M146.6,535.2l-2.5,1.5l0.7-0.3   L146.6,535.2z M144.1,536.6l-0.2,0.1l0.6-0.3l-1.2,0.6l0.4-0.2l-3.2,2l3.2-2l-0.1,0.1L144.1,536.6L144.1,536.6z M140.5,538.8h-0.3   l-0.3,0.3L140.5,538.8z M150,533.5l0.2-0.1l-1.5,0.6L150,533.5z M303.5,533l1.5,0.3v1.5l-2.7,0.9l1.5,0.3l-2.4,0.3l-1.5-1.2   l1.8,0.3l1.5-0.6l-2.4-0.9h3L303.5,533z M291.6,533.9h2.1l0.3,0.6l-2.2,0.3v0.9l2.2-0.9l-1.5,1.2l-0.6-0.3v0.3L291.6,533.9z    M307.8,534.8l5.8,2.8l-2.7,1.5l-4.9-3L307.8,534.8z M142.6,538.2l-0.9,0.5l0.6-0.2L142.6,538.2z M141.7,538.7l-0.3,0.1l-0.5,0.3   L141.7,538.7z M140.9,539.2l-1,0.6l-1.8,0.9l-0.9,0.6l-1.2,0.6l-3.6,2.1l2.4-1.5L132,544l3.4-2.1H135l-3,1.8l-6.7,4.3l-4,2.7   l-3.4,2.4l1-0.6l-1.2,0.9h-0.2l-0.4,0.3l-7.6,5.5l-1.5,1.2l-0.3,0.3h0.3l-0.3,0.3h0.3l-4.3,3.3l3.4-2.8l0.6-0.8l-1.8,1.5l-0.3,0.3   l-0.3,0.3L105,563l-1.6,1.2l-0.1,0.2l-0.4,0.2l-0.3,0.3l-0.1,0.1l-0.3,0.3l-0.2,0.1h0l-0.4,0.2l-0.1,0.2h0l0,0.1h-0.1h0h-0.1v0.1   v0.3h-0.3l-0.3,0.3h0.3l-0.9,0.3l-0.3,0.6l-0.6,0.3l-1.2,1.2l-0.6,0.3l-0.3,0.6l-1.2,0.6l-0.3,0.6l-0.6,0.3l-2.1,2.1l-0.6,0.3   l-0.3,0.6l-0.6,0.3l-1.7,1.7l-0.2,0.2l-0.3,0.3l-2.4,2.4l-0.9,0.8l-0.1,0.1l-0.3,0.3l-0.2,0.1l-0.4,0.4v0.1l-0.9,0.8l-0.3,0.4   l-0.8,0.6l-0.1,0.1l-0.2,0.2l-0.5,0.4l0,0v0l-0.3,0.5l-0.6,0.3l-0.6,0.6l-0.3,0.6l-0.3,0.6l2.4-2.8l-0.9,1.2l2.1-1.5l1.2-1.5   l-0.3,0.6l3.6-2.8l-2.1,1.8h0.3h0.6l-1.5,1.2l0.9-1.2l-3.6,2.7l-2.1,2.4l-0.9,1.2l4.3-4v0.6l0.9-0.9l2.8-1.5l0.9-0.6l0.5-0.7   l0.8-0.5h-0.3l2.8-2.2l2.4-2.4l-4.3,3.3l-1,1.2l0.4-0.6l-1.5,0.6l1.5-2.2l0.9-0.9l1.5-1.5h-0.3l2.8-2.4l-0.9,0.6l0.9-0.9v-0.3h0.6   l1.8-1.2l2.4-2.1l-0.3-0.3l-2.8,1.8l-3.3,2.7l1.8-1.8l4.3-3l2.7-2.1l0.9-0.9h3.3l0.6-0.3l0.1-0.2h0l3.8-2.6l1.8-0.6l3.4-1.8   l0.9-1.2l0.6,0.3l-0.3-0.6h0.6l0.6-0.6l2.2-1.5l1.2-1.2l-2.1,0.9l2.1-1.5l0.3-0.6l-2.1,1l1.8-1l-1.5,0.6l3.6-1.5v-0.6l0.9-0.6   l-0.9,0.3l1.2-0.9l-2.2,1.2l1.8-1.2l0.3-0.3l-0.7,0.5l-1.1,0.4l3.4-2.1v-0.6l1.2-0.6h-0.3l0.6-0.6l0.6-0.3l0.3-0.3l2.2-1.2l0.9-0.9   l0.9-0.3l0.9-0.9l0.9-0.6l1.2-0.6l-1.2,0.3l1.8-0.9l1.5-0.9h-0.6l0.9-0.3L140.9,539.2L140.9,539.2z M90.6,577.2l-1.2,2.1l2.2-1.5   h-0.9l1.8-2.1L90.6,577.2z M92.1,578.1l-1.7,1.7l0.8-0.5h0.3l0.3-0.6L92.1,578.1z M90.4,579.8l-0.7,0.4H90L90.4,579.8z M80.2,585.7   l-0.3,0.3l-0.6,0.3l-0.3,0.3l-0.3,0.6L79,587h0.3L80.2,585.7z M82,583.7l0.3-0.3L82,583.7L82,583.7L82,583.7z M84.7,581.1v-0.2   l-0.3,0.3l-0.4,0.6L84.7,581.1z M102.6,564.9l0.3-0.2l-0.1,0.1C102.7,564.7,102.6,564.9,102.6,564.9z M135,541.9l1.2-0.6l-0.9,0.6   l2.1-1.2h-0.3L135,541.9z M325.2,538.2l0.6,0.6h-1.8L325.2,538.2z M363.8,539.1l3.4,2.7l-0.3,0.6l0.9,0.7l0.3,0.2h1.8l-0.9,0.3   l1.5,1.2l-2.4-1.5h-0.1l-0.3-0.2l-0.6-0.4l-1.8-0.3l1.2-0.6l-1.8-0.3l0.6-0.6L363.8,539.1L363.8,539.1z M267.3,540.7h2.1l-0.6,1.5   l-4,0.9l0.6-1.5h1.8L267.3,540.7z M325.8,540.9h2.1l-1.2,0.3l0.9,0.3l2.7,1.2l-0.6,1.2l-4.3-1.8l2.8,0.6L325.8,540.9z M288.9,541.5   l1.2,0.6l1.5-0.3l-1.5-0.3H288.9z M302.9,541.5v1.5l-1.8-1.2L302.9,541.5z M223.1,542.5l-1.5,1.8H220l-0.3,1.8l-2.4,1.2h2.8l-4,3.6   l2.1-1.5l1.8-0.9l0.3,0.9l-0.9-0.3l-2.4,3l0.3,0.6l0.6-0.6l4.6-0.3l-2.2,1.2l0.6,1.2l1.2-0.3l-1.5,1.8l0.6,0.6l-4.3,0.3l-1.8,1.2   l1.8-0.3v1.2l-4.9,1.8l4.6,1.5l3.6-1.2l-2.7,1.8h-3.4l-5.8,3.4l6.1-0.6l1.2-1.2l10.1-0.3l4.3-1.2l0.3-0.6l-3-0.3l1.8-0.3l3.3-2.7   l-0.6-1.2h-3.6h-0.3l0.9-1.8l-0.6-0.3h-1.2l2.1-0.3v-0.9l-2.4-1.2l-0.6-3.6l-4-0.6l3.4-0.3l-1.8-0.3l2.4-0.6l3-2.7l-6.4,0.3   l4.9-2.8L223.1,542.5L223.1,542.5z M220,542.8l-2.8,1.2l-0.3,0.6l1.5-0.6L220,542.8z M288.6,542.8l0.6,1.2l3-1.2H288.6z M312,542.8   l1.2,0.9l-2.1-0.3L312,542.8z M281.6,544.3l-2.1,0.9l0.3,1.2L281.6,544.3z M366.9,544.3l2.4,1.5l-2.1,1.2l1.5-1.5L366.9,544.3z    M342.5,544.6l0.3,3l-2.2-2.4L342.5,544.6z M217.6,544.9l0.6,1.5l0.3-0.6L217.6,544.9z M256,546.1l2.1,0.3l-1.8,0.3l0.3,0.9   l-0.9-0.6l-1.2,0.6L256,546.1z M343.7,547.4l4,1.5l4-0.6l-4,0.9L343.7,547.4L343.7,547.4z M217.6,547.6l-1.2,0.9l1.8-0.3   L217.6,547.6z M125.9,548.9l-1.2,0.9l0.6-0.6L125.9,548.9z M263.9,548.9l-0.6,1.2l-0.6-0.9l-2.8,0.6l2.8,3.3v-1.2l2.1-1.5   L263.9,548.9z M363.5,549.5l0.9,0.6l-0.6,0.3l-3.6,1.8l0.3,0.6l-0.3,0.9l1.5,0.9l1.8-0.3l-0.6,1.5l2.4,0.3l-2.1,0.6l0.6-0.3l-4-2.4   l0.3-2.7l-0.6-0.9l1.5,0.6l2.7-0.6L363.5,549.5z M259.3,550.1l-1.8,0.3l-0.3,1.2h2.1L259.3,550.1z M427.2,550.4l0.9,0.6l0.2,0.8   l0.3,0.3l1.9,1.4l2.8,1.8l-2.4-1.5l-0.3-0.3l-1.5-1l-0.3-0.4l-0.3-0.2l-0.1-0.2L427.2,550.4L427.2,550.4z M431.5,550.4l0.6,0.3   l1.5,1.2L431.5,550.4z M212.1,550.7l-1.2,1.2l-0.3-0.6l-3,1.5h1.5l-1.5,1.2h-4l0.6,1.2l-2.4,0.9l3,0.6l-4,2.2l3.6-0.3l-5.2,1.2h1.5   l-2.4,0.9h2.4l-2.1,0.9l2.1-0.3l-1.2,0.6l5.2-1.2l5.2-0.9l2.4-5.2l3.3-1.2l-0.6-2.1l-3.3,0.6l1.2-0.6L212.1,550.7z M120.7,551.6   l-2.5,2.1l1-0.8L120.7,551.6z M434.5,551.9l0.8,0.5l-0.1-0.2L434.5,551.9z M413.5,551.9h1.2l0.3,1.2l-1.5-0.3L413.5,551.9z    M120.4,552.5l-2.4,1.8l0.3,0.3l-1.2,0.3l0.9-0.6l-1.2,0.6l-1.5,1.2l0.9-0.9l0.6-0.3l0.4-0.4l0.5-0.2l0.4-0.3H118l1.8-1.2l-1.7,1.2   h0.2L120.4,552.5z M267.3,553.1l-1.2,0.6l1.2,0.3V553.1z M113.4,557.7l-1.5,1.2v-0.3L113.4,557.7z M388.8,559.8l1.8,1.2l-1.2,0.3   L388.8,559.8z M446,560.6l0.7,0.5l-0.3-0.3L446,560.6z M361.1,560.7l-1.5,1.5l0.6,1.8l2.4,1.8l-1.8,0.3V565l-0.6-0.9l-1.2-1.8   L361.1,560.7z M114.3,561.3l-4.9,3l-2.4,2.2l-2.1,1.5l-0.6,0.3l-1.2,1.2l0.3-0.6l-3,2.2h0.9l-3,1.8l-0.9,1.2l1.5-0.9l0.3,0.9   l2.4-1.2l-2.1,1.5l2.1-0.6l-3.6,2.1h0.9l4-3l-1.2,1.5l-2.4,2.1l2.1-1.5l-2.1,2.2h0.6l3.6-3l0.6-0.9l-1.5,0.9l2.8-2.2l-3,2.2   l0.9-0.9l0.9-0.6l0.3-0.6l1.8-0.9l-1.5,0.3l3.7-2.7H107l1.2-0.9l-2.8,1.5l2.1-1.5l-1.5,0.3l2.4-1.5h-0.3l0.6-0.6l-0.9,0.6l4.6-3.4   l0.6-0.9h0.6L114.3,561.3L114.3,561.3z M446.4,562l1.8,1.2l2.1,1.8L446.4,562z M104.8,563.1l-0.3,0.1l-0.3,0.3L104.8,563.1z    M104.3,563.5l-0.6,0.3l-0.2,0.3L104.3,563.5z M445.5,564.4l1.8,1.2l0.3,0.9l-1.8-1.5L445.5,564.4z M285.5,566.6l0.3,0.9v0.3   l-0.3-0.9V566.6z M102.1,566.8l-1.5,2.4l0.9-0.6l0.6-1.2V566.8z M320.6,566.8l11.3,4.3l1.5-0.3l1.2,3.6l-3.6,0.3l-0.6,1.8l-3,0.6   l2.7-0.6l0.3-2.4h3.4l-0.3-2.2L320.6,566.8L320.6,566.8z M440,567.2l0.3,0.8l0.9,0.5l1.3,0.5l0.6,1.5l1.2,0.9v0.6l2.4,0.9v0.6   l-3-1.5l-1.5-3l-1-0.5l-0.9-0.3l-0.1-0.2l-0.9-0.5L440,567.2L440,567.2z M355.9,568.1h0.3l0.3,0.3l1.5,0.6v0.6v0.9l-0.3,3.4   l-2.4,0.3l-0.6-1.5l1.8,0.6l-0.6-2.1h1.2l0.9-1.5l-1.5-1.3L355.9,568.1L355.9,568.1z M450.4,568.4l1.2,0.9l0.3,0.3L450.4,568.4z    M453.1,571.4l0.9,0.6l0.9,1.5L453.1,571.4z M381.5,575.7l4.9,0.3l1.2,1.2l0.9,3.6l2.1,0.6l-5.2-0.3l-0.3,1.8l2.1,1.2l-3.6-0.3   l0.3,0.9l2.1,0.6l3,3.6l4.9,1.5l0.3,2.1l3.4,3.6l-1.5-3.3l1.8-0.6l5.2,3.9l-2.1,1.5l-3.3-1.5l0.9,2.8l1.8,2.1l-0.9-1.2l2.1,0.3   l1.2,1.8l-1.5-0.6l0.6,1.8l0.9-0.9l1.8,1.8l4,7.9l-6.4,0.9l-10.1-3.9l-3-4.9l0.6-1.5h0.3l-0.9-3l2.1-0.9l-3-0.9l-8.5-7l-2.4-4.6   v1.5l-3.9-4v-3.6l3.9-0.3v-2.7L381.5,575.7L381.5,575.7z M435.8,576.6l6.7,1.2l0.9-0.9l-0.3,1.5l-6.1-1.5v2.4l2.7,3.3l-3.6-2.7   l-0.6-2.1L435.8,576.6z M88.8,577l-0.4,0.2l-0.3,0.3l-0.2,0.3L88.8,577z M448,577.8l2.4,2.1l-2.1-0.9L448,577.8z M78.4,587.6   l-0.6,0.3l-0.3,0.6L78.4,587.6z M249.9,589.4l-3.4,2.4l1.2,3l2.2-2.1V589.4z M75.5,590.4l-1.1,1.1l-0.2,0.2l0.5-0.2L75.5,590.4z    M74.2,591.8l-0.2,0.1l-0.2,0.3C73.9,592.2,74.2,591.8,74.2,591.8z M73.9,592.2l-0.4,0.6l0.3-0.3L73.9,592.2z M452.8,590.6l0.9,0.3   v1.5l-3-0.9L452.8,590.6z M468.4,592.7l0.9,0.9h-0.9V592.7z M73.4,592.9l-0.8,0.8l-0.1,0.1l0,0l-0.2,0.2l-0.1,0.1l-0.4,0.6l0.1,0   l0.3-0.4l-0.2,0.3l0.3-0.3L73.4,592.9z M72,594.6l-0.1,0.1l-0.2,0.2L72,594.6z M71.8,594.7l-0.4,0.2l-0.3,0.6l0.3-0.3L71.8,594.7z    M248.4,595.8l-4,0.9l0.3,7.3l4.3-1.2l1.2-4.6L248.4,595.8z M70.4,596.1l-0.3,0.3l-0.9,1.2l0.3-0.3L70.4,596.1z M69.2,597.6   l0.1-0.3l-0.7,0.9L69.2,597.6z M68.6,598.2l-0.9,0.9l-0.1,0.3L68.6,598.2z M67.6,599.4l-1.1,1.3l0.9-0.9L67.6,599.4z M66.5,600.7   l-0.3,0.3l-1,1.3l0.4-0.4l0.6-0.6L66.5,600.7z M65.6,601.9l-1.4,1.8l0.7-0.9L65.6,601.9z M64.2,603.7l0.2-0.4l-0.7,0.9l0.3-0.2   L64.2,603.7z M63.7,604.2l-0.3,0.2l-0.3,0.6L63.7,604.2z M63.1,604.9l-0.6,0.6l-0.3,0.6L63.1,604.9z M62.2,606.1l-0.6,0.8l1.4-1.7   L62.2,606.1z M61.7,606.9l0.3-0.5l-1,1.2l0.3-0.3L61.7,606.9z M61,607.7l0.1-0.2l-0.4,0.5L61,607.7L61,607.7L61,607.7z M61.1,607.5   l0.9-1.1l0.1-0.1l-0.8,0.8L61.1,607.5z M64.4,603.2l0.7-1l-0.5,0.5L64.4,603.2z M69.4,597.3l0.8-1l-0.6,0.6L69.4,597.3z    M378.8,596.4l1.8,0.9l-2.7-0.3L378.8,596.4z M226.1,600.4l-3.4,1.5l2.1,0.9l2.2-1.5L226.1,600.4z M310.8,602.5l-1.8,0.6l1.8,0.9   h1.2L310.8,602.5z M336.1,603.4l1.2,2.4l-1.5-0.9L336.1,603.4z M299.9,603.7l-1.8,0.6l6.1,3.4l-1.2-2.4L299.9,603.7z M372.1,604   l-0.9,2.4l-3-0.6L372.1,604z M289.5,605.8l-0.6,1.2l1.8,0.3L289.5,605.8z M271.2,606.8l-11.9,0.9l0.6,1.5l8.5,3.3L271.2,606.8z    M378.8,606.8l3,3.3l-1.2,0.9l-3-4L378.8,606.8z M61,607.4l-0.6,0.9l0.2-0.2L61,607.4z M60.6,608.1l-0.2,0.4L60.6,608.1L60.6,608.1   z M60.3,608.4l-0.5,0.7l0.2-0.2l0.1-0.2l0.1-0.1l0.1-0.1l-0.1,0L60.3,608.4L60.3,608.4z M59.7,609.3l-0.5,0.5l-0.3,0.6l-0.1,0.1   l0.1-0.4l-0.5,0.8l0.2-0.2l0.1-0.2l-0.1,0.4L59.7,609.3z M58.4,610.9l-0.4,0.4l-0.3,0.6l-0.6,0.6l-0.1,0.3l-1.4,1.8l0,0v0l-0.1,0.2   l-0.2,0.4l0.8-1.1l-0.3,0.3l0.9-1.1l-0.5,0.7l0.3-0.3l0.3-0.6l0.1-0.1l1.2-1.5L58.4,610.9L58.4,610.9z M56.1,614.1l-0.5,0.9   L56.1,614.1L56.1,614.1z M493.9,610.7l1.8,2.4l-0.3-0.3l-0.6-0.6l-0.6-0.3v-0.6L493.9,610.7z M319.4,613.5l-2.1,1.2l1.2,0.6   L319.4,613.5z M55.1,615.4l-0.5,0.5l-0.3,0.5L55.1,615.4z M54.3,616.5l-0.5,0.7l0.3-0.1L54.3,616.5z M54,617.1l-0.6,0.6l0.3-0.5   l-0.3,0.2l-0.6,1.2l0.6-0.6L54,617.1z M52.8,618.7l-0.3,0.3l-0.3,0.6l0.3-0.3L52.8,618.7z M343.7,616.5l-8.2,2.4l3,2.1l3.6-1.5   l-0.9-1.2L343.7,616.5z M302,616.8v1.5l4.6,0.9h5.5l0.3-1.2l-1.8,0.9L302,616.8z M52.1,619.6l-0.3,0.3l-0.2,0.4L52.1,619.6z    M51.6,620.3l-0.6,0.9l0.2-0.1L51.6,620.3z M51,621.2l-0.4,0.2l-0.7,1.4L51,621.2z M49.9,622.8l-0.4,0.6l0.2-0.2L49.9,622.8z    M49.4,623.5l-0.3,0.3l-0.4,0.7L49.4,623.5z M48.7,624.5l-0.8,1.3l0.3-0.2L48.7,624.5z M47.9,625.8l-0.3,0.2l-0.6,1.2L47.9,625.8z    M382.7,626.9l4.3,1.8l3.9,0.6l1.2,1.8l-1.5-1.8h-2.8L382.7,626.9z M507.7,628.2l0.4,0.7l0.1,0.1l0.2,0.4l0.6,1l-0.2-0.3l-0.4-0.8   l-0.3-0.5l-0.2-0.2L507.7,628.2z M509.3,630.7l0.3,0.5l-0.1-0.1L509.3,630.7z M502.2,635.7h0.9v1.5L502.2,635.7z M513.1,637.1   l0.1,0.2h-0.1V637.1z M513.5,637.6l0.1,0.2h-0.1V637.6z M155.1,642.7l-2.1,1.5l1.5-0.6L155.1,642.7z M506.4,642.7l0.9,0.9v0.9   L506.4,642.7z M153,644.5l-3,3l1.8-0.6L153,644.5z M144.8,645.5l-3,0.9l0.3,1.5L144.8,645.5z M145.7,647l-0.6,1.2l1.5-0.3   L145.7,647z M431.2,652.2l-3,1.8l2.4-0.9L431.2,652.2z M512.8,655.2v2.4l3,7.3l-3.3-7.3L512.8,655.2z M511.3,660.4l4.3,4.9   l-2.8-2.7L511.3,660.4z M344.6,664.9l1.5,4.9l-4.3,0.9l-4,5.2l2.4-4.9l3.6-0.9L344.6,664.9z M19.2,682.9l-0.3,1.2l-0.3,0.9h-0.3   l-0.6,1.8v0.3l-0.6,2.1v-0.6l-0.3,0.9l-0.3,1v-0.1l-0.9,3l0.6-1.8l0.3-0.6V691l0.6-1.4v1.2L18,689l0.3-2.1l0.3-1.2v0.3l0.6-1.8   L19.2,682.9z M19,689.9l-0.9,0.3l-0.6,1.8l0.6-0.3L19,689.9z M536.6,689.9l0.3,0.3v0.9L536.6,689.9z M139.6,697.9l3,2.4l2.2,4.6   l-5.2-6.7l-7,0.3L139.6,697.9z M19.2,698.5l-0.6,0.9l-0.3,1.5l0.9-1.2L19.2,698.5z M379.1,701.5l0.3,1.2l1.8,0.3l-1.8-1.5H379.1z    M180.1,702.4l1.5,1.8l-1.2,0.3L180.1,702.4z M541.8,705.5l0.9,4l0.3,1L541.8,705.5z M260.6,710.4l0.9,3l1.8-0.9v1.5l4.3,0.6   l-5.5,2.8l-3.4-6.4L260.6,710.4z M536,715.2v1.5l0.6,1.2L536,715.2z M434.8,717.1l2.7,0.9l1.8-0.9H434.8z M9.2,717.4l-0.9,3.9   L8,722.8l0.2-0.1l0.2-1.1l0.6-2.4L9.2,717.4z M8.1,722.7l-0.2,1v-0.3L7.1,728v0.9l-0.3,0.9l-0.2,0.9l0.2-0.5l-0.1,0.6l-0.1,0.4   l0.1-0.4l-0.2,0.7l-0.1,1l0.1-0.7v0.3l-0.1,0.5l0.1-0.4v0.3l-0.2,0.3l0,0.1v0l0,0.2l-0.1,0.5v0.4L6.1,734v-0.3l0.1-0.4v-0.5   L6,734.2l-0.1,0.7l0.1-0.8l-0.2,2.4v-0.3l-0.2,1.3l0,0.1l-0.1,0.7l-0.9,6.7l-1.2,11.3v2.8l-0.3,4.6v0.9l-0.3,3.3v17.7l0.3,0.6v1.8   v0.9l0.3,3.3l0,0.1v0.3v0.3v1.2l0.3,0.6l0.3,2.4v0.3l-0.3-2.4l-0.3-0.6v1.8l0.3,0.9v3l0.3,0.6v2.4l0.3,0.6v2.4l0.3,0.6v2.1l0.9,6.7   l1.5,8.5l1.2,6.1l2.1,9.7l0.3,2.4l1.8,6.7l1.8,5.5l0.9,3.4l1.8,5.2l2.4,7l2.4,6.4l3.6,9.1l3.6,8.3l7.6,14.9l2.4,4.3l0.3,0.3   l1.2,2.4l7.9,12.2l7.3,10.7l2.1,3l0.6,0.9l6.4,7.9l4.9,5.8l1.2,1.2l0.3,0.4v0.2h0.2l0.7,0.9l2.4,2.4l3,3.3l0.9,1.2h0.3v0.3l5.2,5.2   h0.3l0.8,1l0.6,0.5h0.1l0.2,0.3l-0.3-0.3H86l0.6,0.6l0.3,0.3l-0.3-0.5l0.5,0.5h-0.2l0.3,0.3l1.8,1.8l-0.8-1.1l0.1,0.1l0,0l0,0   l0.7,0.9H89l0.4,0.3l0.2,0.3h0.1l1.1,0.9l0.9,0.6v0.3l0.9,0.6l-0.6-0.3l1.5,1.2l1.5,1.2l0.9,0.9l0.3,0.3l0.7,0.6h0.2l0.2,0.3l0,0   l1,0.9l0.9,0.9l1.5,1.2l0.6,0.6l0.6,0.3l0,0l1.2,0.9l1.5,1.5l1.8,1.5l1.5,1.2l-1.8-1.5l0.6,0.3l0.3,0.3l1.1,0.9h-0.2l2.3,1.6   l0.4,0.3l0.5,0.4l0.2,0.2l0.3,0.2h0l0.1,0.1l0.9,0.7l0.2,0.1l0,0l0.7,0.4l0.8,0.6l-0.2-0.3l0.1,0.1l0.5,0.4l0.1,0.1l0.3,0.2   l-0.7-0.5l0.4,0.4l0.4,0.3h0.1l0.1,0.1l-0.2-0.1h-0.2l0.3,0.3l1.5,0.9l-0.3-0.3l0.6,0.3l0.1,0l0.6,0.3l0.3,0.3l0.4,0.4l2,0.8   l-0.9-0.9l-3.9-2.1l-2.1-1.5l0.3,0.3l-0.6-0.3l-0.4-0.2l-0.1-0.1l0.5,0.3l-0.5-0.3l-0.1-0.2l0.7,0.4l-2.9-2l-0.6-0.6l-2.7-2.1   l-0.3-0.3l-1.8-1.5l-3.4-2.7l-0.3-0.3v-0.3l-3.3-2.7l-6.1-6.1l-0.9-0.6l-3.6-3l-2.4-2.8l-0.6-0.9l-4.3-4.6l-1.5-2.2l-1.5-1.2v-0.6   l1.2,1.2l-0.6-0.9l-1.8-1.8l0.9,1.2l-1.5-1.2l-4.3-4.9l2.2,1.5v-0.9l-4.9-5.8l0.6,0.3l-2.1-2.2l1.5,0.6l0.3-0.6l0.6-0.9l-0.3-1.8   l-2.4-4.6l-1.8-2.1l-1.5-1.2l-1.5-2.7l-4-3.4l-3.4-5.5l2.4,3.3l1.8,2.4l3,1.5l1.8-0.9l-2.1-6.4l-2.4-5.2l-1.5-5.8l-1.2-1.5l2.1,1.8   l1.5,7l-0.3-3.9l-1.5-4.9l-0.9-2.7v-3.4l-2.4-5.8l-2.1-3.7l-0.6-3l-0.9-0.9l0.9,0.3l-0.3-3.3l0.9-3.4l1.8-0.3l0.6-3.9L57,884   l0.3-1.8l0.6,1.2l2.1,0.3l-0.6-2.1l1.5-2.4l-0.9-2.1l0.3-7.3v-1.2l-1.2-5.5l0.3-3l-4.3-22.5l0.3-1.2l0.9,2.1l0.6-1.8l3.3-12.5   l2.4-7.6l-0.3-5.8l-1.8-7.9l-1.2-1.8l-4.3-0.6l-4.3-6.1l-4-4h-5.8l-3-2.4l-2.8,4.9V789l0.6-1.2l-1.2,0.6l0.9-2.1l-0.9-3l-0.6,2.1   l-0.3-2.4l-0.6,0.9l0.3-1.2l-0.6,0.9l-0.6-1.8l-0.3,1.2l-0.3-2.2l-0.3,1.2l-1.8-2.8l-0.3,1.2l-1.2-0.9l-0.9,4l0.9,0.3l-0.6,0.9   l-0.6-1.5l-1.5,4.9l0.3-3.4l-2.1,1.2l3-2.2l0.9-5.8l-4-0.9l-0.6,4.3l-0.3-2.2l-0.6,2.2v-2.4l-0.6,2.4l0.6-4.6l2.4-6.1h-0.3l0.3-2.4   l-1.5-1.8l-0.3-10.3l-0.3-0.6L22,757l-0.9-4.3l-2.4-4.3l-4.3,0.3l-0.9-5.2l-0.6,2.4l0.6-4.6l-0.3-3l-0.6-2.4v-0.6l-0.9,0.3l0.6-4.3   l-0.3-2.1l-0.6,0.6v-0.9v-1.8l1.2-1.8l-2.1,0.3l0.3,0.9l-1.2,2.1l-0.3-2.8l-0.9,0.6l0.6-3.4l-0.3-1l0,0.1v-0.3v-0.6l-0.3,1.2l0,0   L8.1,722.7L8.1,722.7z M8.6,721.9l0,0.2l0.3-1.1H8.7L8.6,721.9z M8.7,721l0.5-2.4L8.6,721H8.7z M118.7,1000.2l-0.4-0.3v0.2   L118.7,1000.2z M118.3,999.9L118.3,999.9l-0.9-0.7L118.3,999.9L118.3,999.9z M113,996.3l0.1,0.1l0.6,0.3L113,996.3L113,996.3z    M111.6,995.2l-0.7-0.6l-0.5-0.3l1.8,1.5l-0.3-0.3L111.6,995.2z M5.9,734.9l0.1-0.7l-0.2,0.5v0.9l0.1-0.5L5.9,734.9z M369.9,718   l-0.6,3.3l-1.5-2.4L369.9,718z M216.4,722.5l2.7,2.1l-0.9,4.3v0.6l-0.3-0.6l-0.9-1.8l1.8-2.4L216.4,722.5z M13.5,725l-0.9,0.6v1.8   l-0.6,1.2l0.9-0.3L13.5,725z M517.7,729.6l-0.3,0.3l-0.3,0.3h0.3l0.9,1.2l-0.6-0.6v2.4l0.1,0.1v0l0.5,5l-0.6-0.9l1.2,4.3v0.5   l0.3,0.6l0.9,4.9l2.1-0.9l0.9-4l-2.1-7L517.7,729.6L517.7,729.6z M11.3,730.2l-0.6,4.9l0.3,0.3l-2,2.8l-1,1.8L7.7,739l-0.6,0.9   l-1.5,7l0.6-4.6l0.9-2.4l0.6-1.2l0.3,1.2l0.6-1.2l0.4-0.6l1.4-2.4l0.3-1.5L11.3,730.2z M192,733.2l4.9,5.8l0.3,0.6l0.9-5.8   l-1.2,13.4v-1.5l-0.3-0.3l-3.4-1.5l3,0.9l0.3-0.6l0.6-2.4l-0.6-0.9l-0.9-0.3h-2.1l2.7-0.9l-3-1.5l-0.6-2.7h-3.4l3-0.3L192,733.2   L192,733.2z M226.1,735.3l1.8,4l-1.8,11.3l1.5-11.6L226.1,735.3L226.1,735.3z M172.5,737.8l-1.2,3.3l0.6,0.9l1.2-0.9l-0.6,2.4   l-1.8-2.1L172.5,737.8z M9.5,739.6l-0.6,4.3l0.3-3.6L9.5,739.6z M541.5,742.3l0.6,1.8v-1.2L541.5,742.3z M543.9,749.6l0.9,4.6   l1.5,4.6l0.9,6.7l0.9,2.8l0.3,7l0.6,3.9v1.2l0.3,11.3l0.3,10.3l-0.3,2.8l0.3-1.8v1.2v0.3l-0.3,3v-0.3l-0.1,0.6l-0.2,1v0.9l-0.3,2.2   v0.9l-0.2,2.3l0.2-1.1v-0.3l0.6-4.3v-0.3l0.3-2.7v-1.5l0.9-12.8l0.3-4v-0.6l-0.3,1.5l0.3-2.4l-0.3-0.6l0.3-4.6l-0.3-1.5v-6.1   l-0.1,0.3l-0.3-1v-0.6l-0.9-7v2.4l-0.6-5.2l-0.3-1.5l-1.2-4.3v-1.5l-1.2-4L543.9,749.6L543.9,749.6z M548.6,815l-0.7,3.5l0.3-0.9   l0.3-1.8L548.6,815L548.6,815z M16.8,752.7v1.8l-0.6,0.6L16.8,752.7z M366,754.2l2.1,11l-3.6-6.1L366,754.2L366,754.2z    M237.7,758.5l-2.4,1.8v0.3l1.2,0.6L237.7,758.5z M545.4,763.1l0.9,2.1l-0.6-2.1H545.4z M281.9,764.9l-2.2,13.7l3.4-7l4-2.1   l3.3-1.8l0.9-0.6l10-0.8l0.4-0.1l0.1,0l0.5,0l10.1,7l-10.6-7l-0.4,0l-10.9,2.3l-3.3,0.9l-4.3,3l0.3,4l-10.7,10.3l-0.3,4.3l-0.3-4   l7.6-8.5L281.9,764.9L281.9,764.9z M344.6,765.2l-0.9,3.3l-3.3,3l-0.3-2.1L344.6,765.2z M354.1,768.5l-1.8,0.6l0.6,1.5l-3-0.9   L354.1,768.5z M547,769.2v0.6l0.3,1.8l0.3,2.2v-2.2L547,769.2z M550,769.8l0.3,1.8v-0.9L550,769.8z M550.3,771.6v0.6l0.3,0.9   L550.3,771.6z M353.5,774l0.6,1.5l2.1-0.3l1.2,3l2.2-1.2l0.6,0.9l-3.6,1.2l-0.3,4.6l-3.6,2.4l3,0.9l-2.1,1.5l-2.2-0.6l0.3,2.1   l-1.2,0.9l0.3-2.4l-2.7-1.2l-1.8,2.7l-0.9-4l1.8-9.4l3-1.5l1.5,0.9L353.5,774z M25,774.9l-1.5,0.6l0.6,1.2L25,774.9z M337.3,777.1   l-2.4,2.4l0.6-2.1L337.3,777.1z M4.9,777.7l1.2,0.3l0.1,0.3h0.2l0.9,3.2l0.6,1.7l2.1,8.5h0.3h1.5l0.2-0.6l0.5-3l0.3,0.1l0-0.1   l0.3,0.3l0.6,0.3l0.9-2.7h0.6h0.9l0.6,0.6v1.5l0.6-0.3l2.1-3.6l-1.5,2.7l-0.6,1.2l-1.2,0.3l-0.3,5.5v-6.1l0.6,0.3l-1.2-0.9h0.6   l-0.6-1.2l-1.5,3l-0.6-0.6l-0.3-0.2l-0.8,2.9l-0.1,0.6h-0.1l-0.3,0.9l-1.2-0.9l-0.3,0.6l-1.5,3.4l-0.2-0.5l-0.1,0.2L8,794.1   l-0.6,3.6L7.1,796v-0.3l-0.9-3v0.9l-0.6-4l-0.6-1.2l-0.6,0.3l0.9-0.6l1.2,5.2l0.9,2.7l0.6-1.8l0.4,1l0.8-1.6v-1.8h0.9l-0.6-0.6   L8,783.5l-0.6-2l-1.1-3.2H4.6L4.9,777.7z M242.6,780.4l1.5,0.6l-1.5,0.9V780.4z M548.5,781.4l-0.3,0.9l0.3,2.8V781.4z M13.8,782.9   l0.9,0.6v1.5L13.8,782.9z M283.4,784.1l-1.2,1.8l1.5,0.6l-1.8,2.7l-0.6-4.6L283.4,784.1z M333.4,784.1l1.5,2.1l-2.4,2.1   L333.4,784.1z M21.4,785l1.8,0.3l-0.6,1.8l0.3,1.2l-0.9-3v2.4L21.4,785z M548.8,789.9v2.8l0.3-1.8L548.8,789.9z M4.3,792.6v0.6   l-0.6-0.3L4.3,792.6z M334.6,792.6l2.8,11.6l-1.2,2.1l4,3.3l2.4,8.5l-3-1.2l-1.5-5.8l-4.3-5.5l0.3-9.8l-0.9,1.2L334.6,792.6   L334.6,792.6z M379.7,803.9l-0.6,2.1l1.5,1.5l-0.6-2.4L379.7,803.9z M346.2,812.7l2.8,2.4l-2.8-0.6V812.7z M335.8,817l1.8,0.3   l-3,1.8L335.8,817z M333.1,817.6l-2.1,4l-1.8,0.3l0.3-2.1L333.1,817.6z M355.3,821.8l2.1,2.2l1.5,7l-1.5,4.6l1.8,9.1l-2.7-1.2   l-2.2-8.8l1.8-2.8L355,824l-0.3-1.2h0.3L355.3,821.8z M336.1,828.3h0.3v1.8l-1.5,0.6L336.1,828.3z M395.5,830.7l-0.6,1.5l0.9,0.9   L395.5,830.7z M419.6,833.4l-2.4,2.1l-0.3,4.3l-2.4,2.1l-1.2-0.9v3h-0.9l-1.8,3.6l0.3-1.8l-2.1,2.4l0.6,1.2l-1.2,0.6l0.3-1.8   l-2.2,1.5v2.1l-1.2-1.2l-7.3,2.2l-3,6.1l0.6,11.3l-4.9,5.8l-1.8,4.6l0.6,11.9l3.3,1.8l8.5-2.1l14.9-30.2l0.9-4.6l1.8-1.5v-6.1   l1.2-0.3l0.6,2.4l1.5-2.4l-0.6-11.3L419,835L419.6,833.4L419.6,833.4z M399.8,833.8l-0.9,0.6l1.2,0.9L399.8,833.8z M330.9,854.8   l-4.3,1.2l-5.2,5.2l3.9-5.2L330.9,854.8z M46.1,862.1l1.8,3l-0.3,0.9l-0.9-0.3v-2.1l-0.6,0.6V862.1z M444,870.3l-1.2,2.4l1.5-1.2   L444,870.3z M48.8,872.8l0.3,0.9l1.2,1.8l-1.8-2.1l-0.6,0.6l2.4,3.4l-1.2-1.5l-0.3,0.9v-1.2l-1.5-2.1L48.8,872.8z M436.4,874.3   l-1.5,0.6l1.5,1.5V874.3z M46.1,884.6h1.2l0.3,1.2L46.1,884.6z M40.9,902l3.4,0.9h-3.4l3.1,7.2l0.3,0.4l1.5,3l1.8,3l0.6,1.5l1.2,3   l3.3,5.5l-3.3-5.2l-1.2-3l-0.9-2.2l-1.5-2.7l-1.2-2.1l-0.6-1.3l-0.3-0.5l-2.7-6.7L40.9,902L40.9,902z M315.7,902.6l-0.9,1.8   l-1.7-0.5h-0.1l1.1,0.9l-1.5-0.6l0.4-0.2l-0.1-0.1l0.2,0.1L315.7,902.6z M44.9,916l0.6,1.5l-0.9-1.2L44.9,916z M59.2,922.4l1.5,2.8   h-0.6l1.2,3l-1.2-2.1L59.2,922.4z M56.1,923.3v1.5l0.6,0.9l-0.9-0.3h-0.3L56.1,923.3z M86.2,973.3L86.2,973.3l0.1,0.2L86.2,973.3z    M87.2,974.3l1,0.9L87.2,974.3L87.2,974.3L87.2,974.3z M419.3,982.4l-3,3.3l1.5-0.9l0.9,0.9l-0.3-1.2l1.5,0.3l1.2-1.2l-2.8,0.6   l1.2-0.9l-1.5,0.6L419.3,982.4z M110.4,990.3l2.1,1.5l0.3-0.3l-1.2-0.9l0.9,0.9L110.4,990.3z M112.5,991.9l0.6,0.9l0.9,0.9   l-0.6-0.9v-0.3L112.5,991.9z M109.4,990.7l1.8,1.2l0.6,0.9l0.6-0.3l-1.8-1.8H110H109.4z M111.7,995.2l0.7,0.4l-0.2-0.1L111.7,995.2   z M144.8,998.3l5.8,2.4l-3.4-2.2L144.8,998.3z M120.4,1001.3l1.5,1.2l0.9,0.3L120.4,1001.3z M158.5,1021.1l0.9,0.6l0.3-0.3   L158.5,1021.1z M157.9,1021.4l1.2,1.2l0.3,0.3l1.4,0.9l0.1,0l2.3,1.4l1.7,0.7l1.8,1.2l2.1,0.9l3,1.2l-1-0.2l-2.3-1l2,0.9l-0.2,0   l0.6,0.2l1.5,0.7h0.3v-0.3l3,1.5l3.6,1.6l0.9,0.2h-0.3l0.9,0.4l1.5,0.2l0.6,0.6l2.4,0.9l2.4,0.6l2.7,0.9l2.1,0.9h0.3l4.6,1.5h0.3   l-0.4-0.1l-0.1-0.1l0.7,0.3h0.5l1.2,0.6h0.6l0.6,0.3l0.9,0.3h0.6l0.6,0.3h0.6l0.6,0.3l0.9,0.3h0.6l0.6,0.3h0.6l0.9,0.3l0.6,0.3h0.6   l0.6,0.3h0.6l0.9,0.3h0.6l0.6,0.3h0.6l0.9,0.3l0.6,0.3h0.6l0.6,0.3h0.6l0.9,0.3h0.6l0.6,0.3h0.6l0.9,0.3h1.2l0.6,0.3h0.9l0.6,0.3   h0.6l0.6,0.3h0.9l0.6,0.3h1.2l0.9,0.3h0.6l0.6,0.3h1.5l0.6,0.3h0.6h0.6l0.9,0.3h0.6l0.6,0.3h1.5l0.6,0.3h1.2h0.3l0.6,0.3h1.2h0.9   l0.6,0.3h0.6h0.6l0.9,0.3h1.2h0.9l0.6,0.3h0.3h1.8l0.6,0.3h0.3h2.4l0.6,0.3h0.6h2.2l0.9,0.3h0.3h2.7h0.9l0.9,0.3h2.4h3l0.6,0.3h0.3   h1.2h2.4h2.7h2.8h3h2.7h2.1h0.6l0.9-0.3h0.9h3h1.5h0.6l0.6-0.3h1.8h1.5h0.3l0.9-0.3h0.3h2.4h0.3l0.6-0.3h1.8h0.3l0.6-0.3h2.4h0.3   l0.6-0.3h1.2h0.9l0.6-0.3h1.2h0.3l0.6-0.3h1.2l0.9-0.3h1.2h0.6l0.6-0.3h0.9h0.6l0.6-0.3h0.6l0.9-0.3h1.2l0.9-0.3h0.6h0.6l0.6-0.3   h0.6h0.3l0.6-0.3h0.6h0.6l0.6-0.3h0.3h0.3l0.6-0.3h0.3h0.6l0.6-0.3h0.9h0.3l0.9-0.3h0.6l0.6-0.3h0.3h0.3l0.6-0.3h0.3h0.6l0.6-0.3   h0.3h0.3l0.6-0.3h0.3h0.3l0.9-0.3h0.3h0.3l0.6-0.3h0.6l0.6-0.3h0.9l1.2-0.6h0.3h0.3l0.6-0.3h0.6h0.3l0.6-0.3h0.6l1.2-0.6h0.6   l0.9-0.3h0.6l1.2-0.6h0.6l0.6-0.3h0.9l1.2-0.6h0.6l1.2-0.6h0.9l1.2-0.6h0.6l1.2-0.6l0.9-0.3h0.6l1.2-0.6h0.6l1.2-0.6l0.9-0.3h0.6   l1.2-0.6h0.6v-0.3h0.6l1.2-0.6h0.6l1.2-0.6h0.3l1.8-0.9h0.6l1.8-0.9h0.6l1.2-0.6l0.3-0.3h0.6l2.4-1.2l3.4-1.2h-0.3l2.2-1l-1.6,0.7   l5.8-2.7l-2.8,1.2l0.9-0.6l-2.4,1.2l2.4-1.8l-4.9,2.1l-2.4,0.9l-0.3-0.3l-3,0.6l2.8-1.5l-5.5,1.2l1.8-1.5l-2.4,0.9l-2.8,1.8   l-3.3,0.9l-1.8,0.6h-0.6l-0.1,0.1l-1.1,0.2l-4.3,1.5l-3.4,0.6l0.9-0.6l-3.6,0.9l1.5-1.2l-0.9-0.6l2.4-1.5l-10.7-0.6h-1.2l-2.2-0.9   l1.8-0.9l-3.4-1.2l-6.4,1.2l-1.5,1.5l-1.5-0.9l-2.1,0.9h0.9l-2.4,0.9l-1.5-0.9l-1.5,0.9l-10.1,1.5l-2.8,0.9l-3.3,1.5h-0.3l-0.3-0.9   l-1.5,0.3l-3-1.8l-1.8,0.3l-0.9,1.2h-2.1l-0.9-0.9l-3.6,1.2l-3.4,0.6l-5.5,0.6l-5.5-0.6l-0.9-0.3l-3.4-0.3l-3.6,0.3l-0.9-0.9   l-3.6,1.2h-9.1l-0.9,0.6l-9.7-0.6l-2.4-1.8h-1.8l1.8,1.2l-1.2,0.6l-0.6,0.3l-7.3,0.6l-2.1-0.3l-2.4,1.5l0.6,0.9h-2.8l-1.2,0.9h-2.1   l1.5,1.2l0.3,0.3l-0.9,2.2l1.5,0.9l0.6,1.2h-1.2l1.5,0.9l-2.9-0.3l-0.1-0.1h-0.6l-0.9-0.3l0.6,0.3l-1.5-0.3l0.6,0.6l-15.6-2.6h-0.1   l-0.2-0.1h-0.4l-0.2,0h0l-0.5-0.3h-0.9l-2.1-0.6l-6.7-2.1h-0.3l-2.1-0.9l-11.3-3.6l-1.2-0.3l-2.1-0.9l-0.6-0.3h-0.1l-0.9-0.4   l-0.2-0.2h-0.3l-0.6-0.3l-0.1-0.1h-0.1l-2-0.9h-0.6l-11.3-5.2l-5.4-2.7l1.7,0.6l-0.6-0.6l-1.8-0.6l0.6,0.6l-0.6-0.3l-0.6-0.9   L157.9,1021.4L157.9,1021.4z M198.2,1039.1h-0.1l1,0.3L198.2,1039.1z M183.2,1034.2l-1.2-0.6h-0.3L183.2,1034.2z M179.5,1032.8   L179.5,1032.8l0.3,0.2L179.5,1032.8z M179.8,1032.9l0.9,0.4l0.2,0L179.8,1032.9L179.8,1032.9z M179.4,1032.8l-1.7-0.7l1.5,0.6   L179.4,1032.8L179.4,1032.8z M160.8,1023.8l-2-0.9l0.6,0.3L160.8,1023.8z M159.4,1023.6l1.8,0.9v-0.3L159.4,1023.6z M194.4,1037.9   l2.2,0.6l0.6,0.2L194.4,1037.9z M409,585.2l-0.4,0.6l-0.4-1.2l-0.6-1l0.1-0.7l-0.3-0.7l-0.1-0.9l0.3-0.8l0.5-0.4l0.6-0.4l0.1,0.4   l0.5,0.1l0.3,0.3l0.5,0.1l0.8,0.9l0.4,0.8l0.3,1.1l-0.5,1.1l-0.6-0.6l-0.4-1.4l-0.8-1.4l0.2-0.4l-0.2-0.2l-0.3-0.3l-0.4,0.2   l-0.1,0.3l-0.1,0.6v0.8l0.4,1.3l-0.3,1.1L409,585.2z M409.1,577l-0.7,0.1l-0.4-0.3l-0.3,0.6l0.5,0.4l0.4-0.2l0.6,0.7l0.5,0.2   c0,0,0.8-0.3,0.8-0.4s0.1-0.8,0.1-0.8v-0.2h-0.3l-0.1,0.3l-0.4,0.1L409.1,577z M406.7,578.2l0.4,0.7l0.4-0.4L406.7,578.2z" />
	<path
   id="african-lands"
   class="st3"
   d="M248.7,610.1l-7,2.1l-5.4-1.2l-4.3,1.8l-5.2-1.2l-11,1.8l-4.6,2.4l-3.3,0.6l-4.6,2.4h-3   l-0.3-1.5l-6.4,0.9l-2.1-2.8l-1.8,0.6l-4.9,7L174,629l-3.3,4.6l-0.9,5.4l-0.3,0.3l-2.4,3l-6.1,4.3l-5.4,1.2l-4,5.5l-3.7,2.1l-3,6.4   l-4.2,3.4l-6.4,9.4l-1.5,4.3l0.9-1.5l1.9,4.2l-2.1,4l0.6,7.3l-3.7,9.4l-4.3,4.3l3.4,3.9l-0.3,2.5l3.7-0.6l-3,1.2l-1.2-0.9l-0.9,3.9   h2.2l-2.2,0.9l3,0.3l-1.5,1.2l1.8,0.3l-0.6,1.2l4.3-1.2l-2.4,0.9l1.8,0.9l-2.1,1.2l0.9,1.5l1.2-0.6l-0.6,1.2l1.5-0.9l0.6,4.3   l1.8,0.9l1.8,0.9l-0.9,1.5l1.5,0.6l0.3,4l1.5-0.3l-2.1,0.6l3.3,3.3l-0.3,1.8l5.2,2.7l10.1,9.5l5.2,2.1l6.1-3l9.5-1.2l8.8,2.4   l9.1-4.3l6.4-2.5l11.3-2.4l-1.9,1.2l4.6,0.3l3,2.7l1.5-0.9l-1.5,1.2l2.1,0.3l-1.5,0.3l0.6,0.9l1.5-0.9l-1.5,1.8l3,4.3l3.3-0.3v-1.2   l0.6,1.2l-0.3-1.5l0.9,1.5l0.6-1.8l1.2,1.2l4.3-0.3l-0.3-1.8l1.5,2.1l1.5-1.2l1.5,3.7l2.5-0.6l0.6,1.2h-1.2l1.8,3.7l-3,9.1l1.9,0.3   l-0.3,3l-1.5-0.3l3,1.5l-2.1,0.6l-0.9-1.2l-0.9,4.9h-2.1l4.6,8.2l10.1,9.7l2.1,6.1l2.4,1.2l-2.1,0.6l5.5,11l-1.8,3l2.1,4.3l2.1,4.8   l-0.9,5.8l-5.2,5.4l-3.3,11.3l0.6,9.7l12.5,20.4l2.1,16.4l9.7,15.6l4.2,7l0.3,3.3l-1.8,1.2l2.1,5.8l1.5-0.9l4.6,3l10.4-3.3l8.8,0.9   l8.8-2.4l13.1-9.1l4.3-5.5l1.8-2.1l4.8-4l4-10.3l-0.6,0.9l-1.2-1.5l13.4-7.9l1.2-8.5l-2.7-7.3l0.3-4l0.9,0.9l6.7-4.6l2.8-4.6   l13.7-6.4l0.6-1.2l4.2-6.1l-0.9-8.8l0.9-0.9l-0.6-6.7l1.5-3l-2.7-2.1l-1.2-0.9V824l-1.2-7.9l0.9-2.1h-1.2l1.8-4l-3.4-4.6l2.1-6.4   l3.7-7.6l0.9-1.8l3.7-2.1l-0.9-1.5h2.5l9.7-12.9l10.3-8.2l7.6-9.7l10.1-23.5v-2.8l-0.3-1.5l2.1-0.6h-1.5l0.3-6.4l-2.1-0.9l-4.8,3   l-8.3,0.9l-3.6,2.1l-2.8-0.9l-4.9,2.4l-6.4-5.8l-2.8,0.3l3.7-2.1l-0.6-2.1l-10.1-10.1l-4.3-1.5l-0.9-1.5l-0.9-0.9l-0.3,1.8   l-6.4-13.7l-5.5-3.7l-2.4-10.3l0.9,0.6l-2.4-4.6l-5.5-4l-1.5-4.3h1.2l-3-2.4l-8.2-14.3l-4.6-4.9l-1.1-3.7c0,0,0,0,0-0.1   c-0.1-0.1-0.1-0.2-0.2-0.4c-0.2-0.8-0.7-1.7-0.7-2.8c0-0.2,0-0.3,0-0.4c0-0.5-0.1-0.9-0.1-1.4l-1.5,0.2l-0.9-1.9l-3.7-0.3l-7.3,3   l-8.5-2.4l-7.3-0.3l-1.2-1.8l-6.7-0.9l-0.9-1.9l-5.5-1.2l-6.4,3v5.4h-0.3l-4.3,2.2l-4.6-2.5l-8.5-2.1l-2.1-4l-7.3-2.1l-4.2,0.3   l-8.3-3.7l-0.6-1.9l4.9-3.9l-2.4-3.7l2.4-3.7l-2.4,1.5L248.7,610.1L248.7,610.1z M140.6,665.3l0.3-0.4l-0.9,0.9L140.6,665.3z    M191,615.2L191,615.2h0.2C191.2,615.2,191.1,615.2,191,615.2z M155.1,642.7l-2.1,1.5l1.5-0.6L155.1,642.7z M153,644.5l-3,3   l1.8-0.6L153,644.5z M144.8,645.4l-3,0.9l0.3,1.5L144.8,645.4z M145.7,647l-0.6,1.2l1.5-0.3L145.7,647z M344.6,664.9l1.5,4.9   l-4.3,0.9l-4,5.2l2.4-4.9l3.7-0.9L344.6,664.9z M139.6,697.8l3,2.5l2.1,4.6l-5.2-6.7l-7,0.3L139.6,697.8z M379.1,701.5l0.3,1.2   l1.8,0.3l-1.8-1.5L379.1,701.5z M180.1,702.4l1.5,1.8l-1.2,0.3L180.1,702.4z M260.6,710.4l0.9,3l1.9-0.9v1.5l4.3,0.6l-5.5,2.8   l-3.4-6.4L260.6,710.4z M369.9,718l-0.6,3.3l-1.5-2.4L369.9,718z M216.4,722.5l2.7,2.1l-0.9,4.3v0.6l-0.3-0.6l-0.9-1.8l1.8-2.4   L216.4,722.5z M192,733.2l4.8,5.8l0.3,0.6l0.9-5.8l-1.2,13.4v-1.5l-0.3-0.3l-3.4-1.5l3,0.9l0.3-0.6l0.6-2.4l-0.6-0.9l-0.9-0.3h-2.1   l2.7-0.9l-3-1.5l-0.6-2.7h-3.4l3.1-0.3L192,733.2z M226.1,735.3l1.8,4l-1.8,11.2l1.5-11.6L226.1,735.3z M172.5,737.8l-1.2,3.3   l0.6,0.9l1.2-0.9l-0.6,2.4l-1.8-2.1L172.5,737.8z M366,754.2l2.1,11l-3.7-6.1L366,754.2L366,754.2z M237.7,758.5l-2.5,1.8v0.3   l1.2,0.6L237.7,758.5z M281.9,764.9l-2.1,13.7l3.4-7l4-2.1l3.3-1.8l0.9-0.6l10-0.8l0.4-0.1l0.1,0l0.5,0l10.1,7l-10.6-6.9l-0.4,0   l-10.9,2.3l-3.3,0.9l-4.3,3l0.3,3.9l-10.7,10.4l-0.3,4.3l-0.3-4l7.6-8.5L281.9,764.9z M344.6,765.2l-0.9,3.3l-3.3,3l-0.3-2.1   L344.6,765.2z M354.1,768.5l-1.8,0.6l0.6,1.5l-3-0.9L354.1,768.5z M353.5,774l0.6,1.5l2.1-0.3l1.2,3l2.2-1.2l0.6,0.9l-3.7,1.2   l-0.3,4.6l-3.7,2.4l3,0.9l-2.1,1.5l-2.1-0.6l0.3,2.1l-1.2,0.9l0.3-2.4l-2.7-1.2l-1.8,2.7l-0.9-4l1.8-9.4l3-1.5l1.5,0.9L353.5,774z    M337.3,777.1l-2.4,2.4l0.6-2.1L337.3,777.1z M242.6,780.4l1.5,0.6l-1.5,0.9V780.4z M283.4,784.1l-1.2,1.9l1.5,0.6l-1.8,2.8   l-0.6-4.6L283.4,784.1z M333.4,784.1l1.5,2.1l-2.4,2.1L333.4,784.1z M334.6,792.6l2.8,11.6l-1.2,2.1l3.9,3.3l2.5,8.6l-3-1.2   l-1.5-5.8l-4.3-5.5l0.3-9.8l-0.9,1.2L334.6,792.6L334.6,792.6z M379.7,803.9l-0.6,2.1l1.5,1.5l-0.6-2.4L379.7,803.9z M346.2,812.7   l2.8,2.5l-2.8-0.6V812.7z M335.8,817l1.8,0.3l-3,1.8L335.8,817z M333.1,817.6l-2.1,4l-1.8,0.3l0.3-2.1L333.1,817.6z M355.3,821.9   l2.1,2.1l1.5,7l-1.5,4.6l1.9,9.2l-2.8-1.2l-2.1-8.8l1.9-2.8L355,824l-0.3-1.2h0.3L355.3,821.9z M336.1,828.3h0.3v1.8l-1.5,0.6   L336.1,828.3z M395.5,830.7l-0.6,1.5l0.9,0.9L395.5,830.7z M419.6,833.4l-2.4,2.1l-0.3,4.3l-2.4,2.1l-1.2-0.9v3h-0.9l-1.8,3.7   l0.3-1.8l-2.1,2.4l0.6,1.2l-1.2,0.6l0.3-1.8l-2.2,1.5v2.1l-1.2-1.2l-7.3,2.1l-3,6.1l0.6,11.3l-4.9,5.8l-1.8,4.6l0.6,11.9l3.3,1.8   l8.5-2.1l14.9-30.2l0.9-4.6l1.9-1.5v-6.1l1.2-0.3l0.6,2.4l1.5-2.4l-0.6-11.2L419,835L419.6,833.4L419.6,833.4z M399.8,833.8   l-0.9,0.6l1.2,0.9L399.8,833.8z M330.9,854.8l-4.2,1.2l-5.2,5.2l3.9-5.2L330.9,854.8z M444,870.3l-1.2,2.4l1.5-1.2L444,870.3z    M436.4,874.3l-1.5,0.6l1.5,1.5V874.3z M315.7,902.6l-0.9,1.8l-1.6-0.5h-0.1l1.1,0.8l-1.5-0.6l0.4-0.2l-0.1-0.1l0.2,0.1   L315.7,902.6L315.7,902.6z" />
	<path
   id="africa-fill"
   class="st4"
   d="M248.7,610.1l-7,2.1l-5.4-1.2l-4.3,1.8l-5.2-1.2l-11,1.8l-4.6,2.4l-3.3,0.6l-4.6,2.4h-3   l-0.3-1.5l-6.4,0.9l-2.1-2.8l-1.8,0.6l-4.9,7L174,629l-3.3,4.6l-0.9,5.4l-0.3,0.3l-2.4,3l-6.1,4.3l-5.4,1.2l-4,5.5l-3.7,2.1l-3,6.4   l-4.2,3.4l-6.4,9.4l-1.5,4.3l0.9-1.5l1.9,4.2l-2.1,4l0.6,7.3l-3.7,9.4l-4.3,4.3l3.4,3.9l-0.3,2.5l3.7-0.6l-3,1.2l-1.2-0.9l-0.9,3.9   h2.2l-2.2,0.9l3,0.3l-1.5,1.2l1.8,0.3l-0.6,1.2l4.3-1.2l-2.4,0.9l1.8,0.9l-2.1,1.2l0.9,1.5l1.2-0.6l-0.6,1.2l1.5-0.9l0.6,4.3   l1.8,0.9l1.8,0.9l-0.9,1.5l1.5,0.6l0.3,4l1.5-0.3l-2.1,0.6l3.3,3.3l-0.3,1.8l5.2,2.7l10.1,9.5l5.2,2.1l6.1-3l9.5-1.2l8.8,2.4   l9.1-4.3l6.4-2.5l11.3-2.4l-1.9,1.2l4.6,0.3l3,2.7l1.5-0.9l-1.5,1.2l2.1,0.3l-1.5,0.3l0.6,0.9l1.5-0.9l-1.5,1.8l3,4.3l3.3-0.3v-1.2   l0.6,1.2l-0.3-1.5l0.9,1.5l0.6-1.8l1.2,1.2l4.3-0.3l-0.3-1.8l1.5,2.1l1.5-1.2l1.5,3.7l2.5-0.6l0.6,1.2h-1.2l1.8,3.7l-3,9.1l1.9,0.3   l-0.3,3l-1.5-0.3l3,1.5l-2.1,0.6l-0.9-1.2l-0.9,4.9h-2.1l4.6,8.2l10.1,9.7l2.1,6.1l2.4,1.2l-2.1,0.6l5.5,11l-1.8,3l2.1,4.3l2.1,4.8   l-0.9,5.8l-5.2,5.4l-3.3,11.3l0.6,9.7l12.5,20.4l2.1,16.4l9.7,15.6l4.2,7l0.3,3.3l-1.8,1.2l2.1,5.8l1.5-0.9l4.6,3l10.4-3.3l8.8,0.9   l8.8-2.4l13.1-9.1l4.3-5.5l1.8-2.1l4.8-4l4-10.3l-0.6,0.9l-1.2-1.5l13.4-7.9l1.2-8.5l-2.7-7.3l0.3-4l0.9,0.9l6.7-4.6l2.8-4.6   l13.7-6.4l0.6-1.2l4.2-6.1l-0.9-8.8l0.9-0.9l-0.6-6.7l1.5-3l-2.7-2.1l-1.2-0.9V824l-1.2-7.9l0.9-2.1h-1.2l1.8-4l-3.4-4.6l2.1-6.4   l3.7-7.6l0.9-1.8l3.7-2.1l-0.9-1.5h2.5l9.7-12.9l10.3-8.2l7.6-9.7l10.1-23.5v-2.8l-0.3-1.5l2.1-0.6h-1.5l0.3-6.4l-2.1-0.9l-4.8,3   l-8.3,0.9l-3.6,2.1l-2.8-0.9l-4.9,2.4l-6.4-5.8l-2.8,0.3l3.7-2.1l-0.6-2.1l-10.1-10.1l-4.3-1.5l-0.9-1.5l-0.9-0.9l-0.3,1.8   l-6.4-13.7l-5.5-3.7l-2.4-10.3l0.9,0.6l-2.4-4.6l-5.5-4l-1.5-4.3h1.2l-3-2.4l-8.2-14.3l-4.6-4.9l-1.1-3.7c0,0,0,0,0-0.1   c-0.1-0.1-0.1-0.2-0.2-0.4c-0.2-0.8-0.7-1.7-0.7-2.8c0-0.2,0-0.3,0-0.4c0-0.5-0.1-0.9-0.1-1.4l-1.5,0.2l-0.9-1.9l-3.7-0.3l-7.3,3   l-8.5-2.4l-7.3-0.3l-1.2-1.8l-6.7-0.9l-0.9-1.9l-5.5-1.2l-6.4,3v5.4h-0.3l-4.3,2.2l-4.6-2.5l-8.5-2.1l-2.1-4l-7.3-2.1l-4.2,0.3   l-8.3-3.7l-0.6-1.9l4.9-3.9l-2.4-3.7l2.4-3.7l-2.4,1.5L248.7,610.1L248.7,610.1z M140.6,665.3l0.3-0.4l-0.9,0.9L140.6,665.3z    M155.1,642.7l-2.1,1.5l1.5-0.6L155.1,642.7z M153,644.5l-3,3l1.8-0.6L153,644.5z M144.8,645.4l-3,0.9l0.3,1.5L144.8,645.4z    M145.7,647l-0.6,1.2l1.5-0.3L145.7,647z M344.6,664.9l1.5,4.9l-4.3,0.9l-4,5.2l2.4-4.9l3.7-0.9L344.6,664.9z M139.6,697.8l3,2.5   l2.1,4.6l-5.2-6.7l-7,0.3L139.6,697.8z M379.1,701.5l0.3,1.2l1.8,0.3l-1.8-1.5L379.1,701.5z M260.6,710.4l0.9,3l1.9-0.9v1.5   l4.3,0.6l-5.5,2.8l-3.4-6.4L260.6,710.4z M369.9,718l-0.6,3.3l-1.5-2.4L369.9,718z M216.4,722.5l2.7,2.1l-0.9,4.3v0.6l-0.3-0.6   l-0.9-1.8l1.8-2.4L216.4,722.5z M192,733.2l4.8,5.8l0.3,0.6l0.9-5.8l-1.2,13.4v-1.5l-0.3-0.3l-3.4-1.5l3,0.9l0.3-0.6l0.6-2.4   l-0.6-0.9l-0.9-0.3h-2.1l2.7-0.9l-3-1.5l-0.6-2.7h-3.4l3.1-0.3L192,733.2z M226.1,735.3l1.8,4l-1.8,11.2l1.5-11.6L226.1,735.3z    M172.5,737.8l-1.2,3.3l0.6,0.9l1.2-0.9l-0.6,2.4l-1.8-2.1L172.5,737.8z M366,754.2l2.1,11l-3.7-6.1L366,754.2z M237.7,758.5   l-2.5,1.8v0.3l1.2,0.6L237.7,758.5z M281.9,764.9l-2.1,13.7l3.4-7l4-2.1l3.3-1.8l0.9-0.6l10-0.8l0.4-0.1l0.1,0l0.5,0l10.1,7   l-10.6-6.9l-0.4,0l-10.9,2.3l-3.3,0.9l-4.3,3l0.3,3.9l-10.7,10.4l-0.3,4.3l-0.3-4l7.6-8.5L281.9,764.9L281.9,764.9z M344.6,765.2   l-0.9,3.3l-3.3,3l-0.3-2.1L344.6,765.2z M354.1,768.5l-1.8,0.6l0.6,1.5l-3-0.9L354.1,768.5z M353.5,774l0.6,1.5l2.1-0.3l1.2,3   l2.2-1.2l0.6,0.9l-3.7,1.2l-0.3,4.6l-3.7,2.4l3,0.9l-2.1,1.5l-2.1-0.6l0.3,2.1l-1.2,0.9l0.3-2.4l-2.7-1.2l-1.8,2.7l-0.9-4l1.8-9.4   l3-1.5l1.5,0.9L353.5,774z M337.3,777.1l-2.4,2.4l0.6-2.1L337.3,777.1z M242.6,780.4l1.5,0.6l-1.5,0.9V780.4z M283.4,784.1   l-1.2,1.9l1.5,0.6l-1.8,2.8l-0.6-4.6L283.4,784.1z M333.4,784.1l1.5,2.1l-2.4,2.1L333.4,784.1z M334.6,792.6l2.8,11.6l-1.2,2.1   l3.9,3.3l2.5,8.6l-3-1.2l-1.5-5.8l-4.3-5.5l0.3-9.8l-0.9,1.2L334.6,792.6z M379.7,803.9l-0.6,2.1l1.5,1.5l-0.6-2.4L379.7,803.9z    M346.2,812.7l2.8,2.5l-2.8-0.6V812.7z M335.8,817l1.8,0.3l-3,1.8L335.8,817z M333.1,817.6l-2.1,4l-1.8,0.3l0.3-2.1L333.1,817.6z    M355.3,821.9l2.1,2.1l1.5,7l-1.5,4.6l1.9,9.2l-2.8-1.2l-2.1-8.8l1.9-2.8L355,824l-0.3-1.2h0.3L355.3,821.9z M336.1,828.3h0.3v1.8   l-1.5,0.6L336.1,828.3z M395.5,830.7l-0.6,1.5l0.9,0.9L395.5,830.7z M419.6,833.4l-2.4,2.1l-0.3,4.3l-2.4,2.1l-1.2-0.9v3h-0.9   l-1.8,3.7l0.3-1.8l-2.1,2.4l0.6,1.2l-1.2,0.6l0.3-1.8l-2.2,1.5v2.1l-1.2-1.2l-7.3,2.1l-3,6.1l0.6,11.3l-4.9,5.8l-1.8,4.6l0.6,11.9   l3.3,1.8l8.5-2.1l14.9-30.2l0.9-4.6l1.9-1.5v-6.1l1.2-0.3l0.6,2.4l1.5-2.4l-0.6-11.2L419,835L419.6,833.4z M399.8,833.8l-0.9,0.6   l1.2,0.9L399.8,833.8z M330.9,854.8l-4.2,1.2l-5.2,5.2l3.9-5.2L330.9,854.8z M444,870.3l-1.2,2.4l1.5-1.2L444,870.3z M436.4,874.3   l-1.5,0.6l1.5,1.5V874.3z M315.7,902.6l-0.9,1.8l-1.6-0.5h-0.1l1.1,0.8l-1.5-0.6l0.4-0.2l-0.1-0.1l0.2,0.1L315.7,902.6L315.7,902.6   z M104,705.4l0.9,0l-1-1.5L104,705.4z" />
	<path
   class="st5"
   d="M365.6,630.2l17.7,7.6l0.6,3.3l1.5,0.6l0.3-0.2l2.9,1.2l2.5,0.3l4.3-0.1l7,1.9"
   id="path55248" />
	<path
   id="hemisphere-grid"
   class="st6"
   d="M139.2,539.5h275 M38.7,640h476 M2.2,777.5h549 M38.7,915h476 M139.2,1015.5h275    M275,1051.8c-53.4,0-105.6-16.7-149.9-47.2c-45-31.5-79.6-76.1-99.3-128.3C9.6,833.4,4.4,786.5,10.2,740.4   c5.8-42.2,21.5-84,45.8-119.9c32.3-47.1,79.5-84.3,134.3-102.8c27.3-9.6,55.7-14.2,85-14.3 M275,1051.8   c-37.5,0.1-72-14.3-101.5-37.2c-31-25-54.9-59.1-71.5-96.8c-22.7-53-31.3-110.4-27.2-168.9c4.3-52.4,19.1-103.6,46.9-149.3   c21.2-33.2,49.6-62.8,85.3-80.1c20.9-10.3,43.8-16.1,67.9-16.1 M275,1051.8c-19.7-1-31.4-20.1-40.2-36c-12.5-25-19-49.2-25.3-76.2   C195.8,873.4,192,803.5,194.9,734c3.1-54.7,9.7-109.5,25.9-160.3c8.2-23.3,18.1-50.5,39.3-65.8c4.7-2.7,9.5-4.6,14.9-4.6    M275,1051.8c14.4-1.2,22-17.7,27.4-29.9c13.9-32.5,19-65.8,24.4-99.9c9.3-70.7,10.9-144.3,7-216.6c-3.5-49.7-8.9-99.5-21.8-145.6   c-6.5-19.4-12.3-41.9-29.4-54.3c-2.4-1.1-4.7-2.2-7.6-2.1 M275,1051.8c36.2,0,68.9-15.4,96-39c41.5-37.1,67.3-90.9,79.8-144.4   c14.7-61.1,14.1-128.2-1.8-188.9C435,625.8,407.7,572,364.3,536.9c-26-20.8-56.1-33.4-89.3-33.5 M275,1051.8   c50.5,0,99.2-15.4,141.7-43.6c42.5-29,76.2-69.9,97-118.2c19.4-45.6,26.7-95.4,21.2-145.3c-5.7-47.6-23.6-95.1-52.7-134.4   c-27.4-37.6-64.4-67.5-108.2-86.5c-31.5-13.4-64.7-20.4-99.3-20.4" />
	
		<radialGradient
   id="hemisphere-shadow_1_"
   cx="83.5948"
   cy="1044.1964"
   r="45.07"
   gradientTransform="matrix(-3.098 7.94 7.191 2.806 -6982.792 -2924.8357)"
   gradientUnits="userSpaceOnUse">
		<stop
   offset="0"
   style="stop-color:#000000;stop-opacity:0"
   id="stop55251" />
		<stop
   offset="0.49"
   style="stop-color:#000000;stop-opacity:2.000000e-02"
   id="stop55253" />
		<stop
   offset="0.57"
   style="stop-color:#000000;stop-opacity:4.000000e-02"
   id="stop55255" />
		<stop
   offset="0.64"
   style="stop-color:#000000;stop-opacity:7.000000e-02"
   id="stop55257" />
		<stop
   offset="0.7"
   style="stop-color:#000000;stop-opacity:0.15"
   id="stop55259" />
		<stop
   offset="0.73"
   style="stop-color:#000000;stop-opacity:0.21"
   id="stop55261" />
		<stop
   offset="1"
   style="stop-color:#000000;stop-opacity:0.55"
   id="stop55263" />
	</radialGradient>
	<path
   id="hemisphere-shadow"
   class="st7"
   d="M551,777.4c0.4-80-36.5-159.2-98.1-210.2c-61.3-51.8-146.3-74.6-225.2-59.4   c-84,14.4-159.2,71.1-196.5,147.8c-34.7,68.8-38.1,152.5-8.8,223.9c30.5,78,99.3,139.7,180.1,161.8c77.7,22.6,165.1,7.7,231.3-39   c66.6-45.8,110.7-122.8,116.4-203.5c0.7-6.5,0.9-13.2,0.9-19.8L551,777.4z" />
</g>
<path
   style="opacity:0.87218;fill:#336633;fill-opacity:1;stroke-width:0.00390625"
   d="m 435.26782,215.24066 c -0.22008,-0.0735 -0.40084,-0.13581 -0.40169,-0.13837 -10e-4,-0.004 0.15573,-0.005 0.68042,-0.005 0.37508,0 0.68197,8.7e-4 0.68197,0.002 0,0.004 -0.54688,0.2754 -0.5537,0.27509 -0.004,-1.7e-4 -0.18692,-0.0605 -0.407,-0.13403 z"
   id="path55854" /><path
   style="opacity:0.87218;fill:#336633;fill-opacity:1;stroke-width:0.00552427"
   d="m 435.46453,215.30503 c -0.10786,-0.0354 -0.19984,-0.0658 -0.2044,-0.0674 -0.005,-0.002 -0.0887,-0.0305 -0.18689,-0.0642 -0.0982,-0.0337 -0.17902,-0.0637 -0.17954,-0.0667 -0.001,-0.008 0.6844,-0.0149 1.02862,-0.01 l 0.29627,0.004 -0.0249,0.0145 c -0.0769,0.0449 -0.4945,0.24801 -0.51652,0.25122 -0.0112,0.002 -0.0799,-0.0184 -0.21268,-0.062 z"
   id="path57332" /><path
   style="opacity:0.87218;fill:#336633;fill-opacity:1;stroke-width:0.00390625"
   d="m 435.61328,215.35298 c -0.25225,-0.0809 -0.71128,-0.23652 -0.71836,-0.24361 -0.002,-0.002 -0.003,-0.005 -0.002,-0.006 0.004,-0.004 0.68375,-0.0104 0.87809,-0.008 0.10635,0.001 0.24346,0.003 0.30469,0.003 0.16281,9.2e-4 0.15762,-0.003 0.0622,0.0466 -0.13343,0.0693 -0.45699,0.22635 -0.46528,0.22587 -0.003,-1.6e-4 -0.0297,-0.008 -0.0598,-0.0178 z"
   id="path57334" /></svg>
